<?xml version="1.0" encoding="UTF-8" standalone="no"?>
<!-- Created with Inkscape (http://www.inkscape.org/) -->
<svg
   xmlns:dc="http://purl.org/dc/elements/1.1/"
   xmlns:cc="http://web.resource.org/cc/"
   xmlns:rdf="http://www.w3.org/1999/02/22-rdf-syntax-ns#"
   xmlns:svg="http://www.w3.org/2000/svg"
   xmlns="http://www.w3.org/2000/svg"
   xmlns:xlink="http://www.w3.org/1999/xlink"
   xmlns:sodipodi="http://sodipodi.sourceforge.net/DTD/sodipodi-0.dtd"
   xmlns:inkscape="http://www.inkscape.org/namespaces/inkscape"
   width="500"
   height="150"
   id="svg3936"
   sodipodi:version="0.32"
   inkscape:version="0.45.1"
   sodipodi:docbase="/home/simon/svg"
   sodipodi:docname="Amfu-PSK.svg"
   inkscape:output_extension="org.inkscape.output.svg.inkscape"
   version="1.0"
   inkscape:export-filename="/home/simon/Documents/OpenOffice/Behelf/images/Amfu-PSK.png"
   inkscape:export-xdpi="288"
   inkscape:export-ydpi="288">
  <defs
     id="defs3938">
    <linearGradient
       id="linearGradient3372">
      <stop
         style="stop-color:#ffffff;stop-opacity:0.60784316;"
         offset="0"
         id="stop3374" />
      <stop
         id="stop3380"
         offset="0.14306588"
         style="stop-color:#f8f8fc;stop-opacity:0.95686269;" />
      <stop
         style="stop-color:#f1f1fa;stop-opacity:0.95686269;"
         offset="0.84779787"
         id="stop3382" />
      <stop
         style="stop-color:#ffffff;stop-opacity:0.5714286;"
         offset="1"
         id="stop3376" />
    </linearGradient>
    <linearGradient
       id="linearGradient3132">
      <stop
         style="stop-color:#49477b;stop-opacity:0;"
         offset="0"
         id="stop3134" />
      <stop
         id="stop3160"
         offset="0.6331647"
         style="stop-color:#545194;stop-opacity:0.85871965;" />
      <stop
         style="stop-color:#5e5b98;stop-opacity:0.96909493;"
         offset="0.92941606"
         id="stop3162" />
      <stop
         style="stop-color:#ce8795;stop-opacity:0;"
         offset="1"
         id="stop3136" />
    </linearGradient>
    <linearGradient
       inkscape:collect="always"
       xlink:href="#linearGradient3132"
       id="linearGradient3138"
       x1="-832.08685"
       y1="329.89529"
       x2="-309.22971"
       y2="332.03815"
       gradientUnits="userSpaceOnUse"
       gradientTransform="matrix(-0.4566158,0,0,-0.4566158,-855.56786,454.32648)" />
    <linearGradient
       inkscape:collect="always"
       xlink:href="#linearGradient3132"
       id="linearGradient3353"
       gradientUnits="userSpaceOnUse"
       gradientTransform="matrix(-0.4566158,0,0,-1.3821946,55.245895,519.77889)"
       x1="-832.08685"
       y1="329.89529"
       x2="-309.22971"
       y2="332.03815" />
    <clipPath
       clipPathUnits="userSpaceOnUse"
       id="clipPath2218">
      <path
         sodipodi:type="arc"
         style="fill:#ffffff;fill-opacity:0.88321168;stroke:#000000;stroke-width:1;stroke-linecap:round;stroke-miterlimit:4;stroke-dasharray:none;stroke-dashoffset:0;stroke-opacity:1"
         id="path2220"
         sodipodi:cx="479.82245"
         sodipodi:cy="110.38372"
         sodipodi:rx="110.10663"
         sodipodi:ry="110.10663"
         d="M 589.92908 110.38372 A 110.10663 110.10663 0 1 1  369.71582,110.38372 A 110.10663 110.10663 0 1 1  589.92908 110.38372 z"
         transform="matrix(0.4566158,0,0,0.4566158,11.022569,-5.5549805)" />
    </clipPath>
    <clipPath
       clipPathUnits="userSpaceOnUse"
       id="clipPath2222">
      <path
         sodipodi:type="arc"
         style="fill:#ffffff;fill-opacity:0.88321168;stroke:#000000;stroke-width:1;stroke-linecap:round;stroke-miterlimit:4;stroke-dasharray:none;stroke-dashoffset:0;stroke-opacity:1"
         id="path2224"
         sodipodi:cx="479.82245"
         sodipodi:cy="110.38372"
         sodipodi:rx="110.10663"
         sodipodi:ry="110.10663"
         d="M 589.92908 110.38372 A 110.10663 110.10663 0 1 1  369.71582,110.38372 A 110.10663 110.10663 0 1 1  589.92908 110.38372 z"
         transform="matrix(0.4566158,0,0,0.4566158,11.022569,-5.5549805)" />
    </clipPath>
  </defs>
  <sodipodi:namedview
     id="base"
     pagecolor="#ffffff"
     bordercolor="#666666"
     borderopacity="1.0"
     inkscape:pageopacity="0.0"
     inkscape:pageshadow="2"
     inkscape:zoom="1.5529977"
     inkscape:cx="415.18456"
     inkscape:cy="65.054747"
     inkscape:document-units="px"
     inkscape:current-layer="layer2"
     inkscape:window-width="1672"
     inkscape:window-height="994"
     inkscape:window-x="0"
     inkscape:window-y="0"
     showguides="true"
     inkscape:guide-bbox="true"
     width="500px"
     height="150px" />
  <metadata
     id="metadata3941">
    <rdf:RDF>
      <cc:Work
         rdf:about="">
        <dc:format>image/svg+xml</dc:format>
        <dc:type
           rdf:resource="http://purl.org/dc/dcmitype/StillImage" />
        <cc:license
           rdf:resource="http://creativecommons.org/licenses/by-sa/2.5/" />
        <dc:title>Phasenwechsel bei PM</dc:title>
        <dc:date>2008</dc:date>
        <dc:creator>
          <cc:Agent>
            <dc:title>Simon Eugster, hb9eia</dc:title>
          </cc:Agent>
        </dc:creator>
        <dc:rights>
          <cc:Agent>
            <dc:title>GFDL, cc-by-sa</dc:title>
          </cc:Agent>
        </dc:rights>
      </cc:Work>
      <cc:License
         rdf:about="http://creativecommons.org/licenses/by-sa/2.5/">
        <cc:permits
           rdf:resource="http://web.resource.org/cc/Reproduction" />
        <cc:permits
           rdf:resource="http://web.resource.org/cc/Distribution" />
        <cc:requires
           rdf:resource="http://web.resource.org/cc/Notice" />
        <cc:requires
           rdf:resource="http://web.resource.org/cc/Attribution" />
        <cc:permits
           rdf:resource="http://web.resource.org/cc/DerivativeWorks" />
        <cc:requires
           rdf:resource="http://web.resource.org/cc/ShareAlike" />
      </cc:License>
    </rdf:RDF>
  </metadata>
  <g
     inkscape:label="Ebene 1"
     inkscape:groupmode="layer"
     id="layer1"
     transform="translate(910.81376,-234.52796)"
     style="display:inline">
    <path
       style="fill:#000000;stroke:#000000;stroke-opacity:1"
       d="M -495.0272,338.35976 C -496.08125,335.8266 -497.08918,325.11816 -498.97367,296.43198 C -501.49459,258.05797 -502.56271,250.33902 -503.94924,260.47537 C -504.71647,266.08424 -505.25852,272.76278 -506.72862,294.71976 C -509.11879,330.41856 -509.93898,338.21013 -511.3067,338.21013 C -512.62023,338.21013 -513.67053,329.0995 -515.41242,302.59597 C -517.28712,274.07155 -518.17945,263.53781 -519.08205,259.27682 C -519.32143,258.14675 -519.53186,257.06806 -519.54967,256.87971 C -519.56749,256.69137 -519.76534,256.8788 -519.98934,257.29623 C -520.92392,259.03787 -522.00246,270.81889 -524.08946,302.0823 C -525.3678,321.23187 -526.31846,331.69104 -527.13142,335.54973 C -527.4414,337.02101 -528.39357,337.84815 -528.81935,337.01602 C -529.74113,335.21453 -530.59545,326.39004 -532.53291,298.65787 C -534.5861,269.26904 -535.28903,261.80025 -536.28579,258.78285 C -536.56088,257.95009 -536.56371,257.9497 -536.93129,258.69493 C -537.78233,260.42028 -538.68145,269.73865 -540.52293,295.91831 C -542.02699,317.30101 -542.59876,324.20266 -543.31733,329.64904 C -544.02259,334.99447 -544.87505,336.94368 -545.75523,335.22349 C -546.61559,333.54203 -547.88096,320.47092 -549.65967,294.89098 C -551.08985,274.32342 -552.07573,264.2532 -552.94384,261.34511 C -553.37211,259.91042 -553.50801,259.76232 -553.81853,260.39185 C -554.41196,261.59491 -555.49862,271.38347 -556.50793,284.61766 C -558.90739,316.07969 -559.30931,320.91248 -559.93961,325.88215 C -560.62749,331.30576 -561.2624,333.75836 -561.97855,333.75836 C -563.2552,333.75836 -564.22233,325.45548 -566.54577,294.54854 C -568.09324,273.96368 -569.21071,264.25598 -570.18619,262.92339 C -571.09498,261.68192 -572.39792,272.54846 -574.3272,297.45931 C -576.29238,322.83392 -577.32207,330.33392 -578.84057,330.33392 C -580.07042,330.33392 -581.00099,323.21382 -583.22666,296.77442 C -584.48892,281.77958 -585.50559,272.32168 -586.1899,269.20769 C -586.43824,268.07763 -586.64261,267.03745 -586.64407,266.89619 C -586.64552,266.75494 -586.8311,266.63936 -587.05645,266.63936 C -588.02009,266.63936 -589.17149,275.06233 -590.98861,295.40465 C -593.19449,320.09921 -594.13681,326.2246 -595.7299,326.2246 C -596.81626,326.2246 -597.83819,319.47309 -599.9025,298.65787 C -602.12443,276.25329 -603.0346,270.59683 -604.26883,271.52245 C -604.99535,272.06732 -606.08465,279.87001 -608.58294,302.42475 C -610.05685,315.73125 -611.1852,321.25916 -612.42742,321.25916 C -613.62674,321.25916 -614.50377,316.56796 -616.78078,297.97298 C -618.75693,281.83494 -619.89659,276.02851 -620.93508,276.80733 C -621.63311,277.33083 -622.5706,281.72671 -623.84227,290.43921 C -624.50204,294.95947 -625.35674,300.81526 -625.7416,303.45208 C -626.69394,309.97694 -627.64469,313.90529 -628.51169,314.89765 C -629.18526,315.6686 -629.27803,315.68526 -629.81737,315.1321 C -630.64239,314.28594 -631.56086,310.1379 -633.6547,297.80176 C -635.39428,287.55279 -636.42628,283.27755 -637.32339,282.60355 C -638.03504,282.06888 -639.04001,284.57527 -640.07267,289.46023 C -643.89301,307.53218 -644.44037,309.44485 -645.79182,309.44485 C -647.19468,309.44485 -647.75801,308.03573 -650.53339,297.58405 C -652.23578,291.17308 -653.42507,288.21333 -654.2987,288.21333 C -654.99627,288.21333 -655.95358,290.14961 -657.85417,295.40465 C -658.91,298.32398 -660.16444,301.37866 -660.6418,302.19281 C -662.25148,304.93817 -663.92847,303.81512 -666.9924,297.93995 C -667.59121,296.79171 -668.52496,295.43482 -669.0674,294.92463 C -669.96063,294.08452 -670.16859,294.03629 -671.27208,294.41336 C -671.94221,294.64234 -672.49049,294.93767 -672.49049,295.06963 C -672.49049,295.20159 -673.37813,296.0244 -674.46302,296.8981 C -676.81163,298.78951 -677.90921,298.89068 -680.44846,297.44978 C -681.43497,296.88999 -682.60434,296.43198 -683.04708,296.43198 C -683.48981,296.43198 -684.93726,297.35658 -686.26363,298.48664 C -689.9447,301.62292 -691.17694,301.25096 -693.90267,296.18079 C -695.71401,292.81148 -697.21474,291.31139 -698.17573,291.90953 C -699.06549,292.46332 -699.99622,294.36521 -701.71231,299.13625 C -703.42209,303.88977 -704.72684,306.24871 -705.64626,306.24871 C -707.05578,306.24871 -707.96316,304.09244 -710.611,294.4506 C -712.2136,288.61494 -713.33006,285.81622 -714.05542,285.81622 C -714.85141,285.81622 -715.97508,289.51805 -718.12699,299.22952 C -720.38822,309.43438 -721.20808,311.84195 -722.42196,311.84195 C -723.7297,311.84195 -724.58294,308.72135 -726.82263,295.74709 C -728.5792,285.57147 -729.41491,281.88165 -730.22292,280.73412 L -730.86415,279.82345 L -731.31127,280.69658 C -732.0456,282.13053 -733.08842,287.73947 -734.80982,299.51397 C -736.58453,311.65315 -737.53956,316.2553 -738.48268,317.21301 C -740.28149,319.03964 -741.12963,315.22065 -743.97242,292.49388 C -745.68201,278.8265 -746.83784,273.52375 -747.81646,274.85802 C -748.6548,276.00103 -749.81608,283.80728 -751.71359,301.05497 C -752.35594,306.89364 -753.18845,313.59698 -753.5636,315.95128 C -754.26306,320.34076 -755.37409,323.62767 -756.05211,323.3134 C -757.1909,322.78557 -758.27535,315.75259 -760.38189,295.23342 C -762.43959,275.19013 -763.26999,269.72136 -764.25578,269.72136 C -765.23183,269.72136 -766.0879,275.99714 -768.36651,299.85692 C -770.63078,323.56667 -771.5006,328.81533 -772.9815,327.70472 C -774.05724,326.89795 -775.13497,318.88193 -776.81773,299.17153 C -779.09991,272.43998 -780.10913,264.669 -781.19048,265.50134 C -782.07227,266.18009 -782.99893,273.9711 -784.80823,295.91831 C -787.33428,326.55983 -788.0466,331.981 -789.49896,331.61792 C -790.91142,331.26483 -791.56903,325.93763 -793.9481,295.57587 C -794.70077,285.97032 -795.53046,276.03088 -795.79185,273.48824 C -796.48358,266.75957 -797.41928,261.59304 -797.88316,261.94093 C -798.8085,262.6349 -799.92097,272.69231 -801.69826,296.43198 C -803.6725,322.80233 -804.43908,330.39169 -805.40794,333.15909 C -805.84424,334.40533 -806.41378,334.7683 -806.93691,334.13351 C -807.74072,333.15812 -809.10031,319.42857 -810.83989,294.71976 C -811.33715,287.65685 -811.85965,280.56827 -812.001,278.96734 C -813.04112,267.18714 -813.88975,260.68001 -814.49735,259.82588 C -815.4405,258.50006 -816.58688,268.64456 -818.38251,294.20609 C -820.76483,328.11943 -821.63973,336.05736 -823.03364,336.40582 C -824.37884,336.7421 -825.23399,329.23994 -827.51208,297.11687 C -831.24274,244.51114 -831.80147,244.77845 -835.7436,301.05497 C -837.65062,328.27907 -838.44018,336.03801 -839.4251,337.23317 C -841.06396,339.22187 -842.04683,331.44619 -844.17127,299.6852 C -846.15675,270.0019 -847.29589,258.34258 -848.28287,257.60239 C -848.53661,257.41209 -848.74421,257.34961 -848.74421,257.46354 C -848.74421,257.57746 -849.04398,259.65011 -849.41036,262.06941 C -850.1242,266.78308 -850.93125,276.70799 -852.39949,298.82909 C -854.44744,329.68432 -855.39137,337.86769 -856.90249,337.86769 C -858.20979,337.86769 -858.94623,330.4878 -861.77211,289.06943 C -863.32703,266.2793 -864.20588,258.01494 -865.15196,257.28645 C -865.35064,257.13347 -865.63708,257.59577 -865.78851,258.31378 C -866.31697,260.81956 -867.4413,272.36622 -868.13306,282.39178 C -868.51644,287.94793 -869.34772,299.96771 -869.98035,309.1024 C -871.47596,330.69763 -872.41785,338.21013 -873.62977,338.21013 C -874.99416,338.21013 -875.77834,330.99521 -877.96586,298.31542 C -879.8041,270.85369 -881.0418,257.71327 -881.84707,257.10935 C -882.3451,256.73585 -882.52383,257.43762 -883.18798,262.37431 C -884.03131,268.64286 -884.44677,273.82554 -886.1927,299.85642 C -888.11763,328.55608 -888.88979,336.17612 -890.03992,337.82235 L -890.63105,338.66847 L -891.12179,337.49758 C -892.1536,335.03571 -892.93766,326.73421 -894.85481,297.97298 C -897.00757,265.67707 -897.88616,257.05093 -899.02277,257.05093 C -899.24596,257.05093 -899.42857,257.2476 -899.42857,257.48797 C -899.42857,257.72835 -899.62833,259.15376 -899.87249,260.65558 C -900.49914,264.51018 -901.55765,277.13233 -902.62863,293.52121 C -904.30331,319.1482 -905.57593,334.37346 -906.07457,334.74742 C -906.36729,334.96695 -906.32415,334.06138 -905.83985,329.82026 C -905.19616,324.18329 -904.56303,315.93392 -903.30365,296.77442 C -901.63923,271.453 -900.49885,259.16421 -899.60943,256.96532 C -899.21519,255.99065 -898.58252,256.27635 -898.09274,257.65021 C -897.14633,260.30495 -895.89845,274.51486 -893.95025,304.82186 C -892.88119,321.45255 -891.68582,334.12086 -890.91552,336.98345 C -890.48481,338.58404 -889.96459,337.39479 -889.42568,333.5776 C -888.63879,328.00389 -888.09078,321.34779 -886.64932,299.85642 C -884.90809,273.89555 -884.4876,268.64116 -883.65686,262.46242 C -882.96053,257.28337 -882.71813,256.36605 -882.04591,256.36605 C -880.68398,256.36605 -879.73166,264.92643 -877.74105,295.0622 C -875.91605,322.69067 -874.9374,333.7279 -874.02146,337.01158 C -873.73821,338.02704 -873.73027,338.02953 -873.33389,337.22645 C -872.61271,335.76531 -871.6077,326.00689 -870.43743,309.1024 C -869.80504,299.96771 -868.97947,288.02498 -868.60281,282.563 C -867.53437,267.0692 -866.48937,257.86023 -865.67591,256.77012 C -865.35114,256.3349 -865.21989,256.35852 -864.81568,256.92493 C -863.69303,258.49812 -862.91181,265.67257 -861.3155,289.06943 C -859.36167,317.70629 -858.78195,325.17682 -858.06162,331.0004 C -857.33917,336.84111 -856.84226,338.46428 -856.33482,336.641 C -855.44646,333.44899 -854.39822,322.05444 -852.85633,298.82909 C -850.89524,269.28954 -849.84977,258.54467 -848.79978,257.13756 C -847.1623,254.94317 -846.1292,263.58718 -843.71466,299.6852 C -842.24101,321.7165 -841.3474,331.60395 -840.51407,335.09828 C -840.11756,336.76093 -839.61618,337.80533 -839.60925,336.98304 C -839.60779,336.81039 -839.41328,335.78396 -839.17701,334.70209 C -838.49639,331.58566 -837.43105,319.41896 -835.96094,297.97298 C -833.6419,264.14271 -832.73373,256.61604 -831.1171,257.82845 C -830.09297,258.5965 -829.11238,268.06254 -827.06493,296.94564 C -824.9771,326.3983 -824.17711,334.45622 -823.21254,335.74884 C -822.85532,336.22756 -822.31734,333.92378 -821.58819,328.79293 C -821.21028,326.1336 -820.10587,312.23874 -818.83913,294.20609 C -817.06003,268.87993 -816.04211,259.78086 -814.93028,259.26553 C -813.47644,258.59167 -812.51433,265.49495 -810.8481,288.55577 C -808.76337,317.40857 -808.03352,325.80748 -807.17301,330.84759 C -806.94792,332.166 -806.75741,333.46814 -806.74965,333.74124 C -806.74077,334.0541 -806.5761,334.11744 -806.30452,333.91246 C -805.20236,333.0806 -804.26328,324.61125 -802.16767,296.6032 C -800.21873,270.55532 -799.14429,261.50271 -798.00167,261.50271 C -796.46499,261.50271 -795.72195,267.11545 -793.4909,295.57587 C -791.21847,324.56418 -790.36304,331.88992 -789.34011,331.12276 C -788.38696,330.40793 -787.55359,323.34942 -785.50713,298.65787 C -783.46753,274.04914 -782.4657,265.78842 -781.42631,265.00892 C -780.88469,264.60273 -780.25838,265.49242 -779.78793,267.33628 C -779.0798,270.11169 -778.15391,278.60448 -776.59726,296.6032 C -774.79707,317.41767 -773.62023,326.86041 -772.74446,327.51721 C -771.83674,328.19797 -770.66069,319.75786 -768.60391,297.80176 C -766.16076,271.72127 -765.15054,266.35259 -763.39628,270.12659 C -762.55641,271.93344 -761.62156,278.67363 -759.93777,295.0622 C -757.93488,314.55654 -757.23191,319.6606 -756.18822,322.28649 C -755.96143,322.85709 -755.81822,322.7598 -755.33012,321.70355 C -754.52558,319.96256 -753.55306,313.60565 -752.17116,301.05497 C -750.2374,283.49208 -749.11787,276.03897 -748.22326,274.7724 C -746.60691,272.484 -745.4752,276.77006 -743.49878,292.6651 C -741.32207,310.17096 -740.05694,317.32106 -739.13617,317.32106 C -738.14907,317.32106 -737.30947,313.39306 -735.06728,298.28492 C -732.62698,281.84199 -731.86997,278.98787 -730.22126,280.01405 C -729.34704,280.55818 -728.4144,284.08089 -727.05321,291.98021 C -725.36687,301.76647 -723.78112,309.4475 -723.21761,310.55907 C -721.96846,313.02307 -721.09908,310.90877 -718.60556,299.34275 C -714.82442,281.80421 -713.78355,281.3069 -709.93857,295.2018 C -706.54047,307.48172 -705.57432,308.25509 -702.84011,300.88375 C -699.63312,292.23782 -699.03733,291.19084 -697.42269,291.36375 C -696.45595,291.46728 -695.96392,292.09161 -692.48688,297.62678 C -691.55363,299.11243 -690.66587,300.06564 -690.14612,300.14013 C -689.59808,300.21867 -688.37755,299.5397 -686.61324,298.17483 C -685.13068,297.02792 -683.53499,296.08953 -683.06726,296.08953 C -682.59953,296.08953 -681.31265,296.54903 -680.20752,297.11064 C -677.64649,298.4121 -676.89731,298.4002 -675.34786,297.03347 C -673.03413,294.99256 -671.06298,293.69239 -670.28906,293.69667 C -669.38895,293.70164 -668.06414,295.17296 -666.59271,297.80176 C -664.19669,302.0824 -663.29304,303.28086 -662.46137,303.28086 C -661.3904,303.28086 -660.69336,301.95723 -658.28735,295.3546 C -656.04675,289.20591 -655.36351,287.87088 -654.45732,287.87088 C -653.15434,287.87088 -651.9198,290.67084 -649.89623,298.21551 C -646.88285,309.45065 -646.46496,310.27508 -644.97285,307.92846 C -644.28824,306.85179 -643.59445,303.96976 -640.5541,289.57288 C -638.62742,280.44948 -636.96363,279.72255 -635.09106,287.18599 C -634.83116,288.22189 -633.88845,293.46128 -632.99616,298.82909 C -631.32742,308.86778 -630.23444,314.0195 -629.59019,314.88286 C -628.65176,316.14046 -627.43672,311.98253 -626.14982,303.10964 C -623.78394,286.79747 -623.10306,282.35728 -622.68401,280.50834 C -621.54908,275.50085 -620.42143,274.89553 -619.3348,278.71051 C -618.36297,282.12245 -617.92671,284.91588 -616.32651,297.97298 C -614.10469,316.10225 -613.21688,321.03763 -612.25749,320.59295 C -611.38679,320.18937 -610.14986,312.99687 -608.8091,300.54131 C -606.21173,276.41169 -605.30105,270.74869 -604.0181,270.74869 C -602.51995,270.74869 -601.56454,276.72697 -599.20213,300.88375 C -597.54951,317.78254 -596.64143,324.35276 -595.80088,325.49273 C -595.26453,326.22013 -594.54241,323.55941 -593.76896,318.00594 C -593.01062,312.56084 -592.67598,309.27348 -590.96284,290.43921 C -589.33827,272.57865 -588.2941,265.95447 -587.10333,265.95447 C -585.7382,265.95447 -584.66437,273.83901 -582.5327,299.51397 C -580.90806,319.08209 -579.77828,328.43877 -578.89766,329.61889 C -577.85225,331.01985 -576.66037,321.70324 -574.78346,297.45931 C -572.88472,272.93328 -571.68829,262.83304 -570.62331,262.33942 C -569.05798,261.61389 -568.00008,269.12877 -566.08915,294.54854 C -563.93821,323.16089 -562.94276,332.46039 -561.98332,332.9051 C -560.97579,333.37209 -559.86404,323.54781 -557.87525,296.6032 C -555.63627,266.26885 -554.8408,259.44804 -553.54206,259.44804 C -552.14931,259.44804 -551.04345,268.48405 -549.20446,294.89098 C -547.85952,314.20348 -546.96997,324.71332 -546.22189,330.12928 C -545.59736,334.65083 -545.37877,335.45534 -544.87702,335.07906 C -544.05914,334.46568 -542.84196,322.52913 -541.21551,299.17153 C -538.95992,266.77875 -538.055,258.11126 -536.8714,257.56266 C -535.91536,257.11954 -534.99953,261.51021 -534.15668,270.57747 C -533.89407,273.40263 -532.9579,286.03881 -532.07629,298.65787 C -530.439,322.0935 -529.86996,328.75977 -529.09542,333.57816 C -528.85402,335.07997 -528.6565,336.42834 -528.6565,336.57454 C -528.6565,336.72074 -528.47728,336.84036 -528.25824,336.84036 C -527.26005,336.84036 -526.21008,327.00915 -524.54608,302.0823 C -522.43326,270.43206 -521.38699,259.09523 -520.39896,257.1463 C -518.61713,253.63157 -517.6348,261.83388 -514.9558,302.59597 C -513.88443,318.89735 -512.81974,331.223 -512.20483,334.44325 C -511.97107,335.66749 -511.77573,336.87085 -511.77076,337.1174 C -511.76578,337.36395 -511.58322,337.48294 -511.36507,337.38182 C -510.25826,336.86881 -509.46557,328.7782 -507.18523,294.71976 C -505.09411,263.48743 -504.2716,255.68116 -503.07192,255.68116 C -501.53554,255.68116 -500.70735,263.09076 -498.51706,296.43198 C -497.05006,318.76296 -495.9872,331.58998 -495.31064,335.12814 C -495.07655,336.35238 -494.88094,337.57747 -494.87597,337.85057 C -494.87043,338.15482 -494.71124,338.22112 -494.46492,338.02179 C -493.43471,337.1881 -492.55575,328.17546 -490.52577,297.63053 C -488.61281,268.84633 -487.67871,258.42895 -486.8163,256.26159 C -486.46735,255.38461 -485.62038,255.71885 -485.19343,256.90203 C -484.56167,258.65278 -483.51909,269.0908 -482.54482,283.41911 C -480.16361,318.4391 -479.74575,324.04141 -479.08392,329.82026 C -478.69565,333.21045 -478.21801,336.5236 -478.02251,337.1828 L -477.66705,338.38135 L -477.14429,336.49791 C -476.18361,333.03673 -475.39863,324.10029 -473.39928,293.86365 C -471.64193,267.28683 -470.58091,256.87276 -469.5519,256.10104 C -468.0927,255.00669 -466.96429,263.49006 -465.41719,287.18599 C -463.37475,318.46856 -462.28332,332.03768 -461.51962,335.6418 C -461.28017,336.77187 -461.06968,337.85057 -461.05186,338.03891 C -461.03404,338.22725 -460.84423,338.05611 -460.63005,337.65858 C -459.62265,335.78881 -458.59048,324.86945 -456.74924,296.6032 C -454.67913,264.82348 -453.70749,255.68116 -452.40005,255.68116 C -451.005,255.68116 -450.05733,264.48348 -447.82841,298.1442 C -445.99291,325.86343 -445.16731,334.84637 -444.21773,337.4285 C -443.45194,339.51093 -442.382,331.769 -441.20224,315.60884 C -440.81037,310.24103 -440.30663,303.46064 -440.0828,300.54131 L -439.67586,295.23342 L -439.88079,301.05497 C -440.32695,313.72876 -442.24497,334.7962 -443.18555,337.35402 C -443.39336,337.91906 -443.73924,338.38135 -443.95426,338.38135 C -445.31178,338.38135 -446.11451,330.92346 -448.28503,298.1442 C -449.77059,275.70947 -450.83067,262.95528 -451.50132,259.44804 C -451.73541,258.2238 -451.93102,256.99871 -451.93599,256.72561 C -451.94169,256.41277 -452.10449,256.34943 -452.37604,256.55439 C -453.37554,257.30881 -454.44146,268.19402 -456.28103,296.43198 C -458.52788,330.92192 -459.51076,339.5277 -461.06874,338.35151 C -462.30784,337.41604 -463.2477,327.40818 -465.8738,287.18599 C -467.17391,267.27315 -468.48875,255.62547 -469.3098,256.74791 C -470.30028,258.10199 -471.17082,267.0054 -472.93885,293.86365 C -474.44031,316.6726 -474.53418,317.91605 -475.51631,328.00699 C -476.20731,335.10653 -476.90455,338.38135 -477.72511,338.38135 C -478.38553,338.38135 -478.76499,336.59191 -479.54053,329.82026 C -480.20237,324.04141 -480.62022,318.4391 -483.00144,283.41911 C -484.32143,264.00639 -485.40097,255.13006 -486.30811,256.23083 C -487.11995,257.21598 -488.28246,270.23414 -490.31084,301.05497 C -492.14394,328.90863 -493.00796,337.23513 -494.19108,338.44858 C -494.70764,338.97837 -494.77267,338.97147 -495.0272,338.35976 z "
       id="path4063" />
    <path
       style="fill:#000000"
       d=""
       id="path4055" />
    <path
       id="path2159"
       d="M -495.94043,256.15439 C -496.99448,258.68755 -498.00242,269.39599 -499.88691,298.08217 C -502.40782,336.45617 -503.47595,344.17512 -504.86248,334.03878 C -505.6297,328.42991 -506.17175,321.75137 -507.64185,299.79439 C -510.03202,264.09559 -510.85222,256.30402 -512.21994,256.30402 C -513.53346,256.30402 -514.58377,265.41465 -516.32566,291.91818 C -518.20036,320.4426 -519.09269,330.97633 -519.99529,335.23733 C -520.23466,336.36739 -520.44509,337.44609 -520.46291,337.63443 C -520.48073,337.82278 -520.67858,337.63535 -520.90257,337.21792 C -521.83716,335.47628 -522.9157,323.69525 -525.0027,292.43184 C -526.28104,273.28228 -527.2317,262.8231 -528.04466,258.96442 C -528.35463,257.49313 -529.3068,256.66599 -529.73259,257.49813 C -530.65436,259.29962 -531.50869,268.12411 -533.44614,295.85628 C -535.49933,325.2451 -536.20227,332.71389 -537.19903,335.7313 C -537.47411,336.56405 -537.47694,336.56444 -537.84453,335.81922 C -538.69557,334.09387 -539.59468,324.7755 -541.43617,298.59583 C -542.94022,277.21314 -543.51199,270.31148 -544.23056,264.86511 C -544.93582,259.51967 -545.78828,257.57046 -546.66846,259.29066 C -547.52882,260.97212 -548.79419,274.04323 -550.5729,299.62317 C -552.00308,320.19073 -552.98896,330.26094 -553.85707,333.16904 C -554.28534,334.60372 -554.42124,334.75183 -554.73176,334.1223 C -555.32519,332.91923 -556.41185,323.13067 -557.42116,309.89648 C -559.82062,278.43445 -560.22254,273.60167 -560.85284,268.63199 C -561.54072,263.20839 -562.17563,260.75578 -562.89178,260.75578 C -564.16843,260.75578 -565.13556,269.05867 -567.459,299.96561 C -569.00647,320.55046 -570.12394,330.25817 -571.09942,331.59076 C -572.00821,332.83223 -573.31115,321.96568 -575.24043,297.05483 C -577.20562,271.68023 -578.2353,264.18022 -579.7538,264.18022 C -580.98366,264.18022 -581.91422,271.30033 -584.13989,297.73973 C -585.40215,312.73456 -586.41882,322.19246 -587.10313,325.30645 C -587.35147,326.43652 -587.55584,327.4767 -587.5573,327.61795 C -587.55875,327.75921 -587.74433,327.87479 -587.96969,327.87479 C -588.93332,327.87479 -590.08473,319.45182 -591.90184,299.1095 C -594.10772,274.41494 -595.05004,268.28955 -596.64313,268.28955 C -597.72949,268.28955 -598.75142,275.04106 -600.81573,295.85628 C -603.03766,318.26085 -603.94783,323.91732 -605.18206,322.9917 C -605.90858,322.44683 -606.99788,314.64414 -609.49617,292.0894 C -610.97008,278.7829 -612.09844,273.25498 -613.34066,273.25498 C -614.53997,273.25498 -615.417,277.94619 -617.69401,296.54117 C -619.67016,312.67921 -620.80983,318.48564 -621.84831,317.70681 C -622.54635,317.18332 -623.48383,312.78744 -624.7555,304.07494 C -625.41527,299.55468 -626.26997,293.69888 -626.65483,291.06207 C -627.60717,284.53721 -628.55792,280.60885 -629.42492,279.6165 C -630.09849,278.84554 -630.19126,278.82888 -630.7306,279.38204 C -631.55562,280.22821 -632.47409,284.37624 -634.56793,296.71239 C -636.30751,306.96136 -637.33951,311.2366 -638.23662,311.9106 C -638.94827,312.44526 -639.95324,309.93887 -640.9859,305.05392 C -644.80624,286.98197 -645.3536,285.0693 -646.70505,285.0693 C -648.10792,285.0693 -648.67124,286.47841 -651.44662,296.93009 C -653.14901,303.34106 -654.3383,306.30082 -655.21194,306.30082 C -655.9095,306.30082 -656.86682,304.36454 -658.7674,299.1095 C -659.82324,296.19016 -661.07767,293.13549 -661.55503,292.32133 C -663.16471,289.57598 -664.8417,290.69902 -667.90563,296.5742 C -668.50444,297.72243 -669.43819,299.07932 -669.98063,299.58951 C -670.87386,300.42963 -671.08182,300.47786 -672.18531,300.10079 C -672.85544,299.8718 -673.40373,299.57648 -673.40373,299.44452 C -673.40373,299.31255 -676.65598,297.26667 -678.06703,296.39297 C -680.63087,294.80548 -682.00245,294.97116 -684.5417,296.41206 C -685.52821,296.97185 -688.29392,297.52934 -689.83108,297.59294 C -690.76379,297.63153 -691.72126,295.60833 -693.04763,294.47827 C -696.72871,291.34199 -698.77633,291.95857 -701.50206,297.02874 C -703.3134,300.39805 -704.81413,301.89814 -705.77513,301.3 C -706.66488,300.74621 -707.59562,298.84432 -709.3117,294.07328 C -711.02149,289.31976 -712.32623,286.96082 -713.24565,286.96082 C -714.65517,286.96082 -712.95332,289.93248 -715.60116,299.57431 C -717.20376,305.40998 -718.32022,308.20869 -719.04558,308.20869 C -719.84157,308.20869 -720.96524,304.50687 -723.11715,294.79539 C -725.37838,284.59053 -725.62747,282.01988 -726.84135,282.01988 C -728.14909,282.01988 -727.86079,285.46664 -730.10048,298.4409 C -731.85705,308.61652 -732.69276,312.30634 -733.50077,313.45387 L -734.142,314.36454 L -734.58912,313.49141 C -735.32345,312.05746 -734.00165,306.77468 -735.72305,295.00017 C -737.49776,282.86099 -738.45279,278.25885 -739.39592,277.30114 C -741.19472,275.47451 -742.04286,279.2935 -744.88565,302.02027 C -746.59525,315.68764 -747.75107,320.9904 -748.72969,319.65613 C -749.56803,318.51312 -750.72931,310.70687 -752.62683,293.45918 C -753.26918,287.62051 -754.10168,280.91717 -754.47683,278.56286 C -755.17629,274.17338 -756.28732,270.88648 -756.96534,271.20075 C -758.10413,271.72858 -759.18858,278.76156 -761.29513,299.28072 C -763.35282,319.32402 -764.18323,324.79279 -765.16901,324.79279 C -766.14507,324.79279 -767.00113,318.51701 -769.27974,294.65723 C -771.54401,270.94748 -772.41383,265.69882 -773.89473,266.80943 C -774.97047,267.61619 -776.04821,275.63222 -777.73096,295.34262 C -780.01314,322.07417 -781.02236,329.84514 -782.10371,329.0128 C -782.98551,328.33406 -783.91216,320.54305 -785.72146,298.59583 C -788.24752,267.95431 -788.95983,262.53315 -790.41219,262.89622 C -791.82465,263.24932 -792.48226,268.57651 -794.86134,298.93828 C -795.614,308.54383 -796.44369,318.48326 -796.70508,321.02591 C -797.39681,327.75457 -798.33252,332.9211 -798.79639,332.57322 C -799.72173,331.87924 -800.8342,321.82183 -802.61149,298.08217 C -804.58573,271.71182 -805.35231,264.12245 -806.32117,261.35506 C -806.75748,260.10882 -807.32702,259.74584 -807.85014,260.38063 C -808.65396,261.35603 -810.01354,275.08557 -811.75313,299.79439 C -812.25038,306.85729 -812.77288,313.94588 -812.91423,315.54681 C -813.95435,327.327 -814.80298,333.83414 -815.41058,334.68826 C -816.35373,336.01409 -817.50012,325.86959 -819.29574,300.30805 C -821.67806,266.39472 -822.55296,258.45679 -823.94687,258.10833 C -825.29207,257.77204 -826.14722,265.27421 -828.42531,297.39728 C -832.15597,350.003 -832.71471,349.73569 -836.65684,293.45918 C -838.56386,266.23508 -839.35341,258.47614 -840.33833,257.28098 C -841.9772,255.29228 -842.96006,263.06795 -845.08451,294.82895 C -847.06998,324.51224 -848.20913,336.17157 -849.19611,336.91176 C -849.44985,337.10205 -849.65745,337.16454 -849.65745,337.05061 C -849.65745,336.93668 -849.95722,334.86404 -850.32359,332.44474 C -851.03744,327.73106 -851.84449,317.80615 -853.31273,295.68506 C -855.36068,264.82982 -856.30461,256.64646 -857.81573,256.64646 C -859.12303,256.64646 -859.85947,264.02634 -862.68535,305.44471 C -864.24027,328.23484 -865.11911,336.49921 -866.0652,337.22769 C -866.26387,337.38067 -866.55032,336.91837 -866.70175,336.20036 C -867.2302,333.69458 -868.35454,322.14793 -869.0463,312.12237 C -869.42967,306.56621 -870.26095,294.54643 -870.89359,285.41174 C -872.38919,263.81651 -873.33108,256.30402 -874.54301,256.30402 C -875.9074,256.30402 -876.69158,263.51894 -878.87909,296.19872 C -880.71733,323.66046 -881.95503,336.80087 -882.76031,337.4048 C -883.25834,337.7783 -883.43707,337.07653 -884.10121,332.13983 C -884.94454,325.87128 -885.36001,320.6886 -887.10594,294.65773 C -889.03087,265.95807 -889.80303,258.33802 -890.95315,256.69179 L -891.54428,255.84568 L -892.03502,257.01657 C -893.06683,259.47844 -893.85089,267.77994 -895.76805,296.54117 C -897.92081,328.83707 -898.79939,337.46321 -899.93601,337.46321 C -900.1592,337.46321 -900.34181,337.26654 -900.34181,337.02617 C -900.34181,336.7858 -900.54157,335.36038 -900.78572,333.85857 C -901.41237,330.00396 -902.47088,317.38182 -903.54187,300.99294 C -905.21654,275.36595 -906.48916,260.14068 -906.9878,259.76672 C -907.28052,259.5472 -907.23738,260.45277 -906.75308,264.69389 C -906.10939,270.33085 -905.47626,278.58023 -904.21688,297.73973 C -902.55246,323.06114 -901.41208,335.34994 -900.52266,337.54882 C -900.12843,338.52349 -899.49575,338.2378 -899.00597,336.86394 C -898.05957,334.2092 -896.81169,319.99929 -894.86348,289.69229 C -893.79442,273.06159 -892.59906,260.39329 -891.82876,257.5307 C -891.39804,255.9301 -890.87783,257.11935 -890.33892,260.93654 C -889.55203,266.51026 -889.00401,273.16635 -887.56255,294.65773 C -885.82132,320.6186 -885.40084,325.87298 -884.57009,332.05172 C -883.87376,337.23077 -883.63136,338.1481 -882.95915,338.1481 C -881.59722,338.1481 -880.64489,329.58772 -878.65428,299.45194 C -876.82929,271.82347 -875.85064,260.78625 -874.9347,257.50257 C -874.65145,256.4871 -874.64351,256.48462 -874.24713,257.28769 C -873.52595,258.74883 -872.52094,268.50726 -871.35066,285.41174 C -870.71828,294.54643 -869.8927,306.48917 -869.51605,311.95114 C -868.44761,327.44495 -867.4026,336.65391 -866.58915,337.74402 C -866.26438,338.17925 -866.13312,338.15563 -865.72892,337.58922 C -864.60627,336.01603 -863.82505,328.84157 -862.22873,305.44471 C -860.27491,276.80786 -859.69519,269.33732 -858.97485,263.51374 C -858.2524,257.67304 -857.75549,256.04987 -857.24806,257.87315 C -856.3597,261.06515 -855.31146,272.45971 -853.76957,295.68506 C -851.80848,325.2246 -850.76301,335.96948 -849.71301,337.37658 C -848.07553,339.57098 -847.04244,330.92697 -844.62789,294.82895 C -843.15425,272.79765 -842.26064,262.9102 -841.42731,259.41587 C -841.0308,257.75321 -840.52941,256.70882 -840.52249,257.5311 C -840.52103,257.70375 -840.32652,258.73018 -840.09024,259.81206 C -839.40962,262.92849 -838.34429,275.09519 -836.87418,296.54117 C -834.55513,330.37144 -833.64696,337.89811 -832.03034,336.6857 C -831.0062,335.91765 -830.02561,326.45161 -827.97816,297.5685 C -825.89033,268.11585 -825.09034,260.05792 -824.12578,258.76531 C -823.76855,258.28659 -823.23057,260.59036 -822.50143,265.72122 C -822.12351,268.38055 -821.0191,282.2754 -819.75236,300.30805 C -817.97327,325.63421 -816.95534,334.73328 -815.84351,335.24862 C -814.38968,335.92247 -813.42756,329.01919 -811.76133,305.95838 C -809.67661,277.10557 -808.94676,268.70666 -808.08625,263.66656 C -807.86115,262.34815 -807.67064,261.046 -807.66288,260.77291 C -807.654,260.46005 -807.48933,260.39671 -807.21775,260.60168 C -806.1156,261.43354 -805.17652,269.9029 -803.0809,297.91095 C -801.13196,323.95882 -800.05752,333.01144 -798.91491,333.01144 C -797.37822,333.01144 -796.63518,327.3987 -794.40413,298.93828 C -792.1317,269.94997 -791.27628,262.62423 -790.25334,263.39139 C -789.30019,264.10621 -788.46682,271.16473 -786.42036,295.85628 C -784.38076,320.46501 -783.37894,328.72572 -782.33955,329.50523 C -781.79793,329.91142 -781.17161,329.02172 -780.70116,327.17786 C -779.99303,324.40246 -779.06714,315.90967 -777.51049,297.91095 C -775.71031,277.09647 -774.53346,267.65373 -773.65769,266.99694 C -772.74997,266.31618 -771.57392,274.75629 -769.51714,296.71239 C -767.074,322.79288 -766.06377,328.16156 -764.30952,324.38756 C -763.46964,322.5807 -762.53479,315.84051 -760.851,299.45194 C -758.84811,279.95761 -758.14514,274.85355 -757.10145,272.22765 C -756.87466,271.65706 -756.73146,271.75434 -756.24335,272.8106 C -755.43881,274.55159 -754.46629,280.9085 -753.08439,293.45918 C -751.15063,311.02206 -750.0311,318.47517 -749.13649,319.74174 C -747.52014,322.03014 -746.38843,317.74408 -744.41201,301.84905 C -742.2353,284.34318 -740.97017,277.19309 -740.0494,277.19309 C -739.0623,277.19309 -738.22271,281.12108 -735.98051,296.22922 C -733.54021,312.67215 -735.14782,315.20012 -733.49911,314.17394 C -732.62489,313.62981 -731.69225,310.1071 -730.33106,302.20778 C -728.64472,292.42152 -728.20051,284.41434 -727.63699,283.30277 C -726.38785,280.83877 -726.08924,283.11614 -723.59572,294.68216 C -719.81458,312.22071 -718.77371,312.71802 -714.92873,298.82311 C -711.53063,286.54319 -713.17371,284.95444 -710.4395,292.32578 C -707.23251,300.97171 -706.63672,302.0187 -705.02208,301.84578 C -704.05534,301.74225 -703.56331,301.11792 -700.08627,295.58275 C -699.15303,294.0971 -698.26527,293.14389 -697.74551,293.0694 C -697.19748,292.99086 -695.16156,293.42521 -693.39724,294.79008 C -691.91468,295.937 -690.92422,297.89432 -689.85127,297.93538 C -688.63456,297.98194 -685.40589,297.31281 -684.30076,296.7512 C -681.73973,295.44974 -679.75118,295.73814 -678.95187,296.2576 C -676.60228,297.78456 -672.13929,300.82176 -671.36537,300.81748 C -670.46526,300.8125 -668.97737,299.34119 -667.50594,296.71239 C -665.10992,292.43174 -664.20627,291.23329 -663.3746,291.23329 C -662.30363,291.23329 -661.60659,292.55692 -659.20058,299.15954 C -656.95998,305.30824 -656.27674,306.64326 -655.37055,306.64326 C -654.06757,306.64326 -652.83303,303.84331 -650.80946,296.29863 C -647.79608,285.06349 -647.37819,284.23906 -645.88608,286.58568 C -645.20147,287.66235 -644.50768,290.54439 -641.46733,304.94127 C -639.54065,314.06467 -637.87686,314.7916 -636.00429,307.32815 C -635.74439,306.29226 -634.80169,301.05287 -633.90939,295.68506 C -632.24066,285.64636 -631.14767,280.49465 -630.50342,279.63129 C -629.56499,278.37368 -628.34996,282.53162 -627.06305,291.40451 C -624.69718,307.71668 -624.01629,312.15687 -623.59724,314.00581 C -622.46231,319.0133 -621.33467,319.61861 -620.24803,315.80364 C -619.2762,312.3917 -618.83994,309.59826 -617.23974,296.54117 C -615.01792,278.4119 -614.13011,273.47652 -613.17072,273.9212 C -612.30002,274.32477 -611.06309,281.51728 -609.72234,293.97284 C -607.12496,318.10246 -606.21428,323.76546 -604.93133,323.76546 C -603.43318,323.76546 -602.47777,317.78718 -600.11536,293.6304 C -598.46274,276.73161 -597.55466,270.16138 -596.71411,269.02142 C -596.17776,268.29401 -595.45564,270.95474 -594.68219,276.5082 C -593.92385,281.95331 -593.58921,285.24067 -591.87608,304.07494 C -590.2515,321.9355 -589.20733,328.55967 -588.01656,328.55967 C -586.65144,328.55967 -585.5776,320.67514 -583.44593,295.00017 C -581.82129,275.43206 -580.69151,266.07537 -579.81089,264.89526 C -578.76548,263.49429 -577.5736,272.81091 -575.69669,297.05483 C -573.79795,321.58087 -572.60152,331.68111 -571.53654,332.17473 C -569.97121,332.90026 -568.91332,325.38537 -567.00238,299.96561 C -564.85144,271.35326 -563.85599,262.05375 -562.89655,261.60905 C -561.88903,261.14206 -560.77727,270.96634 -558.78849,297.91095 C -556.5495,328.24529 -555.75403,335.06611 -554.45529,335.06611 C -553.06254,335.06611 -551.95669,326.0301 -550.11769,299.62317 C -548.77275,280.31067 -547.8832,269.80083 -547.13512,264.38487 C -546.51059,259.86332 -546.292,259.0588 -545.79025,259.43509 C -544.97237,260.04847 -543.75519,271.98502 -542.12875,295.34262 C -539.87315,327.7354 -538.96823,336.40288 -537.78464,336.95149 C -536.8286,337.39461 -535.91276,333.00393 -535.06992,323.93668 C -534.80731,321.11152 -533.87113,308.47534 -532.98953,295.85628 C -531.35224,272.42065 -530.78319,265.75438 -530.00866,260.93599 C -529.76725,259.43418 -529.56973,258.0858 -529.56973,257.9396 C -529.56973,257.79341 -529.39052,257.67379 -529.17148,257.67379 C -528.17329,257.67379 -527.12331,267.505 -525.45931,292.43184 C -523.34649,324.08209 -522.30022,335.41892 -521.31219,337.36785 C -519.53037,340.88258 -518.54804,332.68026 -515.86904,291.91818 C -514.79766,275.6168 -513.73298,263.29114 -513.11807,260.07089 C -512.8843,258.84666 -512.68897,257.64329 -512.68399,257.39675 C -512.67902,257.1502 -512.49646,257.03121 -512.27831,257.13233 C -511.1715,257.64533 -510.37881,265.73595 -508.09847,299.79439 C -506.00735,331.02672 -505.18484,338.83299 -503.98516,338.83299 C -502.44878,338.83299 -501.62058,331.42339 -499.43029,298.08217 C -497.9633,275.75118 -496.90044,262.92416 -496.22388,259.38601 C -495.98979,258.16177 -495.79418,256.93668 -495.78921,256.66358 C -495.78366,256.35933 -495.62447,256.29302 -495.37815,256.49236 C -494.34794,257.32605 -493.46899,266.33869 -491.43901,296.88361 C -489.52605,325.66782 -488.59195,336.0852 -487.72954,338.25256 C -487.38058,339.12954 -486.53361,338.7953 -486.10666,337.61212 C -485.4749,335.86137 -484.43233,325.42335 -483.45806,311.09504 C -481.07684,276.07505 -480.65899,270.47274 -479.99715,264.69389 C -479.60888,261.30369 -479.13125,257.99055 -478.93575,257.33135 L -478.58029,256.13279 L -478.05753,258.01623 C -477.09684,261.47741 -476.31186,270.41386 -474.31251,300.6505 C -472.55516,327.22731 -471.49414,337.64139 -470.46514,338.41311 C -469.00593,339.50745 -467.87753,331.02408 -466.33042,307.32815 C -464.28799,276.04558 -463.19655,262.47647 -462.43286,258.87234 C -462.1934,257.74228 -461.98291,256.66358 -461.9651,256.47524 C -461.94728,256.28689 -461.75746,256.45804 -461.54328,256.85556 C -460.53588,258.72533 -459.50372,269.6447 -457.66248,297.91095 C -455.59237,329.69067 -454.62073,338.83299 -453.31329,338.83299 C -451.91823,338.83299 -450.97056,330.03066 -448.74165,296.36995 C -446.90615,268.65072 -446.08054,259.66778 -445.13096,257.08565 C -444.36517,255.00321 -443.29523,262.74515 -442.11547,278.90531 C -441.7236,284.27312 -441.21986,291.05351 -440.99603,293.97284 L -440.58909,299.28072 L -440.79402,293.45918 C -441.24018,280.78538 -443.1582,259.71794 -444.09878,257.16012 C -444.30659,256.59509 -444.65247,256.13279 -444.86749,256.13279 C -446.22501,256.13279 -447.02774,263.59069 -449.19827,296.36995 C -450.68383,318.80467 -451.74391,331.55886 -452.41456,335.06611 C -452.64865,336.29034 -452.84425,337.51544 -452.84923,337.78853 C -452.85493,338.10137 -453.01773,338.16472 -453.28927,337.95975 C -454.28877,337.20533 -455.3547,326.32013 -457.19426,298.08217 C -459.44112,263.59222 -460.424,254.98645 -461.98197,256.16264 C -463.22108,257.0981 -464.16094,267.10597 -466.78704,307.32815 C -468.08715,327.24099 -469.40199,338.88867 -470.22303,337.76624 C -471.21351,336.41216 -472.08406,327.50875 -473.85208,300.6505 C -475.35355,277.84154 -475.44741,276.5981 -476.42955,266.50716 C -477.12054,259.40761 -477.81778,256.13279 -478.63835,256.13279 C -479.29877,256.13279 -479.67823,257.92224 -480.45377,264.69389 C -481.1156,270.47274 -481.53346,276.07505 -483.91468,311.09504 C -485.23466,330.50775 -486.31421,339.38409 -487.22134,338.28332 C -488.03319,337.29817 -489.19569,324.28001 -491.22407,293.45918 C -493.05717,265.60552 -493.9212,257.27902 -495.10432,256.06557 C -495.62087,255.53577 -495.6859,255.54268 -495.94043,256.15439 z "
       style="fill:url(#linearGradient3138);fill-opacity:1"
       sodipodi:nodetypes="csssssssssssssssssssssssssssssssssssssssssssssssssssssssssssssssssssscccssssssssssssssssssssssssssssssssssssssssssssscccssssssssssssssssssssssssssssssssssssssssssssssssssssssssssssssssssssssssssssssssssssssssssssssssssssssssssssssssssssssssssssssssssssscccssssssssssscccssssssssssssssssssc" />
    <text
       xml:space="preserve"
       style="font-size:28px;font-style:normal;font-variant:normal;font-weight:normal;font-stretch:condensed;text-align:start;line-height:125%;writing-mode:lr-tb;text-anchor:start;fill:#000000;fill-opacity:1;stroke:none;stroke-width:1px;stroke-linecap:butt;stroke-linejoin:miter;stroke-opacity:1;font-family:DejaVu Sans"
       x="-912.83405"
       y="187.94887"
       id="text3164"
       sodipodi:linespacing="125%"><tspan
         sodipodi:role="line"
         id="tspan3166"
         x="-912.83405"
         y="187.94887">PSK31: Phase Shift</tspan></text>
    <text
       xml:space="preserve"
       style="font-size:10px;font-style:normal;font-variant:normal;font-weight:normal;font-stretch:condensed;text-align:start;line-height:125%;writing-mode:lr-tb;text-anchor:start;fill:#000000;fill-opacity:1;stroke:none;stroke-width:1px;stroke-linecap:butt;stroke-linejoin:miter;stroke-opacity:1;font-family:DejaVu Sans"
       x="-773.23395"
       y="205.71857"
       id="text3168"
       sodipodi:linespacing="125%"><tspan
         sodipodi:role="line"
         id="tspan3170"
         x="-773.23395"
         y="205.71857">Created by Simon Eugster</tspan></text>
  </g>
  <g
     inkscape:groupmode="layer"
     id="layer2"
     inkscape:label="Lupe"
     transform="translate(-4.3026547e-6,18.405654)"
     style="display:inline">
    <path
       sodipodi:type="arc"
       style="fill:#f6fef6;fill-opacity:1;stroke:#000000;stroke-width:4.38004992;stroke-linecap:round;stroke-miterlimit:4;stroke-dasharray:none;stroke-dashoffset:0;stroke-opacity:1"
       id="path3356"
       sodipodi:cx="479.82245"
       sodipodi:cy="110.38372"
       sodipodi:rx="110.10663"
       sodipodi:ry="110.10663"
       d="M 589.92908 110.38372 A 110.10663 110.10663 0 1 1  369.71582,110.38372 A 110.10663 110.10663 0 1 1  589.92908 110.38372 z"
       transform="matrix(0.4566158,0,0,0.4566158,11.02257,-5.5549814)"
       clip-path="none" />
    <path
       style="fill:#000000;stroke:#000000;stroke-opacity:1;stroke-width:0.8;stroke-miterlimit:4;stroke-dasharray:none"
       d="M 415.78652,168.74295 C 414.73247,161.07498 413.72453,128.6601 411.84005,41.82586 C 409.31913,-74.3338 408.25101,-97.699371 406.86448,-67.016241 C 406.09725,-50.037971 405.5552,-29.821757 404.0851,36.642907 C 401.69493,144.70461 400.87474,168.29002 399.50702,168.29002 C 398.19349,168.29002 397.14319,140.71176 395.4013,60.484508 C 393.5266,-25.860057 392.63427,-57.746097 391.73167,-70.644308 C 391.4923,-74.06506 391.28186,-77.330315 391.26405,-77.900443 C 391.24623,-78.470571 391.04838,-77.903207 390.82439,-76.639633 C 389.8898,-71.367611 388.81126,-35.705981 386.72426,58.929617 C 385.44592,116.89614 384.49526,148.55648 383.6823,160.23687 C 383.37232,164.6905 382.42015,167.19429 381.99437,164.67538 C 381.07259,159.2222 380.21827,132.51012 378.28082,48.563713 C 376.22762,-40.39744 375.52469,-63.005762 374.52793,-72.13958 C 374.25284,-74.660358 374.25002,-74.661533 373.88243,-72.405708 C 373.03139,-67.183003 372.13227,-38.975922 370.29079,40.270975 C 368.78673,104.99727 368.21497,125.88885 367.49639,142.37523 C 366.79113,158.5561 365.93867,164.45643 365.05849,159.24933 C 364.19813,154.15949 362.93277,114.59269 361.15405,37.161203 C 359.72388,-25.097638 358.73799,-55.580585 357.86988,-64.383506 C 357.44161,-68.726361 357.30571,-69.174676 356.99519,-67.269058 C 356.40177,-63.627335 355.31511,-33.996967 354.30579,6.0634553 C 351.90633,101.30028 351.50442,115.92932 350.87411,130.97272 C 350.18624,147.3902 349.55132,154.81434 348.83518,154.81434 C 347.55853,154.81434 346.59139,129.68117 344.26796,36.124612 C 342.72049,-26.186572 341.60302,-55.572195 340.62754,-59.605991 C 339.71875,-63.363972 338.4158,-30.470505 336.48653,44.935646 C 334.52134,121.7456 333.49166,144.44842 331.97316,144.44842 C 330.7433,144.44842 329.81273,122.89556 327.58707,42.862451 C 326.32481,-2.5275338 325.30814,-31.156972 324.62383,-40.583152 C 324.37549,-44.003904 324.17112,-47.152557 324.16966,-47.580152 C 324.16821,-48.007734 323.98263,-48.357595 323.75727,-48.357595 C 322.79364,-48.357595 321.64223,-22.860929 319.82512,38.716089 C 317.61924,113.46752 316.67692,132.00931 315.08383,132.00931 C 313.99747,132.00931 312.97554,111.57223 310.91123,48.563713 C 308.6893,-19.255834 307.77913,-36.378184 306.5449,-33.576282 C 305.81838,-31.926951 304.72908,-8.3078852 302.23079,59.966208 C 300.75688,100.24553 299.62853,116.97876 298.38631,116.97876 C 297.18699,116.97876 296.30997,102.77828 294.03295,46.490532 C 292.0568,-2.3599706 290.91714,-19.936261 289.87865,-17.578734 C 289.18062,-15.99409 288.24313,-2.6875917 286.97146,23.68551 C 286.31169,37.368518 285.45699,55.09424 285.07213,63.076 C 284.11979,82.827004 283.16904,94.718285 282.30204,97.722197 C 281.62847,100.05591 281.5357,100.10633 280.99636,98.431901 C 280.17134,95.87051 279.25288,83.314258 277.15903,45.972237 C 275.41945,14.948188 274.38746,2.0068663 273.49034,-0.033349741 C 272.77869,-1.6518025 271.77372,5.9351326 270.74106,20.722099 C 266.92072,75.42662 266.37336,81.216349 265.02191,81.216349 C 263.61905,81.216349 263.05573,76.950897 260.28034,45.313234 C 258.57795,25.906973 257.38867,16.947671 256.51503,16.947671 C 255.81747,16.947671 254.86015,22.808881 252.95956,38.716089 C 251.90373,47.553039 250.6493,56.79966 250.17193,59.264137 C 248.56225,67.574447 246.88526,64.174941 243.82133,46.390544 C 243.22253,42.914795 242.28878,38.807438 241.74634,37.26307 C 240.85311,34.719998 240.64515,34.574011 239.54166,35.715413 C 238.87153,36.40857 238.32324,37.302518 238.32324,37.701972 C 238.32324,38.10144 237.4356,40.592114 236.35071,43.236832 C 234.0021,48.962214 232.90452,49.26844 230.36528,44.9068 C 229.37877,43.212284 228.20939,41.82586 227.76666,41.82586 C 227.32393,41.82586 225.87648,44.624666 224.55011,48.045418 C 220.86903,57.539051 219.6368,56.413124 216.91107,41.065515 C 215.09973,30.866481 213.599,26.32564 212.63801,28.136232 C 211.74825,29.812586 210.81751,35.569674 209.10143,50.011798 C 207.39165,64.4009 206.0869,71.541495 205.16748,71.541495 C 203.75796,71.541495 202.85058,65.014388 200.20274,35.828158 C 198.60014,18.163367 197.48368,9.6915361 196.75832,9.6915361 C 195.96233,9.6915361 194.83866,20.897112 192.68675,50.294138 C 190.42552,81.184669 189.60566,88.472477 188.39178,88.472477 C 187.08404,88.472477 186.2308,79.026283 183.99111,39.752679 C 182.23454,8.9506802 181.39883,-2.218558 180.59082,-5.6921784 L 179.94959,-8.4488137 L 179.50247,-5.8058366 C 178.76814,-1.4651926 177.72533,15.513285 176.00393,51.15519 C 174.22921,87.900976 173.27418,101.83185 172.33106,104.73087 C 170.53225,110.26015 169.68412,98.699938 166.84132,29.905068 C 165.13173,-11.466614 163.9759,-27.518275 162.99729,-23.479392 C 162.15895,-20.019455 160.99767,3.610392 159.10015,55.819844 C 158.4578,73.493735 157.6253,93.785019 157.25014,100.91158 C 156.55069,114.19872 155.43966,124.1483 154.76163,123.19701 C 153.62285,121.59925 152.5384,100.31013 150.43185,38.197793 C 148.37415,-22.474081 147.54375,-39.028266 146.55797,-39.028266 C 145.58191,-39.028266 144.72585,-20.031232 142.44724,52.193302 C 140.18296,123.96366 139.31315,139.85158 137.83225,136.4897 C 136.75651,134.0476 135.67877,109.78277 133.99602,50.118599 C 131.71384,-30.798886 130.70462,-54.321945 129.62327,-51.802411 C 128.74147,-49.74782 127.81482,-26.164126 126.00552,40.270975 C 123.47946,133.0241 122.76715,149.43417 121.31479,148.33514 C 119.90233,147.2663 119.24472,131.14068 116.86565,39.234384 C 116.11298,10.158 115.28329,-19.929073 115.0219,-27.625755 C 114.33017,-47.993705 113.39447,-63.633002 112.93059,-62.579936 C 112.00525,-60.479248 110.89278,-30.035058 109.11549,41.82586 C 107.14125,121.64998 106.37467,144.62329 105.40581,153.00031 C 104.96951,156.77273 104.39997,157.87146 103.87684,155.94994 C 103.07303,152.99736 101.71344,111.43748 99.973856,36.642907 C 99.476601,15.263204 98.954105,-6.1942334 98.812755,-11.040304 C 97.772634,-46.699432 96.924,-66.396797 96.316404,-68.982261 C 95.373255,-72.995587 94.226867,-42.287771 92.431239,35.088021 C 90.048919,137.74505 89.174025,161.77349 87.780114,162.82829 C 86.43491,163.84623 85.57976,141.13689 83.301676,43.899055 C 79.571015,-115.3406 79.012282,-114.53145 75.070153,55.819844 C 73.163129,138.22829 72.373577,161.71492 71.388657,165.33271 C 69.749794,171.35259 68.766928,147.8153 66.642482,51.673486 C 64.657007,-38.179045 63.517865,-73.472279 62.530881,-75.712871 C 62.277144,-76.288901 62.069544,-76.47804 62.069544,-76.133183 C 62.069544,-75.788325 61.769775,-69.51435 61.403396,-62.191027 C 60.68955,-47.922536 59.8825,-17.87943 58.414261,49.082009 C 56.366312,142.48205 55.422382,167.25343 53.911262,167.25343 C 52.603967,167.25343 51.867523,144.91422 49.041642,19.539148 C 47.486724,-49.447498 46.60788,-74.464072 45.661795,-76.669225 C 45.463121,-77.132302 45.176672,-75.732899 45.025245,-73.559454 C 44.49679,-65.974357 43.372455,-31.022166 42.680692,-0.67438415 C 42.297321,16.144312 41.466039,52.528677 40.833407,80.179758 C 39.337798,145.54938 38.395909,168.29002 37.183983,168.29002 C 35.819596,168.29002 35.035418,146.45015 32.8479,47.527123 C 31.00966,-35.600658 29.771962,-75.377219 28.966683,-77.205323 C 28.468657,-78.335931 28.289929,-76.211637 27.625781,-61.268067 C 26.782453,-42.292913 26.366987,-26.604727 24.621057,52.19178 C 22.696129,139.06682 21.923965,162.13299 20.773841,167.1162 L 20.182711,169.67743 L 19.691972,166.13309 C 18.660162,158.68091 17.876102,133.55193 15.95895,46.490532 C 13.806185,-51.270474 12.927601,-77.382148 11.790989,-77.382148 C 11.5678,-77.382148 11.38519,-76.786822 11.38519,-76.059208 C 11.38519,-75.331593 11.185425,-71.016796 10.941272,-66.470744 C 10.314618,-54.8027 9.2561091,-16.594958 8.1851258,33.01484 C 6.5104509,110.58878 5.2378307,156.67626 4.7391925,157.80825 C 4.4464698,158.47278 4.4896109,155.73157 4.9739113,142.89353 C 5.6176026,125.83022 6.2507278,100.85902 7.5101107,42.862451 C 9.1745301,-33.7865 10.31491,-70.985185 11.204333,-77.641295 C 11.598571,-80.591659 12.231244,-79.726847 12.721024,-75.568114 C 13.667429,-67.532118 14.915305,-24.518139 16.863511,67.222355 C 17.932572,117.56415 19.127937,155.91162 19.898239,164.57679 C 20.328951,169.42187 20.849169,165.82196 21.388076,154.26717 C 22.174966,137.3953 22.722983,117.24704 24.164441,52.19178 C 25.905673,-26.392824 26.326156,-42.298054 27.1569,-61.001345 C 27.85323,-76.678541 28.095629,-79.455329 28.767846,-79.455329 C 30.129775,-79.455329 31.082102,-53.542705 33.07271,37.679498 C 34.897703,121.31199 35.876354,154.72211 36.792293,164.66195 C 37.075545,167.7358 37.083486,167.74332 37.479865,165.31239 C 38.201044,160.88946 39.206055,131.3503 40.37633,80.179758 C 41.008715,52.528677 41.83429,16.377544 42.210943,-0.1560886 C 43.279383,-47.056453 44.32439,-74.93236 45.137842,-78.232169 C 45.462614,-79.549622 45.593868,-79.478122 45.998074,-77.763565 C 47.120723,-73.001461 47.901943,-51.284102 49.498258,19.539148 C 51.452085,106.22406 52.031804,128.83767 52.752138,146.46588 C 53.474587,164.14592 53.971499,169.05934 54.478931,163.54019 C 55.367291,153.87786 56.41553,119.38608 57.957426,49.082009 C 59.918513,-40.335379 60.963981,-72.86056 62.013978,-77.119918 C 63.651457,-83.76244 64.684555,-57.596668 67.099098,51.673486 C 68.572739,118.36311 69.466354,148.29284 70.299683,158.87032 C 70.69619,163.90324 71.197577,167.06466 71.204503,164.57558 C 71.20596,164.05295 71.400469,160.94591 71.636745,157.67103 C 72.317367,148.23747 73.382702,111.40837 74.852813,46.490532 C 77.171855,-55.915062 78.080028,-78.698591 79.696653,-75.028588 C 80.720783,-72.703654 81.701375,-44.049571 83.748826,43.380747 C 85.836652,132.53513 86.636643,156.92678 87.601207,160.83958 C 87.958431,162.28868 88.496411,155.31506 89.225558,139.78376 C 89.603472,131.73387 90.707879,89.673578 91.974623,35.088021 C 93.753717,-41.575291 94.771641,-69.118546 95.883473,-70.678476 C 97.337306,-72.718264 98.299418,-51.821762 99.96565,17.984262 C 102.05038,105.32286 102.78023,130.7467 103.64074,146.00331 C 103.86583,149.99418 104.05634,153.93583 104.0641,154.7625 C 104.07298,155.70953 104.23765,155.90127 104.50923,155.2808 C 105.61139,152.76273 106.55047,127.12565 108.64608,42.344156 C 110.59502,-36.503812 111.66946,-63.906455 112.81207,-63.906455 C 114.34876,-63.906455 115.0918,-46.916464 117.32285,39.234384 C 119.59528,126.98317 120.4507,149.15848 121.47364,146.83626 C 122.42679,144.67245 123.26016,123.30604 125.30662,48.563713 C 127.34622,-25.927895 128.34804,-50.933412 129.38743,-53.293012 C 129.92905,-54.522556 130.55537,-51.82942 131.02582,-46.247979 C 131.73395,-37.846724 132.65983,-12.138706 134.21649,42.344156 C 136.01667,105.3504 137.19352,133.93397 138.06929,135.92211 C 138.97701,137.98278 140.15306,112.43424 142.20984,45.972237 C 144.65298,-32.974447 145.6632,-49.225669 147.41746,-37.80161 C 148.25734,-32.332196 149.19219,-11.92936 150.87598,37.679498 C 152.87886,96.689639 153.58184,112.13984 154.62553,120.08852 C 154.85232,121.81573 154.99552,121.52126 155.48363,118.32392 C 156.28817,113.05388 157.26069,93.811262 158.64258,55.819844 C 160.57635,2.6562769 161.69588,-19.904581 162.59048,-23.738539 C 164.20683,-30.665629 165.33854,-17.691549 167.31496,30.423364 C 169.49167,83.414323 170.75681,105.05794 171.67757,105.05794 C 172.66468,105.05794 173.50427,93.167757 175.74647,47.434806 C 178.18676,-2.3386156 178.94377,-10.978147 180.59248,-7.871858 C 181.4667,-6.2247663 182.39935,4.4386306 183.76053,28.350182 C 185.44687,57.973581 187.03262,81.224377 187.59614,84.589135 C 188.84528,92.047763 189.71466,85.647706 192.20818,50.636895 C 195.98932,-2.4529922 197.03019,-3.9583681 200.87517,38.102063 C 204.27327,75.273877 205.23942,77.614885 207.97363,55.301553 C 211.18062,29.129989 211.77641,25.960713 213.39105,26.484136 C 214.35779,26.797521 214.84982,28.687396 218.32686,45.44258 C 219.2601,49.939688 220.14787,52.825117 220.66762,53.05058 C 221.21566,53.288332 222.43619,51.233063 224.2005,47.101545 C 225.68306,43.62979 227.27875,40.78927 227.74648,40.78927 C 228.2142,40.78927 229.50108,42.180186 230.60622,43.880189 C 233.16724,47.819761 233.91643,47.783741 235.46587,43.646598 C 237.7796,37.468699 239.75076,33.533011 240.52468,33.545962 C 241.42479,33.561028 242.7496,38.014749 244.22102,45.972237 C 246.61704,58.92992 247.5207,62.5577 248.35237,62.5577 C 249.42334,62.5577 250.12037,58.551026 252.52639,38.5646 C 254.76698,19.952258 255.45023,15.91108 256.35642,15.91108 C 257.6594,15.91108 258.89393,24.386656 260.9175,47.224698 C 263.93088,81.233911 264.34878,83.729499 265.84089,76.626186 C 266.5255,73.36706 267.21929,64.643016 270.25963,21.063086 C 272.18632,-6.5538112 273.85011,-8.7542652 275.72267,13.837899 C 275.98258,16.973587 276.92528,32.83344 277.81757,49.082009 C 279.48631,79.469539 280.5793,95.064002 281.22354,97.677428 C 282.16198,101.48424 283.37701,88.898006 284.66391,62.039409 C 287.02979,12.661804 287.71067,-0.77882218 288.12972,-6.3756325 C 289.26465,-21.533511 290.3923,-23.365831 291.47893,-11.817747 C 292.45076,-1.4896577 292.88702,6.9661804 294.48722,46.490532 C 296.70904,101.36857 297.59685,116.30815 298.55624,114.96209 C 299.42694,113.74045 300.66387,91.968457 302.00463,54.264962 C 304.602,-18.776364 305.51268,-35.918494 306.79563,-35.918494 C 308.29378,-35.918494 309.24919,-17.822001 311.6116,55.301553 C 313.26422,106.45486 314.1723,126.3432 315.01285,129.79392 C 315.5492,131.99581 316.27132,123.9417 317.04477,107.13113 C 317.80311,90.648581 318.13775,80.697608 319.85088,23.68551 C 321.47546,-30.379128 322.51963,-50.430776 323.7104,-50.430776 C 325.07552,-50.430776 326.14936,-26.563966 328.28103,51.15519 C 329.90567,110.38865 331.03545,138.71171 331.91607,142.28399 C 332.96148,146.52475 334.15336,118.32298 336.03027,44.935646 C 337.92901,-29.305646 339.12544,-59.879486 340.19041,-61.373695 C 341.75575,-63.569905 342.81364,-40.822036 344.72457,36.124612 C 346.87551,122.73536 347.87097,150.88532 348.8304,152.23146 C 349.83793,153.64505 350.94968,123.90657 352.93847,42.344156 C 355.17745,-49.479136 355.97293,-70.126013 357.27166,-70.126013 C 358.66442,-70.126013 359.77027,-42.773654 361.60927,37.161203 C 362.9542,95.620899 363.84375,127.43461 364.59183,143.82895 C 365.21637,157.51587 365.43496,159.95117 365.93671,158.81213 C 366.75459,156.95542 367.97176,120.82298 369.59821,50.118599 C 371.8538,-47.935667 372.75872,-74.172484 373.94232,-75.833136 C 374.89836,-77.174473 375.8142,-63.883732 376.65704,-36.436789 C 376.91965,-27.884902 377.85583,10.365315 378.73743,48.563713 C 380.37472,119.50431 380.94376,139.68338 381.7183,154.26884 C 381.95971,158.81489 382.15722,162.89647 382.15722,163.33902 C 382.15722,163.78156 382.33644,164.14366 382.55548,164.14366 C 383.55367,164.14366 384.60364,134.38419 386.26764,58.929617 C 388.38046,-36.876935 389.42673,-71.193979 390.41476,-77.093476 C 392.19659,-87.732712 393.17892,-62.903964 395.85792,60.484508 C 396.92929,109.82944 397.99398,147.13971 398.60889,156.88752 C 398.84265,160.59334 399.03799,164.23597 399.04296,164.98228 C 399.04794,165.72859 399.2305,166.08878 399.44865,165.78268 C 400.55546,164.2298 401.34815,139.73917 403.62849,36.642907 C 405.71961,-57.898622 406.54212,-81.52851 407.7418,-81.52851 C 409.27818,-81.52851 410.10637,-59.099362 412.29666,41.82586 C 413.76365,109.42265 414.82651,148.25056 415.50307,158.9607 C 415.73717,162.66652 415.93277,166.37492 415.93774,167.20161 C 415.94329,168.12258 416.10248,168.32329 416.3488,167.71991 C 417.37901,165.19627 418.25796,137.91466 420.28794,45.453942 C 422.2009,-41.677021 423.135,-73.21085 423.99741,-79.771534 C 424.34637,-82.42619 425.19334,-81.414424 425.62029,-77.832895 C 426.25205,-72.533298 427.29462,-40.936994 428.26889,2.4353882 C 430.65011,108.4423 431.06796,125.40072 431.7298,142.89353 C 432.11807,153.15579 432.5957,163.18481 432.7912,165.18025 L 433.14666,168.80831 L 433.66942,163.10706 C 434.63011,152.62993 435.41509,125.57894 437.41443,34.051431 C 439.17178,-46.397671 440.2328,-77.921493 441.26181,-80.257514 C 442.72102,-83.57015 443.84942,-57.890647 445.39653,13.837899 C 447.43896,108.53149 448.53039,149.60574 449.29409,160.51559 C 449.53354,163.93634 449.74403,167.20161 449.76185,167.77172 C 449.77967,168.34185 449.96948,167.82379 450.18366,166.62047 C 451.19106,160.96058 452.22323,127.90722 454.06447,42.344156 C 456.13458,-53.854335 457.10622,-81.52851 458.41366,-81.52851 C 459.80871,-81.52851 460.75637,-54.883516 462.9853,47.008828 C 464.8208,130.91606 465.64641,158.10778 466.59599,165.92397 C 467.36178,172.2276 468.43172,148.79245 469.61148,99.874989 C 470.00335,83.626412 470.50708,63.101903 470.73092,54.264962 L 471.13785,38.197793 L 470.93292,55.819844 C 470.48677,94.183929 468.56875,157.95592 467.62817,165.69854 C 467.42036,167.40893 467.07448,168.80831 466.85945,168.80831 C 465.50194,168.80831 464.69921,146.23296 462.52868,47.008828 C 461.04313,-20.902 459.98304,-59.509445 459.31239,-70.126013 C 459.0783,-73.831829 458.88269,-77.540229 458.87772,-78.366906 C 458.87202,-79.313889 458.70922,-79.505641 458.43767,-78.885202 C 457.43817,-76.60154 456.37225,-43.651582 454.53268,41.82586 C 452.28583,146.22831 451.30295,172.27835 449.74497,168.71797 C 448.50587,165.88629 447.56601,135.59207 444.93991,13.837899 C 443.6398,-46.439082 442.32496,-81.697068 441.50392,-78.299413 C 440.51344,-74.200571 439.64289,-47.249573 437.87487,34.051431 C 436.3734,103.09505 436.27953,106.859 435.2974,137.40469 C 434.60641,158.89529 433.90917,168.80831 433.0886,168.80831 C 432.42818,168.80831 432.04872,163.39159 431.27318,142.89353 C 430.61135,125.40072 430.19349,108.4423 427.81227,2.4353882 C 426.49229,-56.327689 425.41274,-83.196708 424.50561,-79.864638 C 423.69376,-76.882554 422.53126,-37.476047 420.50288,55.819844 C 418.66978,140.134 417.80575,165.33865 416.62263,169.01181 C 416.10608,170.61551 416.04105,170.59462 415.78652,168.74295 z "
       id="path3349"
       clip-path="url(#clipPath2222)" />
    <path
       id="path3351"
       d="M 414.87328,-80.096031 C 413.81924,-72.428058 412.8113,-40.013176 410.92681,46.821057 C 408.4059,162.98072 407.33777,186.34629 405.95125,155.66316 C 405.18402,138.68489 404.64197,118.46868 403.17187,52.00401 C 400.7817,-56.057691 399.96151,-79.6431 398.59379,-79.6431 C 397.28026,-79.6431 396.22995,-52.064849 394.48807,28.16241 C 392.61336,114.50698 391.72103,146.39301 390.81844,159.29122 C 390.57906,162.71198 390.36863,165.97723 390.35081,166.54736 C 390.33299,167.11749 390.13515,166.55013 389.91115,165.28655 C 388.97657,160.01453 387.89802,124.3529 385.81102,29.717297 C 384.53269,-28.249221 383.58202,-59.909564 382.76906,-71.589951 C 382.45909,-76.043589 381.50692,-78.547379 381.08114,-76.028467 C 380.15936,-70.575282 379.30503,-43.86321 377.36758,40.083204 C 375.31439,129.04436 374.61146,151.65268 373.6147,160.78649 C 373.33961,163.30728 373.33678,163.30845 372.9692,161.05263 C 372.11816,155.82992 371.21904,127.62283 369.37756,48.375942 C 367.8735,-16.350351 367.30174,-37.241931 366.58316,-53.72832 C 365.8779,-69.909174 365.02544,-75.809514 364.14526,-70.602414 C 363.2849,-65.512566 362.01954,-25.94578 360.24082,51.485714 C 358.81065,113.74456 357.82476,144.2275 356.95665,153.03043 C 356.52838,157.37327 356.39248,157.82159 356.08196,155.91598 C 355.48854,152.27425 354.40187,122.64389 353.39256,82.583465 C 350.9931,-12.653367 350.59119,-27.282404 349.96088,-42.325809 C 349.27301,-58.743281 348.63809,-66.167421 347.92195,-66.167421 C 346.6453,-66.167421 345.67816,-41.034259 343.35473,52.522305 C 341.80725,114.83349 340.68979,144.21911 339.71431,148.25291 C 338.80552,152.01089 337.50257,119.11742 335.5733,43.711271 C 333.60811,-33.098679 332.57843,-55.801501 331.05993,-55.801501 C 329.83007,-55.801501 328.8995,-34.248651 326.67384,45.784466 C 325.41157,91.17445 324.39491,119.80388 323.7106,129.23007 C 323.46226,132.65082 323.25789,135.79947 323.25643,136.22707 C 323.25498,136.65465 323.0694,137.00451 322.84404,137.00451 C 321.8804,137.00451 320.729,111.50785 318.91189,49.930828 C 316.70601,-24.820604 315.76369,-43.362399 314.1706,-43.362399 C 313.08424,-43.362399 312.06231,-22.925311 309.998,40.083204 C 307.77607,107.90275 306.86589,125.0251 305.63167,122.2232 C 304.90515,120.57387 303.81585,96.9548 301.31756,28.680706 C 299.84365,-11.598614 298.71529,-28.331835 297.47308,-28.331835 C 296.27376,-28.331835 295.39673,-14.131362 293.11972,42.156385 C 291.14357,91.006891 290.0039,108.58318 288.96542,106.22566 C 288.26739,104.641 287.3299,91.334513 286.05823,64.961407 C 285.39846,51.278399 284.54376,33.55268 284.1589,25.570921 C 283.20656,5.8199129 282.25581,-6.0713696 281.38881,-9.0752793 C 280.71524,-11.408991 280.62247,-11.459413 280.08313,-9.7849814 C 279.25811,-7.2235947 278.33964,5.332661 276.2458,42.67468 C 274.50622,73.698733 273.47423,86.640052 272.57711,88.680268 C 271.86546,90.298721 270.86049,82.711783 269.82783,67.924821 C 266.00749,13.220293 265.46013,7.4305701 264.10868,7.4305701 C 262.70582,7.4305701 262.1425,11.696023 259.36711,43.333683 C 257.66472,62.739946 256.47544,71.699244 255.6018,71.699244 C 254.90424,71.699244 253.94692,65.838035 252.04633,49.930828 C 250.9905,41.093878 249.73607,31.847258 249.2587,29.382778 C 247.64902,21.072471 245.97203,24.471979 242.9081,42.256373 C 242.3093,45.732122 241.26172,49.61182 240.71927,51.156188 C 239.82605,53.699255 239.84575,55.780346 238.74226,54.638941 C 238.07213,53.945787 237.63767,53.051839 237.63767,52.652385 C 237.63767,52.252917 234.27159,44.23867 232.86054,41.59395 C 230.2967,36.788557 229.15278,39.794332 225.93056,43.472995 C 224.63861,44.947943 222.92915,53.138312 221.38105,53.080526 C 219.93612,53.026591 217.97889,40.731411 216.91239,37.220943 C 211.29622,18.734794 212.03741,28.284666 209.31168,43.632279 C 207.50034,53.831314 205.99961,71.576354 205.03861,69.765762 C 204.14886,68.089413 202.30749,49.355778 200.59141,34.913655 C 198.88162,20.524554 198.48751,13.156297 197.56809,13.156297 C 196.15857,13.156297 197.86043,22.151606 195.21258,51.337833 C 193.60998,69.002627 192.49352,77.47446 191.76817,77.47446 C 190.97217,77.47446 189.8485,66.268882 187.6966,36.871854 C 185.43537,5.9813256 185.18627,-1.8001262 183.97239,-1.8001262 C 182.66465,-1.8001262 182.95296,8.633342 180.71326,47.90695 C 178.95669,78.708949 178.12098,89.87819 177.31297,93.351812 L 176.67174,96.108446 L 176.22462,93.465462 C 175.49029,89.124819 176.81209,73.133633 175.09069,37.491727 C 173.31598,0.74594581 172.36095,-13.184931 171.41783,-16.08396 C 169.61902,-21.613236 168.77088,-10.053016 165.92809,58.741851 C 164.2185,100.11353 163.06267,116.16519 162.08406,112.12631 C 161.24571,108.66637 160.08444,85.036524 158.18692,32.827069 C 157.54457,15.153182 156.71207,-5.1380987 156.33691,-12.264666 C 155.63745,-25.551799 154.52643,-35.501389 153.8484,-34.550093 C 152.70962,-32.952332 151.62517,-11.663218 149.51862,50.449124 C 147.46092,111.121 146.63052,127.67518 145.64474,127.67518 C 144.66868,127.67518 143.81262,108.67815 141.53401,36.453615 C 139.26973,-35.316742 138.39992,-51.204654 136.91902,-47.842783 C 135.84328,-45.40068 134.76554,-21.135854 133.08278,38.528318 C 130.8006,119.4458 129.79139,142.96886 128.71004,140.44933 C 127.82824,138.39474 126.90159,114.81104 125.09229,48.375942 C 122.56623,-44.377179 121.85392,-60.787257 120.40155,-59.688218 C 118.9891,-58.619381 118.33149,-42.493759 115.95241,49.412533 C 115.19975,78.488914 114.37006,108.57599 114.10867,116.27267 C 113.41694,136.64063 112.48123,152.27992 112.01736,151.22685 C 111.09202,149.12617 109.97955,118.68197 108.20226,46.821057 C 106.22802,-33.003058 105.46144,-55.976377 104.49258,-64.353388 C 104.05628,-68.125812 103.48673,-69.224546 102.96361,-67.303019 C 102.15979,-64.350444 100.80021,-22.790562 99.060624,52.00401 C 98.56337,73.383713 98.040873,94.841148 97.899523,99.687222 C 96.859403,135.34635 96.010769,155.04371 95.403173,157.62918 C 94.460024,161.6425 93.313635,130.93469 91.518007,53.558895 C 89.135687,-49.098134 88.260793,-73.126578 86.866882,-74.181372 C 85.521678,-75.199317 84.666528,-52.48997 82.388444,44.747862 C 78.657779,203.98751 78.099046,203.17836 74.156917,32.827069 C 72.249893,-49.581377 71.460341,-73.068001 70.47542,-76.685798 C 68.836558,-82.70567 67.853692,-59.168389 65.729246,36.973431 C 63.743771,126.82596 62.604629,162.11919 61.617645,164.35979 C 61.363908,164.93582 61.156307,165.12496 61.156307,164.7801 C 61.156307,164.43524 60.856539,158.16126 60.49016,150.83795 C 59.776314,136.56945 58.969264,106.52635 57.501025,39.564908 C 55.453076,-53.835136 54.509146,-78.606509 52.998026,-78.606509 C 51.69073,-78.606509 50.954287,-56.267301 48.128406,69.107771 C 46.573487,138.09441 45.694643,163.11099 44.748558,165.31614 C 44.549885,165.77922 44.263436,164.37982 44.112009,162.20637 C 43.583553,154.62127 42.459219,119.66908 41.767455,89.321302 C 41.384085,72.502602 40.552803,36.11824 39.92017,8.4671612 C 38.424562,-56.902461 37.482673,-79.6431 36.270746,-79.6431 C 34.90636,-79.6431 34.122182,-57.803237 31.934663,41.119794 C 30.096424,124.24758 28.858726,164.02414 28.053447,165.85224 C 27.555421,166.98285 27.376692,164.85855 26.712545,149.91499 C 25.869216,130.93983 25.453751,115.25165 23.707821,36.455137 C 21.782893,-50.419899 21.010728,-73.486072 19.860605,-78.469285 L 19.269474,-81.030505 L 18.778736,-77.486172 C 17.746926,-70.034001 16.962866,-44.905012 15.045714,42.156385 C 12.892949,139.91739 12.014365,166.02906 10.877753,166.02906 C 10.654563,166.02906 10.471954,165.43374 10.471954,164.70613 C 10.471954,163.97851 10.272189,159.66372 10.028036,155.11766 C 9.4013859,143.44961 8.3428775,105.24187 7.2718942,55.632077 C 5.5972193,-21.941867 4.3245991,-68.029348 3.8259609,-69.161338 C 3.5332382,-69.825856 3.5763793,-67.08466 4.0606797,-54.246615 C 4.704371,-37.183299 5.3374962,-12.212102 6.5968791,45.784466 C 8.2612985,122.43341 9.4016782,159.6321 10.291097,166.28822 C 10.685335,169.23858 11.318008,168.37376 11.807788,164.21503 C 12.754192,156.17904 14.002069,113.16506 15.950275,21.424558 C 17.019336,-28.917236 18.214701,-67.264704 18.985003,-75.929876 C 19.415715,-80.774951 19.935933,-77.17504 20.47484,-65.620253 C 21.26173,-48.748384 21.809747,-28.600119 23.251205,36.455137 C 24.992437,115.03974 25.41292,130.94497 26.243664,149.64826 C 26.939994,165.32546 27.182393,168.10224 27.854609,168.10224 C 29.216539,168.10224 30.168866,142.18963 32.159474,50.967419 C 33.984466,-32.66507 34.963117,-66.075201 35.879057,-76.015033 C 36.162309,-79.088882 36.17025,-79.096401 36.566629,-76.665466 C 37.287808,-72.24254 38.292819,-42.703383 39.463094,8.4671612 C 40.095479,36.11824 40.921054,72.269377 41.297707,88.803002 C 42.366147,135.70337 43.411154,163.57927 44.224605,166.87909 C 44.549378,168.19654 44.680632,168.12504 45.084838,166.41048 C 46.207487,161.64838 46.988706,139.93102 48.585022,69.107771 C 50.538849,-17.577145 51.118568,-40.190747 51.838902,-57.818966 C 52.561351,-75.499004 53.058263,-80.412416 53.565695,-74.893271 C 54.454055,-65.230944 55.502294,-30.739162 57.04419,39.564908 C 59.005277,128.9823 60.050745,161.50748 61.100742,165.76683 C 62.738221,172.40936 63.771319,146.24359 66.185862,36.973431 C 67.659503,-29.7162 68.553118,-59.645924 69.386447,-70.223402 C 69.782953,-75.256318 70.28434,-78.417743 70.291267,-75.92866 C 70.292724,-75.406038 70.487233,-72.298989 70.723509,-69.024114 C 71.404131,-59.590553 72.469466,-22.761453 73.939577,42.156385 C 76.258619,144.56198 77.166792,167.34551 78.783417,163.67551 C 79.807551,161.35057 80.788143,132.69649 82.835595,45.26617 C 84.92342,-43.888214 85.723411,-68.279871 86.687975,-72.192671 C 87.0452,-73.641764 87.58318,-66.668149 88.312327,-51.136843 C 88.69024,-43.086956 89.794648,-1.0266642 91.061391,53.558895 C 92.840485,130.22221 93.85841,157.76546 94.970242,159.32539 C 96.424074,161.36518 97.386187,140.46868 99.052419,70.662653 C 101.13714,-16.67594 101.86699,-42.099779 102.7275,-57.356387 C 102.9526,-61.347267 103.14311,-65.288912 103.15087,-66.115589 C 103.15975,-67.062613 103.32442,-67.254352 103.596,-66.633885 C 104.69815,-64.115816 105.63723,-38.478733 107.73285,46.302761 C 109.68179,125.15073 110.75623,152.55337 111.89884,152.55337 C 113.43552,152.55337 114.17857,135.56338 116.40962,49.412533 C 118.68205,-38.336256 119.53747,-60.511564 120.56041,-58.189339 C 121.51356,-56.025527 122.34693,-34.659121 124.39339,40.083204 C 126.43298,114.57481 127.43481,139.58033 128.4742,141.93993 C 129.01582,143.16947 129.64214,140.47633 130.11259,134.8949 C 130.82072,126.49364 131.7466,100.78562 133.30326,46.302761 C 135.10344,-16.703487 136.28029,-45.28705 137.15606,-47.275199 C 138.06378,-49.335871 139.23982,-23.787331 141.29661,42.67468 C 143.73975,121.62137 144.74997,137.87259 146.50423,126.44853 C 147.34411,120.97911 148.27895,100.57628 149.96275,50.967419 C 151.96563,-8.0427252 152.66861,-23.492924 153.7123,-31.441607 C 153.93909,-33.168811 154.08229,-32.874335 154.5704,-29.677 C 155.37494,-24.406955 156.34746,-5.1643466 157.72935,32.827069 C 159.66312,85.99064 160.78265,108.5515 161.67725,112.38546 C 163.2936,119.31254 164.42531,106.33847 166.40173,58.223551 C 168.57844,5.2325906 169.84358,-16.411029 170.76434,-16.411029 C 171.75144,-16.411029 172.59104,-4.5208377 174.83324,41.212111 C 177.27353,90.985535 175.66592,98.637772 177.31464,95.531489 C 178.18885,93.884395 179.1215,83.220999 180.48268,59.309449 C 182.16902,29.686045 182.61323,5.4479781 183.17675,2.0832184 C 184.42589,-5.375407 184.72451,1.5182881 187.21803,36.529098 C 190.99917,89.61898 192.04003,91.124362 195.88501,49.06393 C 199.28311,11.892115 196.7294,7.3105653 199.46361,29.6239 C 202.6706,55.795467 204.17702,71.941287 205.79166,71.417861 C 206.7584,71.104476 207.25043,51.229561 210.72747,34.474382 C 211.66071,29.977273 212.54847,27.091845 213.06822,26.866382 C 213.61626,26.62863 214.79749,26.789608 216.22128,37.311096 C 216.7041,40.879021 218.97889,53.935916 220.96247,54.117116 C 222.18224,54.228542 225.19828,45.678065 226.39915,44.044289 C 228.96018,40.560034 231.17639,39.611759 231.9757,41.184185 C 234.32529,45.806368 238.1053,57.049005 238.87922,57.036054 C 239.77933,57.02099 241.83637,50.632168 243.30779,42.67468 C 245.70381,29.716993 246.60747,26.089215 247.43914,26.089215 C 248.51011,26.089215 249.20714,30.095894 251.61315,50.082317 C 253.85375,68.694661 254.53699,72.735835 255.44318,72.735835 C 256.74616,72.735835 257.9807,64.260263 260.00427,41.422219 C 263.01765,7.4130022 263.43555,4.9174229 264.92766,12.020728 C 265.61226,15.27986 266.30606,24.003898 269.3464,67.583834 C 271.27309,95.200725 272.93688,97.401179 274.80944,74.809017 C 275.06934,71.673332 276.01205,55.813478 276.90434,39.564908 C 278.57308,9.1773739 279.66606,-6.4170849 280.31031,-9.0305101 C 281.24874,-12.837323 282.46378,-0.25108687 283.75068,26.607511 C 286.11656,75.985115 286.79744,89.425739 287.21649,95.022549 C 288.35142,110.18042 289.47907,112.01275 290.5657,100.46467 C 291.53753,90.136573 291.97379,81.68074 293.57399,42.156385 C 295.79581,-12.721647 296.68362,-27.661236 297.64301,-26.315172 C 298.51371,-25.093532 299.75064,-3.3215351 301.09139,34.381955 C 303.68877,107.42328 304.59945,124.56541 305.88239,124.56541 C 307.38055,124.56541 308.33596,106.46892 310.69837,33.345364 C 312.35099,-17.807944 313.25907,-37.696286 314.09962,-41.147004 C 314.63597,-43.348896 315.35809,-35.294778 316.13153,-18.48421 C 316.88988,-2.001664 317.22452,7.9493074 318.93765,64.961407 C 320.56223,119.02604 321.60639,139.07769 322.79717,139.07769 C 324.16229,139.07769 325.23612,115.21088 327.36779,37.491727 C 328.99244,-21.741739 330.12222,-50.064799 331.00283,-53.637067 C 332.04825,-57.877834 333.24013,-29.676061 335.11703,43.711271 C 337.01578,117.95257 338.21221,148.5264 339.27718,150.02061 C 340.84252,152.21682 341.90041,129.46896 343.81134,52.522305 C 345.96228,-34.088441 346.95773,-62.238409 347.91717,-63.584542 C 348.9247,-64.99814 350.03645,-35.259657 352.02524,46.302761 C 354.26422,138.12606 355.0597,158.77293 356.35843,158.77293 C 357.75119,158.77293 358.85704,131.42057 360.69603,51.485714 C 362.04097,-6.9739845 362.93052,-38.787695 363.6786,-55.182029 C 364.30314,-68.868948 364.52173,-71.304251 365.02347,-70.165212 C 365.84136,-68.308496 367.05853,-32.176064 368.68498,38.528318 C 370.94057,136.58258 371.84549,162.8194 373.02909,164.48005 C 373.98513,165.82139 374.90096,152.53065 375.7438,125.08371 C 376.00641,116.53182 376.94259,78.281602 377.8242,40.083204 C 379.46148,-30.857395 380.03053,-51.036468 380.80506,-65.621924 C 381.04647,-70.167977 381.24399,-74.249555 381.24399,-74.692107 C 381.24399,-75.134644 381.4232,-75.496737 381.64224,-75.496737 C 382.64043,-75.496737 383.69041,-45.737272 385.35441,29.717297 C 387.46723,125.52385 388.5135,159.84089 389.50153,165.74039 C 391.28335,176.37962 392.26568,151.55088 394.94468,28.16241 C 396.01606,-21.18253 397.08074,-58.492786 397.69565,-68.240602 C 397.92942,-71.946419 398.12475,-75.589055 398.12973,-76.335356 C 398.1347,-77.081672 398.31726,-77.441859 398.53541,-77.135772 C 399.64223,-75.582876 400.43491,-51.092254 402.71525,52.00401 C 404.80637,146.54554 405.62888,170.17543 406.82856,170.17543 C 408.36494,170.17543 409.19313,147.74628 411.38343,46.821057 C 412.85042,-20.775737 413.91328,-59.603642 414.58984,-70.313784 C 414.82393,-74.0196 415.01954,-77.728 415.02451,-78.554691 C 415.03005,-79.475661 415.18924,-79.676369 415.43557,-79.072986 C 416.46578,-76.549362 417.34473,-49.267743 419.37471,43.192975 C 421.28767,130.32393 422.22177,161.85777 423.08418,168.41845 C 423.43314,171.07311 424.2801,170.06134 424.70705,166.47981 C 425.33881,161.18021 426.38139,129.58391 427.35566,86.211529 C 429.73687,-19.795387 430.15473,-36.753809 430.81656,-54.246615 C 431.20483,-64.508871 431.68247,-74.537896 431.87797,-76.533328 L 432.23343,-80.161396 L 432.75619,-74.460146 C 433.71687,-63.983015 434.50186,-36.932029 436.5012,54.595486 C 438.25855,135.04458 439.31957,166.56841 440.34858,168.90443 C 441.80779,172.21707 442.93619,146.53756 444.48329,74.809017 C 446.52573,-19.884581 447.61716,-60.958829 448.38086,-71.86867 C 448.62031,-75.289422 448.8308,-78.554691 448.84862,-79.124804 C 448.86644,-79.694932 449.05625,-79.176872 449.27043,-77.973547 C 450.27783,-72.313668 451.31,-39.260309 453.15124,46.302761 C 455.22135,142.50126 456.19299,170.17543 457.50043,170.17543 C 458.89548,170.17543 459.84315,143.53043 462.07207,41.638089 C 463.90757,-42.269139 464.73318,-69.46086 465.68276,-77.277059 C 466.44855,-83.580682 467.51849,-60.145532 468.69825,-11.228075 C 469.09011,5.020507 469.59385,25.545018 469.81769,34.381955 L 470.22462,50.449124 L 470.01969,32.827069 C 469.57353,-5.5370135 467.65552,-69.308998 466.71494,-77.051623 C 466.50713,-78.762006 466.16124,-80.161396 465.94622,-80.161396 C 464.5887,-80.161396 463.78597,-57.586039 461.61545,41.638089 C 460.12989,109.54891 459.0698,148.15636 458.39916,158.77293 C 458.16507,162.47874 457.96946,166.18715 457.96449,167.01382 C 457.95879,167.96081 457.79599,168.15256 457.52444,167.53212 C 456.52494,165.24846 455.45902,132.2985 453.61945,46.821057 C 451.3726,-57.581395 450.38972,-83.631436 448.83174,-80.071055 C 447.59264,-77.239367 446.65278,-46.945145 444.02668,74.809017 C 442.72657,135.086 441.41173,170.34399 440.59069,166.94633 C 439.6002,162.84749 438.72966,135.89649 436.96164,54.595486 C 435.46017,-14.448133 435.3663,-18.212083 434.38417,-48.757768 C 433.69318,-70.248379 432.99594,-80.161396 432.17537,-80.161396 C 431.51495,-80.161396 431.13549,-74.744672 430.35995,-54.246615 C 429.69812,-36.753809 429.28026,-19.795387 426.89904,86.211529 C 425.57906,144.97461 424.49951,171.84363 423.59238,168.51155 C 422.78053,165.52947 421.61803,126.12296 419.58965,32.827069 C 417.75654,-51.487077 416.89252,-76.691728 415.7094,-80.364895 C 415.19285,-81.968601 415.12782,-81.947702 414.87328,-80.096031 z "
       style="fill:url(#linearGradient3353);fill-opacity:1"
       sodipodi:nodetypes="csssssssssssssssssssssssssssssssssssssssssssssssssssssssssssssssssssscccssssssssssssssssssssssssssssssssssssssssssssscccssssssssssssssssssssssssssssssssssssssssssssssssssssssssssssssssssssssssssssssssssssssssssssssssssssssssssssssssssssssssssssssssssssscccssssssssssscccssssssssssssssssssc"
       clip-path="url(#clipPath2218)" />
  </g>
  <g
     inkscape:groupmode="layer"
     id="layer3"
     inkscape:label="Originaltext"
     style="display:inline"
     transform="translate(-4.3026547e-6,18.405654)">
    <text
       xml:space="preserve"
       style="font-size:12px;font-style:normal;font-variant:normal;font-weight:bold;font-stretch:normal;text-align:start;line-height:125%;writing-mode:lr-tb;text-anchor:start;fill:#000000;fill-opacity:1;stroke:none;stroke-width:1px;stroke-linecap:butt;stroke-linejoin:miter;stroke-opacity:1;font-family:FreeSans"
       x="79.056183"
       y="117.65701"
       id="text3397"
       sodipodi:linespacing="125%"><tspan
         sodipodi:role="line"
         id="tspan3386"
         x="79.056183"
         y="117.65701">Phase 0</tspan></text>
    <text
       xml:space="preserve"
       style="font-size:12px;font-style:normal;font-variant:normal;font-weight:bold;font-stretch:normal;text-align:start;line-height:125%;writing-mode:lr-tb;text-anchor:start;fill:#000000;fill-opacity:1;stroke:none;stroke-width:1px;stroke-linecap:butt;stroke-linejoin:miter;stroke-opacity:1;font-family:FreeSans"
       x="320.87198"
       y="117.83032"
       id="text3400"
       sodipodi:linespacing="125%"><tspan
         sodipodi:role="line"
         id="tspan3390"
         x="320.87198"
         y="117.83032">Phase 180</tspan></text>
  </g>
</svg>
