<?xml version="1.0" encoding="UTF-8" standalone="no"?>
<!-- Created with Inkscape (http://www.inkscape.org/) -->
<svg
   xmlns:dc="http://purl.org/dc/elements/1.1/"
   xmlns:cc="http://web.resource.org/cc/"
   xmlns:rdf="http://www.w3.org/1999/02/22-rdf-syntax-ns#"
   xmlns:svg="http://www.w3.org/2000/svg"
   xmlns="http://www.w3.org/2000/svg"
   xmlns:xlink="http://www.w3.org/1999/xlink"
   xmlns:sodipodi="http://sodipodi.sourceforge.net/DTD/sodipodi-0.dtd"
   xmlns:inkscape="http://www.inkscape.org/namespaces/inkscape"
   width="323.03922"
   height="239.90247"
   id="svg4014"
   sodipodi:version="0.32"
   inkscape:version="0.45.1"
   sodipodi:docbase="/home/simon/svg"
   sodipodi:docname="Amfu-Logo_Anja.svg"
   inkscape:output_extension="org.inkscape.output.svg.inkscape"
   version="1.0"
   inkscape:export-filename="/home/simon/Documents/OpenOffice/Behelf/images/Amfu-Logo_Anja.png"
   inkscape:export-xdpi="334.32001"
   inkscape:export-ydpi="334.32001">
  <defs
     id="defs4016" />
  <sodipodi:namedview
     id="base"
     pagecolor="#ffffff"
     bordercolor="#666666"
     borderopacity="1.0"
     inkscape:pageopacity="0.0"
     inkscape:pageshadow="2"
     inkscape:zoom="1.979899"
     inkscape:cx="281.15978"
     inkscape:cy="203.34985"
     inkscape:document-units="px"
     inkscape:current-layer="layer2"
     inkscape:window-width="1674"
     inkscape:window-height="1004"
     inkscape:window-x="0"
     inkscape:window-y="0"
     width="6cm"
     height="0.82944535cm"
     units="cm" />
  <metadata
     id="metadata4019">
    <rdf:RDF>
      <cc:Work
         rdf:about="">
        <dc:format>image/svg+xml</dc:format>
        <dc:type
           rdf:resource="http://purl.org/dc/dcmitype/StillImage" />
        <cc:license
           rdf:resource="http://creativecommons.org/licenses/by-sa/2.5/" />
        <dc:title>Logo für Amateurfunkbehelf</dc:title>
        <dc:date>2008</dc:date>
        <dc:creator>
          <cc:Agent>
            <dc:title>Anja Ballschmieter</dc:title>
          </cc:Agent>
        </dc:creator>
        <dc:rights>
          <cc:Agent>
            <dc:title>GFDL, cc-by-sa</dc:title>
          </cc:Agent>
        </dc:rights>
        <dc:contributor>
          <cc:Agent>
            <dc:title>Simon Eugster, hb9eia</dc:title>
          </cc:Agent>
        </dc:contributor>
      </cc:Work>
      <cc:License
         rdf:about="http://creativecommons.org/licenses/by-sa/2.5/">
        <cc:permits
           rdf:resource="http://web.resource.org/cc/Reproduction" />
        <cc:permits
           rdf:resource="http://web.resource.org/cc/Distribution" />
        <cc:requires
           rdf:resource="http://web.resource.org/cc/Notice" />
        <cc:requires
           rdf:resource="http://web.resource.org/cc/Attribution" />
        <cc:permits
           rdf:resource="http://web.resource.org/cc/DerivativeWorks" />
        <cc:requires
           rdf:resource="http://web.resource.org/cc/ShareAlike" />
      </cc:License>
    </rdf:RDF>
  </metadata>
  <g
     inkscape:label="Ebene 1"
     inkscape:groupmode="layer"
     id="layer1"
     sodipodi:insensitive="true"
     style="display:none"
     transform="translate(42.970482,-286.80222)">
    <image
       y="381.11478"
       x="91.714294"
       id="image4080"
       height="48.033112"
       width="62.53038"
       sodipodi:absref="/home/simon/Desktop/funk.png"
       xlink:href="/home/simon/Desktop/funk.png" />
  </g>
  <g
     inkscape:groupmode="layer"
     id="layer2"
     inkscape:label="svg"
     style="display:inline"
     transform="translate(42.970482,-286.80222)">
    <path
       sodipodi:type="arc"
       style="opacity:1;fill:#552200;fill-opacity:1;fill-rule:evenodd;stroke:#3ba2d1;stroke-width:1.5;stroke-linecap:butt;stroke-linejoin:miter;stroke-miterlimit:4;stroke-dasharray:none;stroke-opacity:1"
       id="path4083"
       sodipodi:cx="284.61047"
       sodipodi:cy="314.19321"
       sodipodi:rx="13.476434"
       sodipodi:ry="13.476434"
       d="M 298.08691 314.19321 A 13.476434 13.476434 0 1 1  271.13404,314.19321 A 13.476434 13.476434 0 1 1  298.08691 314.19321 z"
       transform="matrix(8.1627811,0,0,8.1627811,-2189.3103,-2158.3012)" />
    <path
       transform="matrix(8.6180365,0,0,8.4465332,-2372.4489,-2247.0899)"
       d="M 296.21191 314.19321 A 11.601434 13.476434 0 1 1  273.00904,314.19321 A 11.601434 13.476434 0 1 1  296.21191 314.19321 z"
       sodipodi:ry="13.476434"
       sodipodi:rx="11.601434"
       sodipodi:cy="314.19321"
       sodipodi:cx="284.61047"
       id="path5058"
       style="opacity:1;fill:#3ba2d1;fill-opacity:1;fill-rule:evenodd;stroke:#552200;stroke-width:1.43511271;stroke-linecap:butt;stroke-linejoin:miter;stroke-miterlimit:4;stroke-dasharray:none;stroke-opacity:1"
       sodipodi:type="arc" />
    <path
       id="path9963"
       style="fill:none;fill-opacity:0.59401706;stroke:#3ba2d1;stroke-width:2.04069519;stroke-miterlimit:4;stroke-dasharray:none;stroke-opacity:1"
       d="M 226.59648,346.85756 C 226.59648,353.4957 180.74206,355.60341 133.67203,355.60341 C 86.601929,355.60341 48.400113,350.21597 48.400113,343.57784 M 244.81703,406.07397 C 244.81703,415.02535 192.69188,416.45972 133.85423,416.45972 C 75.016575,416.45972 23.620196,410.28808 23.620196,401.3367 M 220.03712,475.85864 C 220.03712,482.49678 180.74206,485.69773 133.67203,485.69773 C 86.601929,485.69773 48.400113,480.3103 48.400113,473.67216 M 135.08738,296.41615 C 181.77841,305.17718 220.58288,353.18755 220.58288,413.53377 C 220.58288,473.88007 183.51773,503.78874 134.76528,516.67255"
       sodipodi:nodetypes="csccsccsccsc" />
    <path
       style="fill:#552200;fill-opacity:1;fill-rule:evenodd;stroke:#3ba2d1;stroke-width:12.24417114;stroke-linecap:butt;stroke-linejoin:miter;stroke-miterlimit:4;stroke-dasharray:none;stroke-opacity:1"
       d="M 1.4493477,375.27588 C -11.108928,374.88292 -25.059365,383.10651 -25.348981,405.16643 C -25.621128,426.14739 -10.852453,433.93256 1.7070467,434.28389 C 10.661291,434.54158 19.43824,421.27168 20.517441,404.65111 C 21.661128,387.0373 9.6834715,375.53357 1.4493477,375.27588 z "
       id="path5066"
       sodipodi:nodetypes="cssss" />
    <path
       style="opacity:1;fill:#552200;fill-opacity:1;fill-rule:evenodd;stroke:none;stroke-width:1px;stroke-linecap:butt;stroke-linejoin:miter;stroke-opacity:1"
       d="M 87.574116,454.90495 C 81.689322,460.81186 86.298682,480.04925 105.24801,478.95601 C 124.19733,477.86277 128.93468,458.54906 123.10409,454.72275 C 117.27358,450.89645 91.702606,450.76095 87.574116,454.90495 z "
       id="path7006"
       sodipodi:nodetypes="csss" />
    <path
       sodipodi:type="arc"
       style="opacity:1;fill:#552200;fill-opacity:1;stroke:#3ba2d1;stroke-width:1.5;stroke-miterlimit:4;stroke-dasharray:none;stroke-opacity:1"
       id="path7977"
       sodipodi:cx="124.33036"
       sodipodi:cy="415.04074"
       sodipodi:rx="1.6517857"
       sodipodi:ry="1.4661592"
       d="M 125.98215 415.04074 A 1.6517857 1.4661592 0 1 1  122.67857,415.04074 A 1.6517857 1.4661592 0 1 1  125.98215 415.04074 z"
       transform="matrix(8.1627811,0,0,8.1627811,-846.95496,-2915.6724)" />
    <path
       style="fill:none;fill-rule:evenodd;stroke:#3ba2d1;stroke-width:6.12208557;stroke-linecap:round;stroke-linejoin:miter;stroke-miterlimit:4;stroke-dasharray:none;stroke-opacity:1"
       d="M 185.41819,475.12971 C 256.11367,474.40085 315.8769,443.79042 245.54581,413.17999"
       id="path8948"
       sodipodi:nodetypes="cc" />
    <path
       style="fill:#552200;fill-opacity:1"
       d="M 69.121741,380.70543 C 66.659683,380.39704 63.859686,379.19793 62.899335,378.04102 C 60.253288,374.85255 63.789813,372.30079 72.428892,371.16469 C 78.906222,370.31299 79.892286,370.53314 81.288693,373.14245 C 82.414422,375.24559 82.431972,376.87864 81.351383,378.89803 C 79.858574,381.68717 78.52853,381.88373 69.121741,380.70543 z "
       id="path8954" />
    <path
       style="fill:#552200;fill-opacity:1"
       d="M 129.56167,380.0258 C 125.73797,376.20219 128.73037,370.44008 134.53966,370.44008 C 136.34722,370.44008 138.19136,371.39153 138.63754,372.55465 C 139.08388,373.71752 140.3327,374.66897 141.41264,374.66897 C 144.75652,374.66897 143.55398,378.10044 139.56009,379.95535 C 134.79238,382.16951 131.72693,382.19098 129.56167,380.0258 z "
       id="path2246" />
    <path
       sodipodi:nodetypes="csc"
       id="path3426"
       d="M -9.3044094,410.54809 C -27.662999,403.52863 -39.023011,393.83323 -39.023011,383.12953 C -39.023011,372.42582 -27.662999,362.73043 -9.3044094,355.71097"
       style="fill:none;fill-opacity:1;fill-rule:nonzero;stroke:#552200;stroke-width:6.71219158;stroke-linecap:round;stroke-linejoin:round;marker:none;marker-start:none;marker-mid:none;marker-end:none;stroke-miterlimit:4;stroke-dasharray:none;stroke-dashoffset:0;stroke-opacity:1;visibility:visible;display:inline;overflow:visible;enable-background:accumulate" />
  </g>
  <g
     inkscape:groupmode="layer"
     id="layer3"
     style="display:none"
     transform="translate(42.970482,-286.80222)">
    <rect
       style="opacity:1;fill:#3ba2d1;fill-opacity:1;stroke:none;stroke-width:1.5;stroke-miterlimit:4;stroke-dasharray:none;stroke-opacity:1"
       id="rect9980"
       width="18.482143"
       height="15.357142"
       x="119.99999"
       y="402.89792" />
  </g>
</svg>
