<?xml version="1.0" encoding="UTF-8" standalone="no"?>
<!-- Created with Inkscape (http://www.inkscape.org/) -->
<svg
   xmlns:dc="http://purl.org/dc/elements/1.1/"
   xmlns:cc="http://web.resource.org/cc/"
   xmlns:rdf="http://www.w3.org/1999/02/22-rdf-syntax-ns#"
   xmlns:svg="http://www.w3.org/2000/svg"
   xmlns="http://www.w3.org/2000/svg"
   xmlns:xlink="http://www.w3.org/1999/xlink"
   xmlns:sodipodi="http://sodipodi.sourceforge.net/DTD/sodipodi-0.dtd"
   xmlns:inkscape="http://www.inkscape.org/namespaces/inkscape"
   width="531.49603"
   height="283.46457"
   id="svg2"
   sodipodi:version="0.32"
   inkscape:version="0.45.1"
   version="1.0"
   sodipodi:docbase="/home/simon/svg"
   sodipodi:docname="Amfu-Ionosphere.svg"
   inkscape:output_extension="org.inkscape.output.svg.inkscape"
   inkscape:export-filename="/home/simon/Documents/OpenOffice/Behelf/images/Amfu-Ionosphere.png"
   inkscape:export-xdpi="360"
   inkscape:export-ydpi="360">
  <sodipodi:namedview
     id="base"
     pagecolor="#ffffff"
     bordercolor="#666666"
     borderopacity="1.0"
     inkscape:pageopacity="0.0"
     inkscape:pageshadow="2"
     inkscape:zoom="2.8284272"
     inkscape:cx="277.45017"
     inkscape:cy="173.13963"
     inkscape:document-units="px"
     inkscape:current-layer="layer1"
     width="15cm"
     height="8cm"
     units="cm"
     showguides="true"
     inkscape:guide-bbox="true"
     inkscape:window-width="1680"
     inkscape:window-height="1001"
     inkscape:window-x="0"
     inkscape:window-y="0">
    <sodipodi:guide
       orientation="horizontal"
       position="-48.375"
       id="guide3269" />
    <sodipodi:guide
       orientation="horizontal"
       position="-42.0625"
       id="guide3271" />
    <sodipodi:guide
       orientation="vertical"
       position="127.875"
       id="guide3273" />
    <sodipodi:guide
       orientation="vertical"
       position="145.75"
       id="guide3275" />
  </sodipodi:namedview>
  <defs
     id="defs4">
    <marker
       inkscape:stockid="Arrow2Mend"
       orient="auto"
       refY="0.0"
       refX="0.0"
       id="Arrow2Mend"
       style="overflow:visible;">
      <path
         id="path3273"
         style="font-size:12.0;fill-rule:evenodd;stroke-width:0.62500000;stroke-linejoin:round;"
         d="M 8.7185878,4.0337352 L -2.2072895,0.016013256 L 8.7185884,-4.0017078 C 6.9730900,-1.6296469 6.9831476,1.6157441 8.7185878,4.0337352 z "
         transform="scale(0.6) rotate(180) translate(0,0)" />
    </marker>
    <marker
       inkscape:stockid="Arrow1Lstart"
       orient="auto"
       refY="0.0"
       refX="0.0"
       id="Arrow1Lstart"
       style="overflow:visible">
      <path
         id="path3246"
         d="M 0.0,0.0 L 5.0,-5.0 L -12.5,0.0 L 5.0,5.0 L 0.0,0.0 z "
         style="fill-rule:evenodd;stroke:#000000;stroke-width:1.0pt;marker-start:none"
         transform="scale(0.8) translate(12.5,0)" />
    </marker>
    <marker
       inkscape:stockid="Arrow1Lend"
       orient="auto"
       refY="0.0"
       refX="0.0"
       id="Arrow1Lend"
       style="overflow:visible;">
      <path
         id="path3249"
         d="M 0.0,0.0 L 5.0,-5.0 L -12.5,0.0 L 5.0,5.0 L 0.0,0.0 z "
         style="fill-rule:evenodd;stroke:#000000;stroke-width:1.0pt;marker-start:none;"
         transform="scale(0.8) rotate(180) translate(12.5,0)" />
    </marker>
    <linearGradient
       id="linearGradient3251">
      <stop
         offset="0"
         style="stop-color:#7b7de7;stop-opacity:1;"
         id="stop3253" />
      <stop
         offset="1"
         style="stop-color:#313141;stop-opacity:1;"
         id="stop3255" />
    </linearGradient>
    <linearGradient
       id="linearGradient4797">
      <stop
         offset="0"
         style="stop-color:#000000;stop-opacity:1;"
         id="stop4799" />
      <stop
         offset="0.55882353"
         style="stop-color:#000000;stop-opacity:1;"
         id="stop4805" />
      <stop
         offset="1"
         style="stop-color:#000000;stop-opacity:0;"
         id="stop4801" />
    </linearGradient>
    <linearGradient
       id="linearGradient3244">
      <stop
         offset="0"
         style="stop-color:#a4e8f6;stop-opacity:1;"
         id="stop3246" />
      <stop
         offset="0.91764706"
         style="stop-color:#a4e8f6;stop-opacity:1;"
         id="stop3252" />
      <stop
         offset="1"
         style="stop-color:#a4e8f6;stop-opacity:0;"
         id="stop3248" />
    </linearGradient>
    <linearGradient
       x1="7.5"
       gradientTransform="matrix(1.4006879,0,0,1.4006879,26.367053,20.256715)"
       y1="99.225266"
       x2="181.07143"
       inkscape:collect="always"
       gradientUnits="userSpaceOnUse"
       y2="99.225266"
       xlink:href="#linearGradient3244"
       id="linearGradient3250" />
    <pattern
       height="10.053767"
       id="pattern3670"
       patternUnits="userSpaceOnUse"
       patternTransform="matrix(0.2967569,0,0,0.2967569,140.75001,324.5376)"
       width="19.5">
      <path
         style="fill:none;fill-rule:evenodd;stroke:#000000;stroke-width:1px;stroke-linecap:butt;stroke-linejoin:miter;stroke-opacity:1"
         id="path3668"
         sodipodi:nodetypes="csc"
         d="M 0.5,4.6769656 C 0.5,0.4269656 10.25,-2.0730344 10.25,4.6769656 C 10.25,11.426966 19,10.926966 19,4.6769656" />
    </pattern>
    <linearGradient
       x1="54.625"
       y1="245.46457"
       x2="60.75"
       inkscape:collect="always"
       gradientUnits="userSpaceOnUse"
       y2="219.21457"
       xlink:href="#linearGradient4797"
       id="linearGradient4803" />
    <linearGradient
       x1="73.390146"
       y1="44.800246"
       x2="476.00138"
       inkscape:collect="always"
       gradientUnits="userSpaceOnUse"
       y2="44.800246"
       xlink:href="#linearGradient3251"
       id="linearGradient3257" />
    <linearGradient
       x1="53.568588"
       y1="245.21457"
       x2="61.368919"
       inkscape:collect="always"
       gradientUnits="userSpaceOnUse"
       y2="219.33957"
       xlink:href="#linearGradient4797"
       id="linearGradient4667" />
  </defs>
  <metadata
     id="metadata7">
    <rdf:RDF>
      <cc:Work
         rdf:about="">
        <dc:format>image/svg+xml</dc:format>
        <dc:type
           rdf:resource="http://purl.org/dc/dcmitype/StillImage" />
        <cc:license
           rdf:resource="http://creativecommons.org/licenses/by-sa/2.5/" />
        <dc:title>Ionosphärenaufbau</dc:title>
        <dc:date>2008</dc:date>
        <dc:creator>
          <cc:Agent>
            <dc:title>Simon Eugster, hb9eia, simon.eu@gmail.com</dc:title>
          </cc:Agent>
        </dc:creator>
        <dc:rights>
          <cc:Agent>
            <dc:title>GFDL, cc-by-sa</dc:title>
          </cc:Agent>
        </dc:rights>
        <dc:publisher>
          <cc:Agent>
            <dc:title>Simon Eugster</dc:title>
          </cc:Agent>
        </dc:publisher>
        <dc:language>any</dc:language>
      </cc:Work>
      <cc:License
         rdf:about="http://creativecommons.org/licenses/by-sa/2.5/">
        <cc:permits
           rdf:resource="http://web.resource.org/cc/Reproduction" />
        <cc:permits
           rdf:resource="http://web.resource.org/cc/Distribution" />
        <cc:requires
           rdf:resource="http://web.resource.org/cc/Notice" />
        <cc:requires
           rdf:resource="http://web.resource.org/cc/Attribution" />
        <cc:permits
           rdf:resource="http://web.resource.org/cc/DerivativeWorks" />
        <cc:requires
           rdf:resource="http://web.resource.org/cc/ShareAlike" />
      </cc:License>
    </rdf:RDF>
  </metadata>
  <g
     inkscape:label="Ebene 1"
     id="layer1"
     inkscape:groupmode="layer">
    <path
       style="fill:none;fill-rule:evenodd;stroke:#000000;stroke-width:1.40068781px;stroke-linecap:butt;stroke-linejoin:miter;stroke-opacity:1"
       d="M 36.271412,248.60135 C 275.39094,197.66465 512.38809,248.60135 512.38809,248.60135"
       sodipodi:nodetypes="cc"
       id="path2160" />
    <path
       sodipodi:type="star"
       sodipodi:arg2="0.63613301"
       sodipodi:cx="38.214287"
       sodipodi:cy="8.2367725"
       sodipodi:arg1="0.37433362"
       style="opacity:1;fill:#fffe2b;fill-opacity:1;stroke:#ea8d15;stroke-width:0.5;stroke-linecap:round;stroke-miterlimit:4;stroke-dasharray:none;stroke-dashoffset:0;stroke-opacity:1"
       transform="matrix(1.4006879,0,0,1.4006879,3.855997,33.263102)"
       sodipodi:r2="10.744006"
       sodipodi:sides="12"
       inkscape:randomized="0"
       d="M 44.414286,10.672487 L 46.856756,14.619672 L 42.365787,13.446163 L 42.507435,18.08576 L 39.204896,14.823987 L 37.007769,18.91282 L 35.778573,14.436772 L 31.831388,16.879241 L 33.004897,12.388273 L 28.3653,12.529921 L 31.627073,9.227382 L 27.53824,7.0302543 L 32.014287,5.8010584 L 29.571818,1.8538736 L 34.062787,3.0273824 L 33.921139,-1.6122146 L 37.223677,1.6495584 L 39.420805,-2.4392746 L 40.650001,2.036773 L 44.597186,-0.40569639 L 43.423677,4.0852725 L 48.063274,3.9436244 L 44.801501,7.2461631 L 48.890334,9.4432907 L 44.414286,10.672487 z "
       inkscape:rounded="0"
       sodipodi:r1="6.6612835"
       inkscape:flatsided="false"
       id="path2162" />
    <path
       style="opacity:1;fill:#dde2f1;fill-opacity:1;stroke:#536085;stroke-width:0.5;stroke-linecap:round;stroke-miterlimit:4;stroke-dasharray:none;stroke-dashoffset:0;stroke-opacity:1"
       d="M 489.24647,30.112291 C 483.37951,31.834143 479.07036,37.238201 479.07037,43.659792 C 479.07037,51.464849 485.43143,57.825902 493.23648,57.825901 C 497.98882,57.825901 502.17856,55.455231 504.74257,51.85634 C 502.80185,52.945641 500.56782,53.55751 498.18534,53.55751 C 490.77054,53.557512 484.73064,47.548537 484.73064,40.133731 C 484.73064,36.146732 486.48499,32.57308 489.24647,30.112291 z "
       id="path3134" />
    <path
       style="fill:url(#linearGradient3257);fill-rule:evenodd;stroke:none;stroke-width:0.70034391;stroke-linecap:butt;stroke-linejoin:miter;stroke-miterlimit:4;stroke-opacity:1;fill-opacity:1.0"
       d="M 476.00138,30.793367 L 475.58767,58.807124 L 73.390146,30.793367 L 73.390146,58.807124 L 476.00138,30.793367 z "
       sodipodi:nodetypes="ccccc"
       id="path3248" />
    <path
       style="fill:none;fill-rule:evenodd;stroke:#000000;stroke-width:0.70034391;stroke-linecap:butt;stroke-linejoin:miter;stroke-miterlimit:4;stroke-opacity:1"
       id="path3150"
       sodipodi:nodetypes="cccc"
       d="M 73.390146,58.807124 L 476.00138,30.793367 M 73.390146,30.793367 L 475.58767,58.807124" />
    <path
       style="fill:none;fill-rule:evenodd;stroke:#000000;stroke-width:0.35017195;stroke-linecap:butt;stroke-linejoin:miter;stroke-miterlimit:4;stroke-dasharray:0.35017195,2.80137563;stroke-dashoffset:0;stroke-opacity:1"
       d="M 273.98865,49.302461 L 273.98865,225.40097"
       id="path3221"
       sodipodi:nodetypes="cc" />
    <path
       sodipodi:type="star"
       sodipodi:arg2="1.2163211"
       sodipodi:cx="456"
       sodipodi:cy="37.589569"
       sodipodi:arg1="0.5880026"
       style="opacity:1;fill:#ffffff;fill-opacity:1;stroke:none;stroke-width:0.25;stroke-linecap:round;stroke-miterlimit:4;stroke-dasharray:0.25, 1;stroke-dashoffset:0;stroke-opacity:1"
       transform="translate(2.375,-1.25)"
       sodipodi:r2="0.65350616"
       sodipodi:sides="5"
       inkscape:randomized="0"
       d="M 457.875,38.839569 L 456.22683,38.202446 L 455.39059,39.759071 L 455.48721,37.994687 L 453.74836,37.680395 L 455.45625,37.227069 L 455.21782,35.476201 L 456.17673,36.960413 L 457.76823,36.192609 L 456.65298,37.563229 L 457.875,38.839569 z "
       inkscape:rounded="0"
       sodipodi:r1="2.2534695"
       inkscape:flatsided="false"
       id="path3259" />
    <path
       sodipodi:type="star"
       sodipodi:arg2="1.8043237"
       sodipodi:cx="469.375"
       sodipodi:cy="39.839569"
       sodipodi:arg1="1.1760052"
       style="opacity:1;fill:#ffffff;fill-opacity:1;stroke:none;stroke-width:0.25;stroke-linecap:round;stroke-miterlimit:4;stroke-dasharray:0.25, 1;stroke-dashoffset:0;stroke-opacity:1"
       transform="translate(2.0088835,-0.5517767)"
       sodipodi:r2="0.47125"
       sodipodi:sides="5"
       inkscape:randomized="0"
       d="M 470,41.339569 L 469.26595,40.298028 L 468.14155,40.897505 L 468.90528,39.877526 L 467.98769,38.993409 L 469.19375,39.404569 L 469.75104,38.258678 L 469.7327,39.532768 L 470.99472,39.708684 L 469.77732,40.084955 L 470,41.339569 z "
       inkscape:rounded="0"
       sodipodi:r1="1.625"
       inkscape:flatsided="false"
       id="path3261" />
    <path
       sodipodi:type="star"
       sodipodi:arg2="2.3642635"
       sodipodi:cx="461.375"
       sodipodi:cy="45.589569"
       sodipodi:arg1="1.735945"
       style="opacity:1;fill:#ffffff;fill-opacity:1;stroke:none;stroke-width:0.25;stroke-linecap:round;stroke-miterlimit:4;stroke-dasharray:0.25, 1;stroke-dashoffset:0;stroke-opacity:1"
       transform="translate(-5.375,-0.75)"
       sodipodi:r2="0.44100028"
       sodipodi:sides="5"
       inkscape:randomized="0"
       d="M 461.125,47.089569 L 461.06066,45.898877 L 459.87116,45.81533 L 460.98369,45.386195 L 460.69558,44.229097 L 461.4475,45.154569 L 462.45893,44.52299 L 461.81111,45.524098 L 462.72433,46.290859 L 461.57203,45.984106 L 461.125,47.089569 z "
       inkscape:rounded="0"
       sodipodi:r1="1.5206906"
       inkscape:flatsided="false"
       id="path3263" />
    <path
       sodipodi:type="star"
       sodipodi:arg2="1.0919661"
       sodipodi:cx="468.875"
       sodipodi:cy="51.714569"
       sodipodi:arg1="0.46364761"
       style="opacity:1;fill:#ffffff;fill-opacity:1;stroke:none;stroke-width:0.25;stroke-linecap:round;stroke-miterlimit:4;stroke-dasharray:0.25, 1;stroke-dashoffset:0;stroke-opacity:1"
       transform="translate(-2.2285534,-5.157932)"
       sodipodi:r2="0.40528733"
       sodipodi:sides="5"
       inkscape:randomized="0"
       d="M 470.125,52.339569 L 469.06173,52.074276 L 468.66686,53.096525 L 468.5906,52.003318 L 467.49636,51.943665 L 468.5125,51.533319 L 468.23109,50.474202 L 468.93536,51.313802 L 469.85568,50.718884 L 469.2748,51.648131 L 470.125,52.339569 z "
       inkscape:rounded="0"
       sodipodi:r1="1.3975425"
       inkscape:flatsided="false"
       id="path3265" />
    <path
       sodipodi:type="star"
       sodipodi:arg2="3.0510812"
       sodipodi:cx="450.625"
       sodipodi:cy="50.214569"
       sodipodi:arg1="2.4227627"
       style="opacity:1;fill:#ffffff;fill-opacity:1;stroke:none;stroke-width:0.25;stroke-linecap:round;stroke-miterlimit:4;stroke-dasharray:0.25, 1;stroke-dashoffset:0;stroke-opacity:1"
       transform="translate(-1.625,0.875)"
       sodipodi:r2="0.38534278"
       sodipodi:sides="5"
       inkscape:randomized="0"
       d="M 449.625,51.089569 L 450.24123,50.249399 L 449.48381,49.533902 L 450.47328,49.86035 L 450.9197,48.918894 L 450.915,49.960819 L 451.94833,50.094465 L 450.95595,50.411962 L 451.14816,51.436016 L 450.53954,50.590315 L 449.625,51.089569 z "
       inkscape:rounded="0"
       sodipodi:r1="1.3287683"
       inkscape:flatsided="false"
       id="path3267" />
    <text
       xml:space="preserve"
       style="font-size:28px;font-style:normal;font-variant:normal;font-weight:normal;font-stretch:normal;text-align:start;line-height:100%;writing-mode:lr-tb;text-anchor:start;fill:#000000;fill-opacity:1;stroke:none;stroke-width:1px;stroke-linecap:butt;stroke-linejoin:miter;stroke-opacity:1;font-family:DejaVu Sans"
       x="-122.62131"
       y="-82.32003"
       id="text3182"
       sodipodi:linespacing="100%"><tspan
         sodipodi:role="line"
         id="tspan3184"
         x="-122.62131"
         y="-82.32003">Ionosphärenaufbau</tspan></text>
    <text
       xml:space="preserve"
       style="font-size:9px;font-style:normal;font-variant:normal;font-weight:normal;font-stretch:condensed;text-align:start;line-height:100%;writing-mode:lr-tb;text-anchor:start;fill:#000000;fill-opacity:1;stroke:none;stroke-width:1px;stroke-linecap:butt;stroke-linejoin:miter;stroke-opacity:1;font-family:DejaVu Sans"
       x="43.645721"
       y="-65.349464"
       id="text3186"
       sodipodi:linespacing="100%"><tspan
         sodipodi:role="line"
         id="tspan3188"
         x="43.645721"
         y="-65.349464">created by Simon Eugster, hb9eia</tspan></text>
  </g>
  <g
     inkscape:label="D"
     id="layer2"
     inkscape:groupmode="layer">
    <path
       style="fill:#ffdcba;fill-opacity:1;fill-rule:evenodd;stroke:none;stroke-width:1px;stroke-linecap:butt;stroke-linejoin:miter;stroke-opacity:1"
       d="M 36.872212,230.39138 C 117.41176,210.38156 273.75358,207.38008 273.75358,207.38008 L 273.75358,200.8769 C 137.18651,200.8769 36.872212,222.8877 36.872212,222.8877 L 36.872212,230.39138 z "
       sodipodi:nodetypes="ccccc"
       id="path3238" />
  </g>
  <g
     inkscape:label="E"
     id="layer3"
     inkscape:groupmode="layer">
    <path
       style="fill:#d6f6a4;fill-opacity:1;fill-rule:evenodd;stroke:none;stroke-width:1px;stroke-linecap:butt;stroke-linejoin:miter;stroke-opacity:1"
       d="M 36.872212,204.37862 C 227.46581,178.8661 284.85254,185.3527 296.99995,185.36928 C 301.88331,185.37868 294.0456,180.82383 284.96892,180.30613 C 272.34993,179.5864 267.11469,175.90544 259.59251,176.01113 C 251.8202,176.11683 75.391128,182.3678 36.872212,190.87198 L 36.872212,204.37862 z "
       sodipodi:nodetypes="csszcc"
       id="path3240" />
  </g>
  <g
     inkscape:label="F"
     id="layer4"
     inkscape:groupmode="layer">
    <path
       style="fill:url(#linearGradient3250);fill-opacity:1;fill-rule:evenodd;stroke:none;stroke-width:1px;stroke-linecap:butt;stroke-linejoin:miter;stroke-opacity:1"
       d="M 36.872212,174.36388 C 131.91889,159.85675 279.99161,160.85724 279.99161,160.85724 L 279.99161,144.11679 C 146.42601,145.61753 36.872212,157.85577 36.872212,157.85577 L 36.872212,174.36388 z "
       sodipodi:nodetypes="ccccc"
       id="path3242" />
    <path
       style="fill:#a4c2f6;fill-opacity:1;fill-rule:evenodd;stroke:none;stroke-width:1px;stroke-linecap:butt;stroke-linejoin:miter;stroke-opacity:1"
       d="M 36.872212,144.34914 C 281.05057,108.17169 511.60535,143.19067 511.60535,143.19067 L 511.60535,133.99376 C 511.60535,133.99376 239.43347,92.618104 36.802002,100.03596 L 36.872212,144.34914 z "
       sodipodi:nodetypes="ccccc"
       id="path3254" />
  </g>
  <g
     inkscape:label="Strahlung"
     style="display:none"
     id="layer6"
     inkscape:groupmode="layer">
    <path
       style="opacity:1;fill:#a4c2f6;fill-opacity:1;stroke:none;stroke-width:0.25;stroke-linecap:round;stroke-miterlimit:4;stroke-dasharray:0.25, 1;stroke-dashoffset:0;stroke-opacity:1"
       d=""
       id="path1202" />
    <path
       style="fill:none;fill-rule:evenodd;stroke:url(#linearGradient4803);stroke-width:1px;stroke-linecap:butt;stroke-linejoin:miter;stroke-opacity:1"
       d="M 54.125,244.96457 C 54.125,244.96457 61.125,218.96457 61.125,218.96457"
       id="path4795" />
    <path
       style="fill:none;fill-rule:evenodd;stroke:#848484;stroke-width:1px;stroke-linecap:butt;stroke-linejoin:miter;stroke-opacity:1"
       d="M 132.80078,163.22016 C 134.53387,156.75218 144.69637,153.40134 147.43176,163.60997 C 150.16716,173.8186 162.02094,218.05753 162.02094,218.05753"
       id="path4823" />
    <path
       style="fill:none;fill-rule:evenodd;stroke:#000000;stroke-width:1px;stroke-linecap:butt;stroke-linejoin:miter;stroke-opacity:1"
       d="M 113.53169,234.96709 C 113.53169,234.96709 131.06768,169.68815 132.80078,163.22016"
       id="path4809" />
    <path
       style="fill:none;fill-rule:evenodd;stroke:#000000;stroke-width:1px;stroke-linecap:butt;stroke-linejoin:miter;stroke-opacity:1"
       d="M 132.74825,163.4111 C 132.74825,163.4111 140.36874,135.13839 143.1183,124.8769 C 145.86786,114.61541 157.20967,115.59397 159.27581,123.30489 C 161.34194,131.01581 184.15928,216.17128 184.15928,216.17128"
       id="path4813" />
    <path
       style="fill:none;fill-rule:evenodd;stroke:#000000;stroke-width:1px;stroke-linecap:butt;stroke-linejoin:miter;stroke-opacity:1"
       id="path4815"
       d="M 271.25693,225.67991 C 271.25693,225.67991 280.76138,189.71762 281.98686,185.14406 C 283.21234,180.5705 287.72264,180.9719 288.625,184.33957 C 289.52736,187.70724 296.34003,212.47394 296.34003,212.47394" />
    <path
       style="fill:none;fill-rule:evenodd;stroke:#000000;stroke-width:1px;stroke-linecap:butt;stroke-linejoin:miter;stroke-opacity:1"
       d="M 271.125,225.71457 C 271.125,225.71457 294.54071,138.32596 297.40016,127.65432 C 300.25962,116.98269 311.12548,114.59395 314.625,127.65432 C 318.12452,140.7147 339.00673,218.64818 339.00673,218.64818"
       id="path4817" />
    <path
       style="fill:none;fill-rule:evenodd;stroke:#000000;stroke-width:1px;stroke-linecap:butt;stroke-linejoin:miter;stroke-opacity:1"
       d="M 366,228.46457 C 366,228.46457 395.5,143.46457 400,132.46457 C 404.5,121.46457 414,123.96457 416,133.46457 C 418,142.96457 430,207.46457 430,207.46457"
       id="path4819" />
    <path
       style="fill:none;fill-rule:evenodd;stroke:#000000;stroke-width:1px;stroke-linecap:butt;stroke-linejoin:miter;stroke-opacity:1"
       d="M 57.34635,348.46903 C 115.15233,327.96294 170.83699,340.69086 183.03458,358.72208"
       id="path3291" />
    <path
       style="fill:none;fill-rule:evenodd;stroke:#000000;stroke-width:1px;stroke-linecap:butt;stroke-linejoin:miter;stroke-opacity:1"
       id="path1215"
       d="M 138.55921,362.76316 C 133.91674,369.9977 129.74672,370.76698 122.39522,366.15484 C 115.04374,361.54271 110.10777,363.1248 106.59706,370.97115 M 171.47623,360.51519 C 165.49181,366.68593 161.23539,366.87061 154.96581,360.86983 C 148.69624,354.86906 143.20245,355.53303 138.55999,362.76756 M 204.11323,365.12254 C 196.7992,369.63844 192.87144,368.97949 187.935,361.84172 C 182.99857,354.70396 177.46053,354.34893 171.47612,360.51966 M 232.2864,381.22078 C 223.75699,380.15906 221.79018,379.36952 219.52264,370.99313 C 217.25511,362.61676 211.42605,360.61094 204.11203,365.12685" />
    <path
       style="fill:none;fill-rule:evenodd;stroke:#000000;stroke-width:1px;stroke-linecap:butt;stroke-linejoin:miter;stroke-opacity:1"
       d="M 56.524853,329.90533 C 64.650769,333.49859 66.852959,338.42861 63.04154,346.55711 C 59.230128,354.68559 61.029006,359.55122 69.040591,363.39266 M 69.629093,326.1286 C 77.394782,330.44561 78.897344,335.41076 74.603262,343.29495 C 70.309187,351.17913 71.811749,356.14428 79.577438,360.46129 M 82.394914,323.36115 C 89.893564,328.12697 91.101817,333.17182 86.351927,340.79012 C 81.602045,348.40841 82.810297,353.45327 90.308948,358.21909 M 95.291388,321.42463 C 102.50318,326.61434 103.41893,331.72041 98.238237,339.05256 C 93.057552,346.38471 93.973305,351.49078 101.1851,356.68048 M 108.27282,320.32769 C 115.17805,325.91882 115.99952,331.24547 110.21393,338.11039 C 104.42835,344.97531 104.90646,350.14077 111.65068,355.9251 M 121.80253,320.14991 C 128.20769,326.30758 128.39195,331.49184 122.22617,338.01743 C 116.0604,344.54301 116.24466,349.72727 122.64982,355.88495 M 135.34447,320.96389 C 141.18971,327.65535 140.92231,332.83598 134.21229,338.80048 C 127.50228,344.76498 127.23489,349.9456 133.08012,356.63707 M 148.31355,322.80641 C 153.74047,329.84136 153.32763,335.24219 146.0939,340.5593 C 138.86017,345.8764 138.11393,351.00993 143.314,358.21414 M 162.34576,326.19813 C 166.76844,333.90391 165.49246,338.93193 157.74515,343.46794 C 149.99786,348.00395 148.72187,353.03198 153.14455,360.73775 M 175.65221,331.24986 C 179.07976,339.44656 177.18705,344.27617 168.93501,347.81098 C 160.68299,351.34579 158.4011,355.65641 161.42447,364.01048 M 189.60177,339.83966 C 190.92005,348.6261 187.93301,353.2022 179.01986,354.27513 C 170.10673,355.34807 166.74799,358.9454 167.37735,367.80772"
       id="path0341" />
    <path
       style="fill:none;fill-rule:evenodd;stroke:#000000;stroke-width:0.5;stroke-linecap:butt;stroke-linejoin:miter;stroke-miterlimit:4;stroke-opacity:1"
       d="M 71.292474,288.8419 C 70.672542,289.53342 70.049635,289.57084 69.247131,288.8419 C 68.44463,288.11297 67.821721,288.15039 67.20173,288.8419"
       id="path4230" />
    <path
       style="fill:none;fill-rule:evenodd;stroke:#000000;stroke-width:1px;stroke-linecap:butt;stroke-linejoin:miter;stroke-opacity:1"
       d="M 66.171875,303.79269 C 66.171875,303.79269 75.28125,300.63644 77.65625,303.15206"
       id="path4232" />
    <path
       style="fill:none;fill-rule:evenodd;stroke:#000000;stroke-width:0.5;stroke-linecap:butt;stroke-linejoin:miter;stroke-miterlimit:4;stroke-opacity:1"
       d="M 69.763395,297.90645 C 69.321409,298.70909 68.776832,298.88205 67.837051,298.3781 C 66.897276,297.87416 66.306523,298.11025 65.937499,298.94894 M 73.685003,297.34356 C 73.130505,298.07299 72.597926,298.1253 71.711175,297.53298 C 70.824428,296.94067 70.20544,297.10382 69.763395,297.90645 M 77.421878,298.30831 C 76.512731,298.41625 76.284025,298.33355 75.660496,297.46865 C 75.036967,296.60376 74.239558,296.61413 73.685003,297.34356"
       id="path7270" />
  </g>
  <g
     inkscape:label="Strahlung Wellen"
     id="layer8"
     inkscape:groupmode="layer">
    <path
       style="fill:none;fill-rule:evenodd;stroke:url(#linearGradient4667);stroke-width:0.5;stroke-linecap:butt;stroke-linejoin:miter;stroke-miterlimit:4;stroke-opacity:1"
       d="M55.1249951719 241.250282986C55.6411927322 241.992941453 55.5250537733 242.568252491 54.6250022611 243.107399512C53.7249611384 243.646546408 53.6088216906 244.221859262 54.1249951719 244.9645687M56.1249951719 237.535997272C56.6411927322 238.278655739 56.5250537733 238.853966777 55.6250022611 239.393113797C54.7249611384 239.932260694 54.6088216906 240.507573548 55.1249951719 241.250282986M57.1249951719 233.821711557C57.6411927322 234.564370024 57.5250537733 235.139681062 56.6250022611 235.678828083C55.7249611384 236.21797498 55.6088216906 236.793287834 56.1249951719 237.535997272M58.1249951719 230.107425843C58.6411927322 230.85008431 58.5250537733 231.425395348 57.6250022611 231.964542369C56.7249611384 232.503689266 56.6088216906 233.07900212 57.1249951719 233.821711557M59.1249951719 226.393140129C59.6411927322 227.135798596 59.5250537733 227.711109634 58.6250022611 228.250256655C57.7249611384 228.789403551 57.6088216906 229.364716405 58.1249951719 230.107425843M60.1249951719 222.678854414C60.6411927322 223.421512881 60.5250537733 223.99682392 59.6250022611 224.53597094C58.7249611384 225.075117837 58.6088216906 225.650430691 59.1249951719 226.393140129M61.1249951719 218.9645687C61.6411927322 219.707227167 61.5250537733 220.282538205 60.6250022611 220.821685226C59.7249611384 221.360832123 59.6088216906 221.936144977 60.1249951719 222.678854414"
       id="path8042" />
    <path
       style="fill:none;fill-rule:evenodd;stroke:#000000;stroke-width:0.5;stroke-linecap:butt;stroke-linejoin:miter;stroke-miterlimit:4;stroke-opacity:1;display:inline"
       d="M114.602190171 230.981148148C115.107813657 231.764563202 114.980944724 232.381217488 114.06694526 232.974090168C113.152956239 233.56696252 113.026086783 234.183618754 113.531685171 234.967088703M115.672695171 226.995207592C116.178318657 227.778622646 116.051449724 228.395276932 115.13745026 228.988149613C114.223461239 229.581021964 114.096591783 230.197678199 114.602190171 230.981148148M116.743200171 223.009267036C117.248823657 223.79268209 117.121954724 224.409336376 116.20795526 225.002209057C115.293966239 225.595081409 115.167096783 226.211737643 115.672695171 226.995207592M117.813705171 219.023326481C118.319328657 219.806741535 118.192459724 220.423395821 117.27846026 221.016268502C116.364471239 221.609140853 116.237601783 222.225797088 116.743200171 223.009267036M118.884210171 215.037385925C119.389833657 215.820800979 119.262964724 216.437455265 118.34896526 217.030327946C117.434976239 217.623200297 117.308106783 218.239856532 117.813705171 219.023326481M119.954715171 211.05144537C120.460338657 211.834860424 120.333469724 212.45151471 119.41947026 213.044387391C118.505481239 213.637259742 118.378611783 214.253915977 118.884210171 215.037385925M121.025220171 207.065504814C121.530843657 207.848919868 121.403974724 208.465574154 120.48997526 209.058446835C119.575986239 209.651319186 119.449116783 210.267975421 119.954715171 211.05144537M122.095725171 203.079564259C122.601348657 203.862979313 122.474479724 204.479633599 121.56048026 205.072506279C120.646491239 205.665378631 120.519621783 206.282034866 121.025220171 207.065504814M123.166230171 199.093623703C123.671853657 199.877038757 123.544984724 200.493693043 122.63098526 201.086565724C121.716996239 201.679438075 121.590126783 202.29609431 122.095725171 203.079564259M124.236735171 195.107683148C124.742358657 195.891098202 124.615489724 196.507752488 123.70149026 197.100625168C122.787501239 197.69349752 122.660631783 198.310153754 123.166230171 199.093623703M125.307240171 191.121742592C125.812863657 191.905157646 125.685994724 192.521811932 124.77199526 193.114684613C123.858006239 193.707556964 123.731136783 194.324213199 124.236735171 195.107683148M126.377745171 187.135802036C126.883368657 187.91921709 126.756499724 188.535871376 125.84250026 189.128744057C124.928511239 189.721616409 124.801641783 190.338272643 125.307240171 191.121742592M127.448250171 183.149861481C127.953873657 183.933276535 127.827004724 184.549930821 126.91300526 185.142803502C125.999016239 185.735675853 125.872146783 186.352332088 126.377745171 187.135802036M128.518755171 179.163920925C129.024378657 179.947335979 128.897509724 180.563990265 127.98351026 181.156862946C127.069521239 181.749735297 126.942651783 182.366391532 127.448250171 183.149861481M129.589260171 175.17798037C130.094883657 175.961395424 129.968014724 176.57804971 129.05401526 177.170922391C128.140026239 177.763794742 128.013156783 178.380450977 128.518755171 179.163920925M130.659765171 171.192039814C131.165388657 171.975454868 131.038519724 172.592109154 130.12452026 173.184981835C129.210531239 173.777854186 129.083661783 174.394510421 129.589260171 175.17798037M131.730270171 167.206099259C132.235893657 167.989514313 132.109024724 168.606168599 131.19502526 169.199041279C130.281036239 169.791913631 130.154166783 170.408569866 130.659765171 171.192039814M132.800775171 163.220158703C133.306398657 164.003573757 133.179529724 164.620228043 132.26553026 165.213100724C131.351541239 165.805973075 131.224671783 166.42262931 131.730270171 167.206099259"
       id="path6695" />
    <path
       style="fill:none;fill-rule:evenodd;stroke:#878787;stroke-width:0.5;stroke-linecap:butt;stroke-linejoin:miter;stroke-miterlimit:4;stroke-opacity:1;display:inline"
       d="M134.794299024 159.731434433C134.874739528 160.653477243 134.615237432 161.042780872 133.580923483 161.352211974C132.546619642 161.661645654 132.324652598 162.42651585 132.800775229 163.220158508M138.162961237 157.534927278C137.794190696 158.383799979 137.417634088 158.578009326 136.347888108 158.432150442C135.278150267 158.286298082 134.713905988 158.809355896 134.794299024 159.731434433M142.155923793 157.324649728C141.367670896 157.809371991 140.994931579 157.79595604 140.145058359 157.130290215C139.295188872 156.46463413 138.531790532 156.686045797 138.162961237 157.534927278M145.472232145 159.542377046C144.547515832 159.506473881 144.244404949 159.217094139 143.990569844 158.167953822C143.736731627 157.11882346 142.944229879 156.839953903 142.155923793 157.324649728M147.290221475 163.142272566C146.450223187 162.753580469 146.23203157 162.28215159 146.55638231 161.252427394C146.880725243 160.222710118 146.39697794 159.578331778 145.472232145 159.542377046M148.356390935 167.060720246C147.529141948 166.645213115 147.332940614 166.057559559 147.830838622 165.099332346C148.32872774 164.141110598 148.130227158 163.531023611 147.290221475 163.142272566M149.407510465 170.983551666C148.580261478 170.568044535 148.384060145 169.980390979 148.881958152 169.022163766C149.379847271 168.063942018 149.183645423 167.476286543 148.356390935 167.060720246M150.458629996 174.906383086C149.631381008 174.490875955 149.435179675 173.903222399 149.933077682 172.944995186C150.430966801 171.986773437 150.234764954 171.399117963 149.407510465 170.983551666M151.509749526 178.829214506C150.682500539 178.413707375 150.486299205 177.826053819 150.984197213 176.867826606C151.482086331 175.909604857 151.285884484 175.321949383 150.458629996 174.906383086M152.560869057 182.752045926C151.733620069 182.336538795 151.537418736 181.748885239 152.035316743 180.790658026C152.533205862 179.832436277 152.337004014 179.244780803 151.509749526 178.829214506M153.611988587 186.674877346C152.7847396 186.259370215 152.588538266 185.671716659 153.086436273 184.713489446C153.584325392 183.755267697 153.388123545 183.167612223 152.560869057 182.752045926M154.663108117 190.597708766C153.83585913 190.182201635 153.639657796 189.594548079 154.137555804 188.636320866C154.635444922 187.678099117 154.439243075 187.090443643 153.611988587 186.674877346M155.714227648 194.520540186C154.88697866 194.105033055 154.690777327 193.517379499 155.188675334 192.559152286C155.686564453 191.600930537 155.490362605 191.013275063 154.663108117 190.597708766M156.765347178 198.443371606C155.938098191 198.027864475 155.741896857 197.440210919 156.239794864 196.481983706C156.737683983 195.523761957 156.541482136 194.936106483 155.714227648 194.520540186M157.816466708 202.366203026C156.989217721 201.950695895 156.793016387 201.363042339 157.290914395 200.404815126C157.788803513 199.446593377 157.592601666 198.858937903 156.765347178 198.443371606M158.867586239 206.289034446C158.040337251 205.873527315 157.844135918 205.285873759 158.342033925 204.327646546C158.839923044 203.369424797 158.643721196 202.781769323 157.816466708 202.366203026M159.918705769 210.211865866C159.091456782 209.796358735 158.895255448 209.208705179 159.393153455 208.250477966C159.891042574 207.292256217 159.694840727 206.704600743 158.867586239 206.289034446M160.969825299 214.134697286C160.142576312 213.719190155 159.946374979 213.131536599 160.444272986 212.173309386C160.942162104 211.215087637 160.745960257 210.627432163 159.918705769 210.211865866M162.02094483 218.057528706C161.193695842 217.642021575 160.997494509 217.054368019 161.495392516 216.096140806C161.993281635 215.137919057 161.797079787 214.550263583 160.969825299 214.134697286"
       id="path8442" />
    <path
       style="fill:none;fill-rule:evenodd;stroke:#000000;stroke-width:0.5;stroke-linecap:butt;stroke-linejoin:miter;stroke-miterlimit:4;stroke-opacity:1;display:inline;marker-end:none"
       d="M 133.91539,159.38676 C 134.42285,160.16213 134.29792,160.77037 133.38651,161.35203 C 132.47512,161.93368 132.35018,162.54193 132.85762,163.31735 M 134.97316,155.45617 C 135.48063,156.23154 135.35569,156.83978 134.44429,157.42144 C 133.53289,158.0031 133.40795,158.61134 133.91539,159.38676 M 136.03094,151.52559 C 136.5384,152.30095 136.41346,152.90919 135.50206,153.49085 C 134.59066,154.07251 134.46573,154.68075 134.97316,155.45617 M 137.08871,147.595 C 137.59617,148.37036 137.47123,148.97861 136.55983,149.56026 C 135.64843,150.14192 135.5235,150.75017 136.03094,151.52559 M 138.14648,143.66441 C 138.65394,144.43977 138.52901,145.04802 137.6176,145.62968 C 136.70621,146.21133 136.58127,146.81958 137.08871,147.595 M 139.20425,139.73382 C 139.71171,140.50919 139.58678,141.11743 138.67537,141.69909 C 137.76398,142.28074 137.63904,142.88899 138.14648,143.66441 M 140.26202,135.80323 C 140.76949,136.5786 140.64455,137.18684 139.73314,137.7685 C 138.82175,138.35016 138.69681,138.9584 139.20425,139.73382 M 141.3198,131.87265 C 141.82726,132.64801 141.70232,133.25625 140.79092,133.83791 C 139.87952,134.41957 139.75459,135.02781 140.26202,135.80323 M 142.37757,127.94206 C 142.88503,128.71742 142.76009,129.32567 141.84869,129.90732 C 140.93729,130.48898 140.81236,131.09723 141.3198,131.87265 M 143.46,124.01869 C 143.94218,124.80982 143.81787,125.39508 142.90646,125.97674 C 141.99507,126.55839 141.87013,127.16664 142.37757,127.94206 M 145.34699,120.43916 C 145.50597,121.35183 145.2661,121.80277 144.23973,122.14184 C 143.21337,122.48093 142.97784,123.22751 143.46,124.01869 M 148.51328,117.94806 C 148.2109,118.8237 147.85722,119.09921 146.78063,119.00308 C 145.70405,118.90695 145.18806,119.52645 145.34699,120.43916 M 152.483,117.29765 C 151.80026,117.92382 151.35112,117.97111 150.45604,117.36518 C 149.56097,116.75925 148.81572,117.07239 148.51328,117.94806 M 156.25958,118.68347 C 155.36315,118.91717 154.96815,118.70094 154.46083,117.74649 C 153.95351,116.79205 153.16581,116.67148 152.483,117.29765 M 158.85025,121.76121 C 157.9536,121.52841 157.74758,121.13323 157.75651,120.0524 C 157.76544,118.97157 157.15606,118.4498 156.25958,118.68347 M 160.03805,125.64764 C 159.21044,125.23079 159.01387,124.64178 159.5113,123.6818 C 160.00873,122.72184 159.74692,121.99406 158.85025,121.76121 M 161.09155,129.57938 C 160.26394,129.16252 160.06738,128.57351 160.56481,127.61354 C 161.06223,126.65357 160.86566,126.06456 160.03805,125.64764 M 162.14506,133.51111 C 161.31745,133.09425 161.12088,132.50525 161.61831,131.54527 C 162.11573,130.5853 161.91917,129.99629 161.09155,129.57938 M 163.19856,137.44285 C 162.37095,137.02599 162.17439,136.43698 162.67182,135.47701 C 163.16924,134.51704 162.97267,133.92803 162.14506,133.51111 M 164.25207,141.37458 C 163.42446,140.95772 163.22789,140.36871 163.72532,139.40874 C 164.22274,138.44877 164.02618,137.85976 163.19856,137.44285 M 165.30557,145.30631 C 164.47796,144.88946 164.2814,144.30045 164.77883,143.34047 C 165.27625,142.38051 165.07968,141.79149 164.25207,141.37458 M 166.35908,149.23805 C 165.53147,148.82119 165.3349,148.23218 165.83233,147.27221 C 166.32975,146.31224 166.13319,145.72323 165.30557,145.30631 M 167.41258,153.16978 C 166.58497,152.75293 166.38841,152.16392 166.88584,151.20394 C 167.38326,150.24397 167.18669,149.65496 166.35908,149.23805 M 168.46609,157.10152 C 167.63848,156.68466 167.44191,156.09565 167.93934,155.13568 C 168.43676,154.17571 168.2402,153.5867 167.41258,153.16978 M 169.51959,161.03325 C 168.69198,160.61639 168.49542,160.02738 168.99285,159.06741 C 169.49027,158.10744 169.2937,157.51843 168.46609,157.10152 M 170.5731,164.96498 C 169.74549,164.54813 169.54892,163.95912 170.04635,162.99915 C 170.54377,162.03918 170.34721,161.45017 169.51959,161.03325 M 171.6266,168.89672 C 170.79899,168.47986 170.60243,167.89085 171.09986,166.93088 C 171.59728,165.97091 171.40071,165.3819 170.5731,164.96498 M 172.68011,172.82845 C 171.8525,172.4116 171.65593,171.82259 172.15336,170.86261 C 172.65078,169.90265 172.45422,169.31363 171.6266,168.89672 M 173.73361,176.76019 C 172.906,176.34333 172.70944,175.75432 173.20687,174.79435 C 173.70429,173.83438 173.50772,173.24537 172.68011,172.82845 M 174.78712,180.69192 C 173.95951,180.27506 173.76294,179.68606 174.26037,178.72608 C 174.75779,177.76611 174.56123,177.1771 173.73361,176.76019 M 175.84062,184.62366 C 175.01301,184.2068 174.81645,183.61779 175.31388,182.65782 C 175.8113,181.69785 175.61473,181.10884 174.78712,180.69192 M 176.89413,188.55539 C 176.06652,188.13853 175.86995,187.54952 176.36738,186.58955 C 176.8648,185.62958 176.66824,185.04057 175.84062,184.62366 M 177.94763,192.48712 C 177.12002,192.07027 176.92346,191.48126 177.42089,190.52128 C 177.91831,189.56132 177.72174,188.97231 176.89413,188.55539 M 179.00114,196.41886 C 178.17353,196.002 177.97696,195.41299 178.47439,194.45302 C 178.97181,193.49305 178.77525,192.90404 177.94763,192.48712 M 180.05464,200.35059 C 179.22703,199.93374 179.03047,199.34473 179.5279,198.38475 C 180.02532,197.42478 179.82875,196.83577 179.00114,196.41886 M 181.10815,204.28233 C 180.28053,203.86547 180.08397,203.27646 180.5814,202.31649 C 181.07882,201.35652 180.88226,200.76751 180.05464,200.35059 M 182.16165,208.21406 C 181.33404,207.7972 181.13748,207.20819 181.63491,206.24822 C 182.13233,205.28825 181.93576,204.69924 181.10815,204.28233 M 183.21516,212.14579 C 182.38754,211.72894 182.19098,211.13993 182.68841,210.17996 C 183.18583,209.21999 182.98927,208.63098 182.16165,208.21406 M 184.26866,216.07753 C 183.44105,215.66067 183.24448,215.07166 183.74191,214.11169 C 184.23934,213.15172 184.04277,212.56271 183.21516,212.14579"
       id="path4198" />
    <path
       style="fill:none;fill-rule:evenodd;stroke:#000000;stroke-width:0.5;stroke-linecap:butt;stroke-linejoin:miter;stroke-miterlimit:4;stroke-opacity:1;display:inline"
       d="M272.190742993 221.737142956C272.697191223 222.518880652 272.571052295 223.134217428 271.657876637 223.725827634C270.74471142 224.317437512 270.618571971 224.932776233 271.12499517 225.714568706M273.256490817 217.759717206C273.762939046 218.541454902 273.636800118 219.156791678 272.72362446 219.748401884C271.810459243 220.340011762 271.684319794 220.955350483 272.190742993 221.737142956M274.32223864 213.782291456C274.828686869 214.564029152 274.702547941 215.179365928 273.789372283 215.770976134C272.876207066 216.362586012 272.750067617 216.977924733 273.256490817 217.759717206M275.387986463 209.804865706C275.894434692 210.586603402 275.768295764 211.201940178 274.855120106 211.793550384C273.94195489 212.385160262 273.815815441 213.000498983 274.32223864 213.782291456M276.453734286 205.827439956C276.960182515 206.609177652 276.834043587 207.224514428 275.92086793 207.816124634C275.007702713 208.407734512 274.881563264 209.023073233 275.387986463 209.804865706M277.519482109 201.850014206C278.025930338 202.631751902 277.89979141 203.247088678 276.986615753 203.838698884C276.073450536 204.430308762 275.947311087 205.045647483 276.453734286 205.827439956M278.585229932 197.872588456C279.091678161 198.654326152 278.965539233 199.269662928 278.052363576 199.861273134C277.139198359 200.452883012 277.01305891 201.068221733 277.519482109 201.850014206M279.650977755 193.895162706C280.157425985 194.676900402 280.031287057 195.292237178 279.118111399 195.883847384C278.204946182 196.475457262 278.078806733 197.090795983 278.585229932 197.872588456M280.716725578 189.917736956C281.223173808 190.699474652 281.09703488 191.314811428 280.183859222 191.906421634C279.270694005 192.498031512 279.144554556 193.113370233 279.650977755 193.895162706M281.782473401 185.940311206C282.288921631 186.722048902 282.162782703 187.337385678 281.249607045 187.928995884C280.336441828 188.520605762 280.210302379 189.135944483 280.716725578 189.917736956M282.848221224 181.962885456C283.354669454 182.744623152 283.228530526 183.359959928 282.315354868 183.951570134C281.402189651 184.543180012 281.276050202 185.158518733 281.782473401 185.940311206M283.913969047 177.985459706C284.420417277 178.767197402 284.294278349 179.382534178 283.381102691 179.974144384C282.467937474 180.565754262 282.341798025 181.181092983 282.848221224 181.962885456M284.979716871 174.008033956C285.4861651 174.789771652 285.360026172 175.405108428 284.446850514 175.996718634C283.533685297 176.588328512 283.407545848 177.203667233 283.913969047 177.985459706M286.045464694 170.030608206C286.551912923 170.812345902 286.425773995 171.427682678 285.512598337 172.019292884C284.599433121 172.610902762 284.473293671 173.226241483 284.979716871 174.008033956M287.111212517 166.053182456C287.617660746 166.834920152 287.491521818 167.450256928 286.578346161 168.041867134C285.665180944 168.633477012 285.539041495 169.248815733 286.045464694 170.030608206M288.17696034 162.075756706C288.683408569 162.857494402 288.557269641 163.472831178 287.644093984 164.064441384C286.730928767 164.656051262 286.604789318 165.271389983 287.111212517 166.053182456M289.242708163 158.098330956C289.749156392 158.880068652 289.623017464 159.495405428 288.709841807 160.087015634C287.79667659 160.678625512 287.670537141 161.293964233 288.17696034 162.075756706M290.308455986 154.120905206C290.814904216 154.902642902 290.688765288 155.517979678 289.77558963 156.109589884C288.862424413 156.701199762 288.736284964 157.316538483 289.242708163 158.098330956M291.374203809 150.143479456C291.880652039 150.925217152 291.754513111 151.540553928 290.841337453 152.132164134C289.928172236 152.723774012 289.802032787 153.339112733 290.308455986 154.120905206M292.439951632 146.166053706C292.946399862 146.947791402 292.820260934 147.563128178 291.907085276 148.154738384C290.993920059 148.746348262 290.86778061 149.361686983 291.374203809 150.143479456M293.505699455 142.188627956C294.012147685 142.970365652 293.886008757 143.585702428 292.972833099 144.177312634C292.059667882 144.768922512 291.933528433 145.384261233 292.439951632 146.166053706M294.571447278 138.211202206C295.077895508 138.992939902 294.95175658 139.608276678 294.038580922 140.199886884C293.125415705 140.791496762 292.999276256 141.406835483 293.505699455 142.188627956M295.637195102 134.233776456C296.143643331 135.015514152 296.017504403 135.630850928 295.104328745 136.222461134C294.191163528 136.814071012 294.065024079 137.429409733 294.571447278 138.211202206M296.702942925 130.256350706C297.209391154 131.038088402 297.083252226 131.653425178 296.170076568 132.245035384C295.256911351 132.836645262 295.130771902 133.451983983 295.637195102 134.233776456M297.829124375 126.297261904C298.266962536 127.119245144 298.149000049 127.675999428 297.235824391 128.267609634C296.322659175 128.859219512 296.196519725 129.474558233 296.702942925 130.256350706M299.701596755 122.646305815C299.924121287 123.550610585 299.654388 124.014358903 298.639906763 124.40722321C297.625435814 124.800089323 297.391315822 125.475226231 297.829124375 126.297261904M302.658448466 119.821747067C302.460326661 120.731583027 302.130020887 121.057362648 301.0426706 121.088982021C299.955329405 121.120606532 299.479113802 121.74195749 299.701596755 122.646305815M306.566602723 118.744052638C305.892460109 119.386149188 305.489495326 119.50425256 304.532632636 118.987220854C303.575775242 118.470198147 302.856626768 118.911890299 302.658448466 119.821747067M310.340835899 120.204550381C309.418058345 120.328840614 309.027110626 120.161633882 308.567684578 119.17588213C308.108257412 118.190140759 307.240803772 118.101970539 306.566602723 118.744052638M312.936842654 123.364980317C312.023740389 123.182020772 311.743239166 122.745991193 311.79005276 121.6592424C311.836860576 120.572502306 311.263652293 120.080306147 310.340835899 120.204550381M314.481904667 127.171009558C313.641777034 126.769034684 313.463802047 126.252552353 313.817682769 125.223823608C314.171555475 124.19510156 313.849966668 123.547996009 312.936842654 123.364980317M315.560279897 131.144812963C314.730814042 130.721032325 314.532385205 130.125065569 315.027413476 129.156128302C315.522432871 128.187196539 315.32203957 127.57304421 314.481904667 127.171009558M316.626027848 135.122238678C315.796561993 134.69845804 315.598133156 134.102491284 316.093161428 133.133554017C316.588180822 132.164622255 316.389751464 131.568653554 315.560279897 131.144812963M317.6917758 139.099664394C316.862309945 138.675883756 316.663881108 138.079917 317.158909379 137.110979733C317.653928774 136.142047971 317.455499416 135.54607927 316.626027848 135.122238678M318.757523751 143.077090109C317.928057896 142.653309472 317.729629059 142.057342716 318.224657331 141.088405448C318.719676725 140.119473686 318.521247367 139.523504986 317.6917758 139.099664394M319.823271703 147.054515825C318.993805848 146.630735187 318.795377011 146.034768431 319.290405282 145.065831164C319.785424677 144.096899402 319.586995319 143.500930701 318.757523751 143.077090109M320.889019654 151.031941541C320.059553799 150.608160903 319.861124962 150.012194147 320.356153234 149.04325688C320.851172628 148.074325117 320.65274327 147.478356417 319.823271703 147.054515825M321.954767606 155.009367256C321.125301751 154.585586618 320.926872914 153.989619862 321.421901185 153.020682595C321.91692058 152.051750833 321.718491222 151.455782132 320.889019654 151.031941541M323.020515557 158.986792972C322.191049702 158.563012334 321.992620865 157.967045578 322.487649137 156.998108311C322.982668531 156.029176549 322.784239173 155.433207848 321.954767606 155.009367256M324.086263509 162.964218687C323.256797653 162.54043805 323.058368817 161.944471294 323.553397088 160.975534026C324.048416483 160.006602264 323.849987124 159.410633564 323.020515557 158.986792972M325.15201146 166.941644403C324.322545605 166.517863765 324.124116768 165.921897009 324.61914504 164.952959742C325.114164434 163.98402798 324.915735076 163.388059279 324.086263509 162.964218687M326.217759412 170.919070119C325.388293556 170.495289481 325.189864719 169.899322725 325.684892991 168.930385458C326.179912385 167.961453695 325.981483027 167.365484995 325.15201146 166.941644403M327.283507363 174.896495834C326.454041508 174.472715196 326.255612671 173.87674844 326.750640943 172.907811173C327.245660337 171.938879411 327.047230979 171.34291071 326.217759412 170.919070119M328.349255315 178.87392155C327.519789459 178.450140912 327.321360622 177.854174156 327.816388894 176.885236889C328.311408288 175.916305127 328.11297893 175.320336426 327.283507363 174.896495834M329.415003266 182.851347265C328.585537411 182.427566628 328.387108574 181.831599872 328.882136846 180.862662604C329.37715624 179.893730842 329.178726882 179.297762142 328.349255315 178.87392155M330.480751218 186.828772981C329.651285362 186.404992343 329.452856525 185.809025587 329.947884797 184.84008832C330.442904191 183.871156558 330.244474833 183.275187857 329.415003266 182.851347265M331.546499169 190.806198697C330.717033314 190.382418059 330.518604477 189.786451303 331.013632749 188.817514036C331.508652143 187.848582273 331.310222785 187.252613573 330.480751218 186.828772981M332.612247121 194.783624412C331.782781265 194.359843774 331.584352428 193.763877018 332.0793807 192.794939751C332.574400094 191.826007989 332.375970736 191.230039288 331.546499169 190.806198697M333.677995072 198.761050128C332.848529217 198.33726949 332.65010038 197.741302734 333.145128652 196.772365467C333.640148046 195.803433705 333.441718688 195.207465004 332.612247121 194.783624412M334.743743024 202.738475843C333.914277168 202.314695206 333.715848331 201.71872845 334.210876603 200.749791182C334.705895997 199.78085942 334.507466639 199.18489072 333.677995072 198.761050128M335.809490975 206.715901559C334.98002512 206.292120921 334.781596283 205.696154165 335.276624555 204.727216898C335.771643949 203.758285136 335.573214591 203.162316435 334.743743024 202.738475843M336.875238927 210.693327275C336.045773071 210.269546637 335.847344234 209.673579881 336.342372506 208.704642614C336.8373919 207.735710851 336.638962542 207.139742151 335.809490975 206.715901559M337.940986878 214.67075299C337.111521023 214.246972352 336.913092186 213.651005596 337.408120458 212.682068329C337.903139852 211.713136567 337.704710494 211.117167866 336.875238927 210.693327275M339.00673483 218.648178706C338.177268974 218.224398068 337.978840137 217.628431312 338.473868409 216.659494045C338.968887803 215.690562283 338.770458445 215.094593582 337.940986878 214.67075299"
       id="path2392" />
    <path
       style="fill:none;fill-rule:evenodd;stroke:#000000;stroke-width:0.5;stroke-linecap:butt;stroke-linejoin:miter;stroke-miterlimit:4;stroke-opacity:1;display:inline"
       d="M 283.13992,182.29204 C 283.26369,183.20667 283.13086,183.55788 282.173,184.04817 M 286.77514,181.34236 C 285.92574,181.70332 285.75382,181.70538 284.80212,181.20363 C 283.85042,180.70189 283.01619,181.37738 283.13992,182.29204 M 288.92537,184.55908 C 288.09671,184.15209 288.0354,183.71769 288.25539,182.66449 C 288.47537,181.61129 287.6246,180.98143 286.77514,181.34236 M 289.99273,188.45145 C 289.16408,188.04446 288.96546,187.46166 289.45906,186.50529 C 289.95264,185.54894 289.75402,184.96613 288.92537,184.55908 M 291.0601,192.34382 C 290.23145,191.93683 290.03283,191.35402 290.52643,190.39766 C 291.02001,189.44131 290.82139,188.8585 289.99273,188.45145 M 292.12747,196.23619 C 291.29882,195.8292 291.1002,195.24639 291.59379,194.29003 C 292.08738,193.33368 291.88876,192.75087 291.0601,192.34382 M 293.19484,200.12856 C 292.36619,199.72157 292.16757,199.13876 292.66116,198.1824 C 293.15475,197.22604 292.95613,196.64324 292.12747,196.23619 M 294.26221,204.02093 C 293.43355,203.61393 293.23494,203.03113 293.72853,202.07477 C 294.22212,201.11841 294.0235,200.53561 293.19484,200.12856 M 295.32958,207.9133 C 294.50092,207.5063 294.30231,206.9235 294.7959,205.96714 C 295.28949,205.01078 295.09087,204.42798 294.26221,204.02093 M 296.39695,211.80566 C 295.56829,211.39867 295.36967,210.81587 295.86327,209.85951 C 296.35686,208.90315 296.15824,208.32035 295.32958,207.9133"
       id="path1804"
       sodipodi:nodetypes="cscsccsccsccsccsccsccsccsccsc" />
    <path
       style="fill:none;fill-rule:evenodd;stroke:#000000;stroke-width:0.5;stroke-linecap:butt;stroke-linejoin:miter;stroke-miterlimit:4;stroke-opacity:1;display:inline"
       d="M 366.99827,225.20989 C 367.4463,226.02475 367.27579,226.62689 366.32236,227.14656 C 365.36895,227.66623 365.19843,228.26838 365.64644,229.08329 M 368.35009,221.3365 C 368.79813,222.15135 368.62761,222.7535 367.67419,223.27317 C 366.72078,223.79284 366.55026,224.39498 366.99827,225.20989 M 369.70192,217.4631 C 370.14996,218.27796 369.97944,218.8801 369.02602,219.39977 C 368.0726,219.91944 367.90209,220.52159 368.35009,221.3365 M 371.05375,213.58971 C 371.50178,214.40456 371.33127,215.00671 370.37784,215.52638 C 369.42443,216.04605 369.25391,216.64819 369.70192,217.4631 M 372.40557,209.71631 C 372.85361,210.53117 372.68309,211.13331 371.72967,211.65298 C 370.77625,212.17265 370.60574,212.7748 371.05375,213.58971 M 373.7574,205.84292 C 374.20543,206.65777 374.03492,207.25992 373.08149,207.77959 C 372.12808,208.29926 371.95756,208.9014 372.40557,209.71631 M 375.10922,201.96952 C 375.55726,202.78438 375.38674,203.38652 374.43332,203.90619 C 373.47991,204.42586 373.30939,205.02801 373.7574,205.84292 M 376.46105,198.09613 C 376.90909,198.91099 376.73857,199.51313 375.78515,200.0328 C 374.83173,200.55247 374.66122,201.15461 375.10922,201.96952 M 377.81287,194.22273 C 378.26091,195.03759 378.0904,195.63973 377.13697,196.1594 C 376.18356,196.67907 376.01304,197.28122 376.46105,198.09613 M 379.1647,190.34934 C 379.61274,191.1642 379.44222,191.76634 378.4888,192.28601 C 377.53538,192.80568 377.36487,193.40782 377.81287,194.22273 M 380.51653,186.47594 C 380.96456,187.2908 380.79405,187.89294 379.84062,188.41261 C 378.88721,188.93228 378.71669,189.53443 379.1647,190.34934 M 381.8783,182.60604 C 382.32322,183.42261 382.15041,184.02409 381.195,184.54012 C 380.23961,185.05614 380.06852,185.66103 380.51653,186.47594 M 383.24492,178.73784 C 383.68984,179.55441 383.51702,180.15589 382.56162,180.67192 C 381.60623,181.18794 381.43341,181.78943 381.8783,182.60604 M 384.61153,174.86965 C 385.05645,175.68621 384.88364,176.28769 383.92823,176.80372 C 382.97284,177.31974 382.80003,177.92123 383.24492,178.73784 M 385.97815,171.00145 C 386.42307,171.81801 386.25025,172.41949 385.29485,172.93552 C 384.33946,173.45154 384.16664,174.05303 384.61153,174.86965 M 387.34476,167.13325 C 387.78968,167.94981 387.61687,168.55129 386.66146,169.06732 C 385.70607,169.58334 385.53326,170.18483 385.97815,171.00145 M 388.71138,163.26505 C 389.1563,164.08161 388.98348,164.6831 388.02808,165.19912 C 387.07269,165.71514 386.89987,166.31663 387.34476,167.13325 M 390.07799,159.39685 C 390.52291,160.21341 390.3501,160.8149 389.39469,161.33092 C 388.4393,161.84695 388.26648,162.44843 388.71138,163.26505 M 391.44461,155.52865 C 391.88952,156.34521 391.71671,156.9467 390.76131,157.46272 C 389.80592,157.97875 389.6331,158.58023 390.07799,159.39685 M 392.81825,151.66296 C 393.25775,152.48245 393.08332,153.0785 392.12792,153.59452 C 391.17253,154.11055 390.99971,154.71203 391.44461,155.52865 M 394.21043,147.8039 C 394.64993,148.62338 394.47314,149.22371 393.51435,149.7334 C 392.55556,150.24309 392.37877,150.84342 392.81825,151.66296 M 395.60261,143.94483 C 396.04211,144.76432 395.86532,145.36464 394.90653,145.87433 C 393.94774,146.38403 393.77095,146.98435 394.21043,147.8039 M 396.99903,140.08734 C 397.42604,140.91336 397.2575,141.50558 396.29871,142.01527 C 395.33992,142.52496 395.16313,143.12529 395.60261,143.94483 M 398.44948,136.24999 C 398.87649,137.07601 398.69063,137.67356 397.72426,138.16864 C 396.7579,138.66372 396.57204,139.26127 396.99903,140.08734 M 399.935,132.42702 C 400.31774,133.2744 400.14109,133.83621 399.17472,134.33129 C 398.20836,134.82637 398.0225,135.42392 398.44948,136.24999 M 402.04772,128.92551 C 402.21533,129.84 401.91273,130.27906 400.87788,130.60739 C 399.84304,130.93572 399.5523,131.5796 399.935,132.42702 M 405.23286,126.40197 C 404.94354,127.28536 404.58157,127.53573 403.49744,127.48044 C 402.41332,127.42516 401.88015,128.01098 402.04772,128.92551 M 409.2374,126.02514 C 408.44693,126.51423 408.08787,126.50317 407.2035,125.87392 C 406.31914,125.24467 405.52224,125.51858 405.23286,126.40197 M 412.69702,128.12354 C 411.76782,128.15322 411.40697,127.87614 411.11342,126.83108 C 410.81986,125.78602 410.02793,125.53608 409.2374,126.02514 M 414.881,131.56631 C 413.99724,131.2775 413.74491,130.80921 413.94826,129.74278 C 414.15162,128.67636 413.62627,128.09391 412.69702,128.12354 M 415.92195,135.52521 C 415.12605,135.04432 414.98958,134.46905 415.51017,133.5163 C 416.03076,132.56356 415.76478,131.85517 414.881,131.56631 M 416.69185,139.55478 C 415.89595,139.0739 415.74196,138.46733 416.30691,137.54002 C 416.87184,136.61273 416.71785,136.00615 415.92195,135.52521 M 417.46176,143.58436 C 416.66586,143.10347 416.51187,142.4969 417.07681,141.5696 C 417.64174,140.6423 417.48775,140.03573 416.69185,139.55478 M 418.23166,147.61394 C 417.43576,147.13305 417.28177,146.52648 417.84671,145.59918 C 418.41165,144.67188 418.25766,144.06531 417.46176,143.58436 M 419.00156,151.64352 C 418.20566,151.16263 418.05167,150.55606 418.61662,149.62876 C 419.18155,148.70146 419.02756,148.09489 418.23166,147.61394 M 419.77147,155.67309 C 418.97557,155.19221 418.82158,154.58564 419.38652,153.65833 C 419.95146,152.73104 419.79747,152.12446 419.00156,151.64352 M 420.54137,159.70267 C 419.74547,159.22178 419.59148,158.61521 420.15643,157.68791 C 420.72136,156.76061 420.56737,156.15404 419.77147,155.67309 M 421.31128,163.73225 C 420.51538,163.25136 420.36139,162.64479 420.92633,161.71749 C 421.49126,160.79019 421.33727,160.18362 420.54137,159.70267 M 422.08118,167.76183 C 421.28528,167.28094 421.13129,166.67437 421.69623,165.74707 C 422.26117,164.81977 422.10718,164.2132 421.31128,163.73225 M 422.85108,171.79141 C 422.05518,171.31052 421.90119,170.70395 422.46614,169.77665 C 423.03107,168.84935 422.87708,168.24278 422.08118,167.76183 M 423.61628,175.82189 C 422.82231,175.33781 422.6711,174.73353 423.23604,173.80622 C 423.80098,172.87893 423.64699,172.27235 422.85108,171.79141 M 424.37005,179.85456 C 423.57608,179.37049 423.42452,178.7633 423.99317,177.83825 C 424.56182,176.91321 424.41026,176.30602 423.61628,175.82189 M 425.12383,183.88724 C 424.32985,183.40316 424.17829,182.79597 424.74695,181.87093 C 425.31559,180.94589 425.16403,180.3387 424.37005,179.85456 M 425.8776,187.91991 C 425.08362,187.43584 424.93206,186.82865 425.50072,185.9036 C 426.06937,184.97856 425.9178,184.37137 425.12383,183.88724 M 426.63137,191.95259 C 425.83739,191.46851 425.68583,190.86132 426.25449,189.93628 C 426.82314,189.01124 426.67158,188.40405 425.8776,187.91991 M 427.38514,195.98526 C 426.59116,195.50119 426.4396,194.894 427.00826,193.96895 C 427.57691,193.04391 427.42535,192.43672 426.63137,191.95259 M 428.13891,200.01794 C 427.34493,199.53386 427.19337,198.92667 427.76203,198.00163 C 428.33068,197.07659 428.17912,196.4694 427.38514,195.98526 M 428.89268,204.05061 C 428.0987,203.56654 427.94714,202.95935 428.5158,202.0343 C 429.08445,201.10927 428.93289,200.50207 428.13891,200.01794 M 429.64645,208.08329 C 428.85247,207.59921 428.70091,206.99202 429.26957,206.06698 C 429.83822,205.14194 429.68666,204.53475 428.89268,204.05061"
       id="path1870" />
    <path
       style="fill:#000000;fill-opacity:1;fill-rule:evenodd;stroke:none;stroke-width:1px;stroke-linecap:butt;stroke-linejoin:miter;stroke-opacity:1"
       d="M 185.08869,219.79169 L 185.18836,215.60783 L 182.95465,216.20635 L 185.08869,219.79169 z "
       id="path3445"
       sodipodi:nodetypes="cccc" />
    <path
       sodipodi:nodetypes="cccc"
       id="path4416"
       d="M 162.90321,221.82462 L 163.00288,217.64076 L 160.76917,218.23928 L 162.90321,221.82462 z "
       style="fill:#878787;fill-opacity:1;fill-rule:evenodd;stroke:none;stroke-width:1px;stroke-linecap:butt;stroke-linejoin:miter;stroke-opacity:1" />
    <path
       sodipodi:nodetypes="cccc"
       id="path4418"
       d="M 297.2535,215.59324 L 297.35317,211.40938 L 295.11946,212.0079 L 297.2535,215.59324 z "
       style="fill:#000000;fill-opacity:1;fill-rule:evenodd;stroke:none;stroke-width:1px;stroke-linecap:butt;stroke-linejoin:miter;stroke-opacity:1" />
    <path
       sodipodi:nodetypes="cccc"
       id="path4420"
       d="M 339.72133,222.40303 L 339.821,218.21917 L 337.58729,218.81769 L 339.72133,222.40303 z "
       style="fill:#000000;fill-opacity:1;fill-rule:evenodd;stroke:none;stroke-width:1px;stroke-linecap:butt;stroke-linejoin:miter;stroke-opacity:1" />
    <path
       sodipodi:nodetypes="cccc"
       id="path4422"
       d="M 430.45469,211.869 L 430.55436,207.68514 L 428.32065,208.28366 L 430.45469,211.869 z "
       style="fill:#000000;fill-opacity:1;fill-rule:evenodd;stroke:none;stroke-width:1px;stroke-linecap:butt;stroke-linejoin:miter;stroke-opacity:1" />
  </g>
  <g
     inkscape:label="Text"
     id="layer5"
     inkscape:groupmode="layer">
    <g
       id="g3612"
       transform="translate(-4.1340866,-12.789845)">
      <text
         style="font-size:11px;font-style:normal;font-variant:normal;font-weight:normal;font-stretch:condensed;text-align:start;line-height:100%;writing-mode:lr-tb;text-anchor:start;fill:#000000;fill-opacity:1;stroke:none;stroke-width:1px;stroke-linecap:butt;stroke-linejoin:miter;stroke-opacity:1;font-family:DejaVu Sans"
         y="108.94988"
         x="43.911919"
         sodipodi:linespacing="100%"
         id="text3257"
         xml:space="preserve"><tspan
           sodipodi:role="line"
           id="tspan3259"
           y="108.94988"
           x="43.911919">F</tspan></text>
      <text
         style="font-size:6px;font-style:normal;font-variant:normal;font-weight:normal;font-stretch:condensed;text-align:start;line-height:100%;writing-mode:lr-tb;text-anchor:start;fill:#000000;fill-opacity:1;stroke:none;stroke-width:1px;stroke-linecap:butt;stroke-linejoin:miter;stroke-opacity:1;font-family:DejaVu Sans"
         y="111.25254"
         x="49.317669"
         sodipodi:linespacing="100%"
         id="text3261"
         xml:space="preserve"><tspan
           sodipodi:role="line"
           id="tspan3263"
           y="111.25254"
           x="49.317669">2</tspan></text>
    </g>
    <g
       id="g3618"
       transform="translate(-5.3783455,0)">
      <text
         style="font-size:11px;font-style:normal;font-variant:normal;font-weight:normal;font-stretch:condensed;text-align:start;line-height:100%;writing-mode:lr-tb;text-anchor:start;fill:#000000;fill-opacity:1;stroke:none;stroke-width:1px;stroke-linecap:butt;stroke-linejoin:miter;stroke-opacity:1;font-family:DejaVu Sans"
         y="154.21452"
         x="45.156178"
         sodipodi:linespacing="100%"
         id="text3265"
         xml:space="preserve"><tspan
           sodipodi:role="line"
           id="tspan3267"
           y="154.21452"
           x="45.156178">F</tspan></text>
      <text
         style="font-size:6px;font-style:normal;font-variant:normal;font-weight:normal;font-stretch:condensed;text-align:start;line-height:100%;writing-mode:lr-tb;text-anchor:start;fill:#000000;fill-opacity:1;stroke:none;stroke-width:1px;stroke-linecap:butt;stroke-linejoin:miter;stroke-opacity:1;font-family:DejaVu Sans"
         y="156.10158"
         x="50.137302"
         sodipodi:linespacing="100%"
         id="text3269"
         xml:space="preserve"><tspan
           sodipodi:role="line"
           id="tspan3271"
           y="156.10158"
           x="50.137302">1</tspan></text>
    </g>
    <text
       style="font-size:11px;font-style:normal;font-variant:normal;font-weight:normal;font-stretch:condensed;text-align:start;line-height:100%;writing-mode:lr-tb;text-anchor:start;fill:#000000;fill-opacity:1;stroke:none;stroke-width:1px;stroke-linecap:butt;stroke-linejoin:miter;stroke-opacity:1;font-family:DejaVu Sans"
       y="219.24464"
       x="39.777832"
       sodipodi:linespacing="100%"
       id="text3273"
       xml:space="preserve"><tspan
         sodipodi:role="line"
         id="tspan3275"
         y="219.24464"
         x="39.777832">D</tspan></text>
    <text
       style="font-size:11px;font-style:normal;font-variant:normal;font-weight:normal;font-stretch:condensed;text-align:start;line-height:100%;writing-mode:lr-tb;text-anchor:start;fill:#000000;fill-opacity:1;stroke:none;stroke-width:1px;stroke-linecap:butt;stroke-linejoin:miter;stroke-opacity:1;font-family:DejaVu Sans"
       y="187.18294"
       x="39.777832"
       sodipodi:linespacing="100%"
       id="text3277"
       xml:space="preserve"><tspan
         sodipodi:role="line"
         id="tspan3279"
         y="187.18294"
         x="39.777832">E</tspan></text>
    <text
       style="font-size:8px;font-style:normal;font-variant:normal;font-weight:bold;font-stretch:normal;text-align:start;line-height:100%;writing-mode:lr-tb;text-anchor:start;fill:#000000;fill-opacity:1;stroke:none;stroke-width:1px;stroke-linecap:butt;stroke-linejoin:miter;stroke-opacity:1;font-family:DejaVu Sans"
       y="250.46457"
       x="12.25"
       sodipodi:linespacing="100%"
       id="text3626"
       xml:space="preserve"><tspan
         sodipodi:role="line"
         id="tspan3628"
         y="250.46457"
         x="12.25">km</tspan></text>
    <text
       style="font-size:8px;font-style:normal;font-variant:normal;font-weight:normal;font-stretch:condensed;text-align:start;line-height:100%;writing-mode:lr-tb;text-anchor:start;fill:#000000;fill-opacity:1;stroke:none;stroke-width:1px;stroke-linecap:butt;stroke-linejoin:miter;stroke-opacity:1;font-family:DejaVu Sans"
       y="104.46457"
       x="13.75"
       sodipodi:linespacing="100%"
       id="text3630"
       xml:space="preserve"><tspan
         sodipodi:role="line"
         id="tspan3632"
         y="104.46457"
         x="13.75">450</tspan></text>
    <text
       style="font-size:8px;font-style:normal;font-variant:normal;font-weight:normal;font-stretch:condensed;text-align:start;line-height:100%;writing-mode:lr-tb;text-anchor:start;fill:#000000;fill-opacity:1;stroke:none;stroke-width:1px;stroke-linecap:butt;stroke-linejoin:miter;stroke-opacity:1;font-family:DejaVu Sans"
       y="144.21457"
       x="13.5"
       sodipodi:linespacing="100%"
       id="text3634"
       xml:space="preserve"><tspan
         sodipodi:role="line"
         id="tspan3636"
         y="144.21457"
         x="13.5">250</tspan></text>
    <text
       style="font-size:8px;font-style:normal;font-variant:normal;font-weight:normal;font-stretch:condensed;text-align:start;line-height:100%;writing-mode:lr-tb;text-anchor:start;fill:#000000;fill-opacity:1;stroke:none;stroke-width:1px;stroke-linecap:butt;stroke-linejoin:miter;stroke-opacity:1;font-family:DejaVu Sans"
       y="160.96457"
       x="13"
       sodipodi:linespacing="100%"
       id="text3638"
       xml:space="preserve"><tspan
         sodipodi:role="line"
         id="tspan3640"
         y="160.96457"
         x="13">220</tspan></text>
    <text
       style="font-size:8px;font-style:normal;font-variant:normal;font-weight:normal;font-stretch:condensed;text-align:start;line-height:100%;writing-mode:lr-tb;text-anchor:start;fill:#000000;fill-opacity:1;stroke:none;stroke-width:1px;stroke-linecap:butt;stroke-linejoin:miter;stroke-opacity:1;font-family:DejaVu Sans"
       y="175.71457"
       x="13.5"
       sodipodi:linespacing="100%"
       id="text3642"
       xml:space="preserve"><tspan
         sodipodi:role="line"
         id="tspan3644"
         y="175.71457"
         x="13.5">170</tspan></text>
    <text
       style="font-size:8px;font-style:normal;font-variant:normal;font-weight:normal;font-stretch:condensed;text-align:start;line-height:100%;writing-mode:lr-tb;text-anchor:start;fill:#000000;fill-opacity:1;stroke:none;stroke-width:1px;stroke-linecap:butt;stroke-linejoin:miter;stroke-opacity:1;font-family:DejaVu Sans"
       y="198.96457"
       x="13.25"
       sodipodi:linespacing="100%"
       id="text3646"
       xml:space="preserve"><tspan
         sodipodi:role="line"
         id="tspan3648"
         y="198.96457"
         x="13.25">120</tspan></text>
    <text
       style="font-size:8px;font-style:normal;font-variant:normal;font-weight:normal;font-stretch:condensed;text-align:start;line-height:100%;writing-mode:lr-tb;text-anchor:start;fill:#000000;fill-opacity:1;stroke:none;stroke-width:1px;stroke-linecap:butt;stroke-linejoin:miter;stroke-opacity:1;font-family:DejaVu Sans"
       y="210.71457"
       x="12.75"
       sodipodi:linespacing="100%"
       id="text3650"
       xml:space="preserve"><tspan
         sodipodi:role="line"
         id="tspan3652"
         y="210.71457"
         x="12.75">100</tspan></text>
    <text
       style="font-size:8px;font-style:normal;font-variant:normal;font-weight:normal;font-stretch:condensed;text-align:start;line-height:100%;writing-mode:lr-tb;text-anchor:start;fill:#000000;fill-opacity:1;stroke:none;stroke-width:1px;stroke-linecap:butt;stroke-linejoin:miter;stroke-opacity:1;font-family:DejaVu Sans"
       y="226.96457"
       x="16"
       sodipodi:linespacing="100%"
       id="text3654"
       xml:space="preserve"><tspan
         sodipodi:role="line"
         id="tspan3656"
         y="226.96457"
         x="16">80</tspan></text>
    <text
       style="font-size:8px;font-style:normal;font-variant:normal;font-weight:normal;font-stretch:condensed;text-align:start;line-height:100%;writing-mode:lr-tb;text-anchor:start;fill:#000000;fill-opacity:1;stroke:none;stroke-width:1px;stroke-linecap:butt;stroke-linejoin:miter;stroke-opacity:1;font-family:DejaVu Sans"
       y="235.71457"
       x="16"
       sodipodi:linespacing="100%"
       id="text3658"
       xml:space="preserve"><tspan
         sodipodi:role="line"
         id="tspan3660"
         y="235.71457"
         x="16">60</tspan></text>
  </g>
  <g
     inkscape:label="MHz"
     id="layer7"
     inkscape:groupmode="layer">
    <text
       style="font-size:7.99999905px;font-style:normal;font-variant:normal;font-weight:normal;font-stretch:condensed;text-align:start;line-height:100%;writing-mode:lr-tb;text-anchor:start;fill:#000000;fill-opacity:1;stroke:none;stroke-width:1px;stroke-linecap:butt;stroke-linejoin:miter;stroke-opacity:1;font-family:DejaVu Sans"
       transform="matrix(0.258819,-0.9659258,0.9659258,0.258819,0,0)"
       y="118.50562"
       x="-258.29501"
       sodipodi:linespacing="100%"
       id="text4826"
       xml:space="preserve"><tspan
         sodipodi:role="line"
         id="tspan4828"
         y="118.50562"
         x="-258.29501">&lt; 5 MHz</tspan></text>
    <text
       style="font-size:7.99999905px;font-style:normal;font-variant:normal;font-weight:normal;font-stretch:condensed;text-align:start;line-height:100%;writing-mode:lr-tb;text-anchor:start;fill:#000000;fill-opacity:1;stroke:none;stroke-width:1px;stroke-linecap:butt;stroke-linejoin:miter;stroke-opacity:1;font-family:DejaVu Sans"
       transform="matrix(0.258819,-0.9659258,0.9659258,0.258819,0,0)"
       y="173.00204"
       x="-235.07147"
       sodipodi:linespacing="100%"
       id="text4830"
       xml:space="preserve"><tspan
         sodipodi:role="line"
         id="tspan4832"
         y="173.00204"
         x="-235.07147">&gt; 5 MHz</tspan></text>
    <text
       style="font-size:8px;font-style:normal;font-variant:normal;font-weight:normal;font-stretch:condensed;text-align:start;line-height:100%;writing-mode:lr-tb;text-anchor:start;fill:#000000;fill-opacity:1;stroke:none;stroke-width:1px;stroke-linecap:butt;stroke-linejoin:miter;stroke-opacity:1;font-family:DejaVu Sans"
       y="193.46457"
       x="231"
       sodipodi:linespacing="100%"
       id="text4838"
       xml:space="preserve"><tspan
         sodipodi:role="line"
         id="tspan4840"
         y="193.46457"
         x="231">1.5–5 MHz</tspan></text>
    <text
       style="font-size:8px;font-style:normal;font-variant:normal;font-weight:normal;font-stretch:condensed;text-align:start;line-height:100%;writing-mode:lr-tb;text-anchor:start;fill:#000000;fill-opacity:1;stroke:none;stroke-width:1px;stroke-linecap:butt;stroke-linejoin:miter;stroke-opacity:1;font-family:DejaVu Sans"
       y="174.46457"
       x="91"
       sodipodi:linespacing="100%"
       id="text4842"
       xml:space="preserve"><tspan
         sodipodi:role="line"
         id="tspan4844"
         y="174.46457"
         x="91">&lt; 10 MHz</tspan></text>
    <text
       style="font-size:8px;font-style:normal;font-variant:normal;font-weight:normal;font-stretch:condensed;text-align:start;line-height:100%;writing-mode:lr-tb;text-anchor:start;fill:#000000;fill-opacity:1;stroke:none;stroke-width:1px;stroke-linecap:butt;stroke-linejoin:miter;stroke-opacity:1;font-family:DejaVu Sans"
       y="139.89677"
       x="166.63455"
       sodipodi:linespacing="100%"
       id="text4854"
       xml:space="preserve"><tspan
         sodipodi:role="line"
         id="tspan4856"
         y="139.89677"
         x="166.63455">&lt; 30 MHz</tspan></text>
    <text
       style="font-size:7.99999952px;font-style:normal;font-variant:normal;font-weight:normal;font-stretch:condensed;text-align:start;line-height:100%;writing-mode:lr-tb;text-anchor:start;fill:#000000;fill-opacity:1;stroke:none;stroke-width:1px;stroke-linecap:butt;stroke-linejoin:miter;stroke-opacity:1;font-family:DejaVu Sans"
       transform="matrix(0.258819,-0.9659258,0.9659258,0.258819,0,0)"
       y="324.99808"
       x="-193.63284"
       sodipodi:linespacing="100%"
       id="text4864"
       xml:space="preserve"><tspan
         sodipodi:role="line"
         id="tspan4866"
         y="324.99808"
         x="-193.63284">&gt; 1.5 MHz</tspan></text>
    <text
       style="font-size:11px;font-style:normal;font-variant:normal;font-weight:normal;font-stretch:condensed;text-align:start;line-height:100%;writing-mode:lr-tb;text-anchor:start;fill:#000000;fill-opacity:1;stroke:none;stroke-width:1px;stroke-linecap:butt;stroke-linejoin:miter;stroke-opacity:1;font-family:DejaVu Sans"
       y="145.96457"
       x="430"
       sodipodi:linespacing="100%"
       id="text3244"
       xml:space="preserve"><tspan
         style="font-size:8px;font-style:normal;font-variant:normal;font-weight:normal;font-stretch:condensed;text-align:start;line-height:100%;writing-mode:lr-tb;text-anchor:start;font-family:DejaVu Sans"
         sodipodi:role="line"
         id="tspan3246"
         y="145.96457"
         x="430">&lt; 10 MHz</tspan></text>
  </g>
  <path
     style="fill:none;fill-rule:evenodd;stroke:#000000;stroke-width:1px;stroke-linecap:butt;stroke-linejoin:miter;stroke-opacity:1"
     d=""
     id="path0872" />
</svg>
