<?xml version="1.0" encoding="UTF-8" standalone="no"?>
<!-- Created with Inkscape (http://www.inkscape.org/) -->
<svg
   xmlns:dc="http://purl.org/dc/elements/1.1/"
   xmlns:cc="http://web.resource.org/cc/"
   xmlns:rdf="http://www.w3.org/1999/02/22-rdf-syntax-ns#"
   xmlns:svg="http://www.w3.org/2000/svg"
   xmlns="http://www.w3.org/2000/svg"
   xmlns:sodipodi="http://sodipodi.sourceforge.net/DTD/sodipodi-0.dtd"
   xmlns:inkscape="http://www.inkscape.org/namespaces/inkscape"
   version="1.0"
   width="318.89764"
   height="248.03149"
   id="svg1901"
   sodipodi:version="0.32"
   inkscape:version="0.45.1"
   sodipodi:docname="Amfu-Maidenhead_QTH-Locator_erklärt.svg"
   inkscape:output_extension="org.inkscape.output.svg.inkscape"
   sodipodi:docbase="/home/simon/svg"
   inkscape:export-filename="/home/simon/Documents/OpenOffice/Behelf/images/Amfu-Maidenhead_QTH-Locator_erklärt.png"
   inkscape:export-xdpi="288"
   inkscape:export-ydpi="288">
  <metadata
     id="metadata59">
    <rdf:RDF>
      <cc:Work
         rdf:about="">
        <dc:format>image/svg+xml</dc:format>
        <dc:type
           rdf:resource="http://purl.org/dc/dcmitype/StillImage" />
        <dc:title>Maidenhead QTH Locator</dc:title>
        <dc:date>2008</dc:date>
        <dc:creator>
          <cc:Agent>
            <dc:title>Oona S.</dc:title>
          </cc:Agent>
        </dc:creator>
        <dc:rights>
          <cc:Agent>
            <dc:title>GFDL</dc:title>
          </cc:Agent>
        </dc:rights>
        <cc:license
           rdf:resource="http://creativecommons.org/licenses/GPL/2.0/" />
      </cc:Work>
      <cc:License
         rdf:about="http://creativecommons.org/licenses/GPL/2.0/">
        <cc:permits
           rdf:resource="http://web.resource.org/cc/Reproduction" />
        <cc:permits
           rdf:resource="http://web.resource.org/cc/Distribution" />
        <cc:requires
           rdf:resource="http://web.resource.org/cc/Notice" />
        <cc:permits
           rdf:resource="http://web.resource.org/cc/DerivativeWorks" />
        <cc:requires
           rdf:resource="http://web.resource.org/cc/ShareAlike" />
        <cc:requires
           rdf:resource="http://web.resource.org/cc/SourceCode" />
      </cc:License>
    </rdf:RDF>
  </metadata>
  <sodipodi:namedview
     inkscape:window-height="1001"
     inkscape:window-width="1674"
     inkscape:pageshadow="2"
     inkscape:pageopacity="0.0"
     guidetolerance="10.0"
     gridtolerance="10.0"
     objecttolerance="10.0"
     borderopacity="1.0"
     bordercolor="#666666"
     pagecolor="#ffffff"
     id="base"
     inkscape:zoom="2.1826029"
     inkscape:cx="295.5665"
     inkscape:cy="129.79217"
     inkscape:window-x="0"
     inkscape:window-y="3"
     inkscape:current-layer="svg1901"
     width="9cm"
     height="7cm"
     units="cm" />
  <defs
     id="defs1903" />
  <path
     id="path4194"
     style="opacity:1;color:#000000;fill:#ffcdcd;fill-opacity:1;fill-rule:nonzero;stroke:none;stroke-width:2;stroke-linecap:butt;stroke-linejoin:miter;marker:none;marker-start:none;marker-mid:none;marker-end:none;stroke-miterlimit:4;stroke-dasharray:none;stroke-dashoffset:0;stroke-opacity:1;visibility:visible;display:inline;overflow:visible;enable-background:accumulate"
     d="M 87.121352,42.656207 L 101.23765,42.656207 L 94.76768,27.128264 L 87.121352,42.656207 z " />
  <rect
     id="rect3154"
     style="opacity:1;fill:#cdffd0;fill-opacity:1"
     y="108.242"
     x="174.33331"
     height="31.727158"
     width="18.06723" />
  <rect
     id="rect3156"
     style="opacity:1;fill:#98ff9e;fill-opacity:1"
     y="108.242"
     x="139.05576"
     height="31.727158"
     width="18.06723" />
  <rect
     id="rect3148"
     style="opacity:1;fill:#98ff9e;fill-opacity:1"
     y="108.242"
     x="103.43546"
     height="31.727158"
     width="18.06723" />
  <rect
     id="rect3146"
     style="opacity:1;fill:#ffcdcd;fill-opacity:1"
     y="108.242"
     x="121.50268"
     height="31.727158"
     width="18.06723" />
  <rect
     id="rect3150"
     style="opacity:1;fill:#ffcdcd;fill-opacity:1"
     y="108.242"
     x="85.368225"
     height="31.727158"
     width="18.06723" />
  <rect
     id="rect3152"
     style="opacity:1;fill:#ffdbdb;fill-opacity:1"
     y="108.242"
     x="156.26607"
     height="31.727158"
     width="18.06723" />
  <rect
     id="rect3161"
     style="opacity:1;fill:#ffe5e5;fill-opacity:1"
     y="108.242"
     x="191.54362"
     height="31.727158"
     width="18.06723" />
  <rect
     id="rect3163"
     style="opacity:1;fill:#e1ffe3;fill-opacity:1"
     y="108.242"
     x="208.92534"
     height="31.727158"
     width="18.06723" />
  <text
     sodipodi:linespacing="125%"
     xml:space="preserve"
     id="text3165"
     style="font-size:11px;font-style:normal;font-variant:normal;font-weight:normal;font-stretch:condensed;text-align:start;line-height:125%;writing-mode:lr-tb;text-anchor:start;opacity:1;fill:#ff3636;fill-opacity:1;stroke:none;stroke-width:1px;stroke-linecap:butt;stroke-linejoin:miter;stroke-opacity:1;font-family:DejaVu Sans"
     y="83.663643"
     x="6.3531404"><tspan
       id="tspan3167"
       style="font-size:11px;font-style:normal;font-variant:normal;font-weight:normal;font-stretch:condensed;text-align:start;line-height:125%;writing-mode:lr-tb;text-anchor:start;fill:#ff3636;fill-opacity:1;font-family:DejaVu Sans"
       y="83.663643"
       x="6.3531404">Längenrichtung</tspan></text>
  <text
     sodipodi:linespacing="125%"
     xml:space="preserve"
     id="text3169"
     style="font-size:11px;font-style:normal;font-variant:normal;font-weight:normal;font-stretch:condensed;text-align:start;line-height:125%;writing-mode:lr-tb;text-anchor:start;opacity:1;fill:#00b80b;fill-opacity:1;stroke:none;stroke-width:1px;stroke-linecap:butt;stroke-linejoin:miter;stroke-opacity:1;font-family:DejaVu Sans"
     y="170.97026"
     x="6.6697583"><tspan
       id="tspan3171"
       style="font-size:11px;font-style:normal;font-variant:normal;font-weight:normal;font-stretch:condensed;text-align:start;line-height:125%;writing-mode:lr-tb;text-anchor:start;fill:#00b80b;fill-opacity:1;font-family:DejaVu Sans"
       y="170.97026"
       x="6.6697583">Breitenrichtung</tspan></text>
  <path
     id="path4362"
     style="opacity:1;color:#000000;fill:none;fill-opacity:1;fill-rule:nonzero;stroke:#ffe5e5;stroke-width:6.48352432;stroke-linecap:butt;stroke-linejoin:miter;marker:none;marker-start:none;marker-mid:none;marker-end:none;stroke-miterlimit:4;stroke-dashoffset:0;stroke-opacity:1;visibility:visible;display:inline;overflow:visible;enable-background:accumulate"
     d="M 199.93264,109.33089 L 199.93264,92.494423" />
  <path
     id="path4360"
     style="opacity:1;color:#000000;fill:none;fill-opacity:1;fill-rule:nonzero;stroke:#ffdbdb;stroke-width:6.48352432;stroke-linecap:butt;stroke-linejoin:miter;marker:none;marker-start:none;marker-mid:none;marker-end:none;stroke-miterlimit:4;stroke-dashoffset:0;stroke-opacity:1;visibility:visible;display:inline;overflow:visible;enable-background:accumulate"
     d="M 165.26934,109.33089 L 165.56167,76.41665" />
  <path
     id="path4358"
     style="opacity:1;color:#000000;fill:none;fill-opacity:1;fill-rule:nonzero;stroke:#ffcdcd;stroke-width:6.48352432;stroke-linecap:butt;stroke-linejoin:miter;marker:none;marker-start:none;marker-mid:none;marker-end:none;stroke-miterlimit:4;stroke-dashoffset:0;stroke-opacity:1;visibility:visible;display:inline;overflow:visible;enable-background:accumulate"
     d="M 130.27591,109.33089 L 130.56823,59.169587" />
  <path
     id="path3173"
     style="opacity:1;color:#000000;fill:none;fill-opacity:1;fill-rule:nonzero;stroke:#ffcdcd;stroke-width:6.48352432;stroke-linecap:butt;stroke-linejoin:miter;marker:none;marker-start:none;marker-mid:none;marker-end:none;stroke-miterlimit:4;stroke-dashoffset:0;stroke-opacity:1;visibility:visible;display:inline;overflow:visible;enable-background:accumulate"
     d="M 94.292099,109.33089 L 94.292099,42.214846" />
  <text
     sodipodi:linespacing="125%"
     xml:space="preserve"
     id="text4150"
     style="font-size:11px;font-style:normal;font-variant:normal;font-weight:normal;font-stretch:condensed;text-align:start;line-height:125%;writing-mode:lr-tb;text-anchor:start;opacity:1;fill:#000000;fill-opacity:1;stroke:none;stroke-width:1px;stroke-linecap:butt;stroke-linejoin:miter;stroke-opacity:1;font-family:DejaVu Sans"
     y="22.134493"
     x="85.075356"><tspan
       id="tspan4152"
       style="font-size:11px;font-style:normal;font-variant:normal;font-weight:normal;font-stretch:condensed;text-align:start;line-height:125%;writing-mode:lr-tb;text-anchor:start;font-family:DejaVu Sans"
       y="22.134493"
       x="85.075356">Grösstfeld; <tspan
   id="tspan4288"
   style="font-size:11px;font-style:normal;font-variant:normal;font-weight:normal;font-stretch:condensed;text-align:start;line-height:125%;writing-mode:lr-tb;text-anchor:start;fill:#ff3636;fill-opacity:1;font-family:DejaVu Sans">A…R</tspan> = 180° W … 180 °E</tspan></text>
  <path
     id="path4354"
     style="opacity:1;color:#000000;fill:none;fill-opacity:1;fill-rule:nonzero;stroke:#e1ffe3;stroke-width:6.48352432;stroke-linecap:butt;stroke-linejoin:miter;marker:none;marker-start:none;marker-mid:none;marker-end:none;stroke-miterlimit:4;stroke-dashoffset:0;stroke-opacity:1;visibility:visible;display:inline;overflow:visible;enable-background:accumulate"
     d="M 217.97073,137.45595 L 217.97073,154.29241" />
  <path
     id="path4352"
     style="opacity:1;color:#000000;fill:none;fill-opacity:1;fill-rule:nonzero;stroke:#cdffd0;stroke-width:6.48352432;stroke-linecap:butt;stroke-linejoin:miter;marker:none;marker-start:none;marker-mid:none;marker-end:none;stroke-miterlimit:4;stroke-dashoffset:0;stroke-opacity:1;visibility:visible;display:inline;overflow:visible;enable-background:accumulate"
     d="M 183.30743,137.45595 L 183.59975,170.37018" />
  <path
     id="path4350"
     style="opacity:1;color:#000000;fill:none;fill-opacity:1;fill-rule:nonzero;stroke:#98ff9e;stroke-width:6.48352432;stroke-linecap:butt;stroke-linejoin:miter;marker:none;marker-start:none;marker-mid:none;marker-end:none;stroke-miterlimit:4;stroke-dashoffset:0;stroke-opacity:1;visibility:visible;display:inline;overflow:visible;enable-background:accumulate"
     d="M 148.314,137.45595 L 148.60632,187.61725" />
  <path
     id="path4162"
     style="opacity:1;color:#000000;fill:none;fill-opacity:1;fill-rule:nonzero;stroke:#98ff9e;stroke-width:6.48352432;stroke-linecap:butt;stroke-linejoin:miter;marker:none;marker-start:none;marker-mid:none;marker-end:none;stroke-miterlimit:4;stroke-dashoffset:0;stroke-opacity:1;visibility:visible;display:inline;overflow:visible;enable-background:accumulate"
     d="M 112.33019,137.45595 L 112.33019,204.57199" />
  <text
     sodipodi:linespacing="125%"
     xml:space="preserve"
     id="text4170"
     style="font-size:11px;font-style:normal;font-variant:normal;font-weight:normal;font-stretch:condensed;text-align:start;line-height:125%;writing-mode:lr-tb;text-anchor:start;opacity:1;fill:#000000;fill-opacity:1;stroke:none;stroke-width:1px;stroke-linecap:butt;stroke-linejoin:miter;stroke-opacity:1;font-family:DejaVu Sans"
     y="229.25771"
     x="104.5684"><tspan
       id="tspan4172"
       style="font-size:11px;font-style:normal;font-variant:normal;font-weight:normal;font-stretch:condensed;text-align:start;line-height:125%;writing-mode:lr-tb;text-anchor:start;font-family:DejaVu Sans"
       y="229.25771"
       x="104.5684">Grösstfeld; <tspan
   id="tspan4244"
   style="font-size:11px;font-style:normal;font-variant:normal;font-weight:normal;font-stretch:condensed;text-align:start;line-height:125%;writing-mode:lr-tb;text-anchor:start;fill:#00b800;fill-opacity:1;font-family:DejaVu Sans">A…R</tspan> = 90° S … 90° N</tspan></text>
  <path
     id="path4210"
     style="opacity:1;color:#000000;fill:#ffcdcd;fill-opacity:1;fill-rule:nonzero;stroke:none;stroke-width:2;stroke-linecap:butt;stroke-linejoin:miter;marker:none;marker-start:none;marker-mid:none;marker-end:none;stroke-miterlimit:4;stroke-dasharray:none;stroke-dashoffset:0;stroke-opacity:1;visibility:visible;display:inline;overflow:visible;enable-background:accumulate"
     d="M 123.2591,59.595778 L 137.3754,59.595778 L 130.90543,44.067833 L 123.2591,59.595778 z " />
  <path
     id="path4212"
     style="opacity:1;color:#000000;fill:#ffdbdb;fill-opacity:1;fill-rule:nonzero;stroke:none;stroke-width:2;stroke-linecap:butt;stroke-linejoin:miter;marker:none;marker-start:none;marker-mid:none;marker-end:none;stroke-miterlimit:4;stroke-dasharray:none;stroke-dashoffset:0;stroke-opacity:1;visibility:visible;display:inline;overflow:visible;enable-background:accumulate"
     d="M 158.26755,77.664648 L 172.38385,77.664648 L 165.91387,62.136709 L 158.26755,77.664648 z " />
  <path
     id="path4214"
     style="opacity:1;color:#000000;fill:#ffe5e5;fill-opacity:1;fill-rule:nonzero;stroke:none;stroke-width:2;stroke-linecap:butt;stroke-linejoin:miter;marker:none;marker-start:none;marker-mid:none;marker-end:none;stroke-miterlimit:4;stroke-dasharray:none;stroke-dashoffset:0;stroke-opacity:1;visibility:visible;display:inline;overflow:visible;enable-background:accumulate"
     d="M 192.71134,94.60422 L 206.82764,94.60422 L 200.35767,79.076273 L 192.71134,94.60422 z " />
  <path
     id="path4216"
     style="opacity:1;color:#000000;fill:#98ff9e;fill-opacity:1;fill-rule:nonzero;stroke:none;stroke-width:2;stroke-linecap:butt;stroke-linejoin:miter;marker:none;marker-start:none;marker-mid:none;marker-end:none;stroke-miterlimit:4;stroke-dasharray:none;stroke-dashoffset:0;stroke-opacity:1;visibility:visible;display:inline;overflow:visible;enable-background:accumulate"
     d="M 105.19023,201.60583 L 119.30653,201.60583 L 112.83656,217.13378 L 105.19023,201.60583 z " />
  <path
     id="path4218"
     style="opacity:1;color:#000000;fill:#98ff9e;fill-opacity:1;fill-rule:nonzero;stroke:none;stroke-width:2;stroke-linecap:butt;stroke-linejoin:miter;marker:none;marker-start:none;marker-mid:none;marker-end:none;stroke-miterlimit:4;stroke-dasharray:none;stroke-dashoffset:0;stroke-opacity:1;visibility:visible;display:inline;overflow:visible;enable-background:accumulate"
     d="M 141.32798,184.66626 L 155.44428,184.66626 L 148.97431,200.19421 L 141.32798,184.66626 z " />
  <path
     id="path4220"
     style="opacity:1;color:#000000;fill:#cdffd0;fill-opacity:1;fill-rule:nonzero;stroke:none;stroke-width:2;stroke-linecap:butt;stroke-linejoin:miter;marker:none;marker-start:none;marker-mid:none;marker-end:none;stroke-miterlimit:4;stroke-dasharray:none;stroke-dashoffset:0;stroke-opacity:1;visibility:visible;display:inline;overflow:visible;enable-background:accumulate"
     d="M 176.33642,166.59739 L 190.45273,166.59739 L 183.98275,182.12533 L 176.33642,166.59739 z " />
  <path
     id="path4222"
     style="opacity:1;color:#000000;fill:#e1ffe3;fill-opacity:1;fill-rule:nonzero;stroke:none;stroke-width:2;stroke-linecap:butt;stroke-linejoin:miter;marker:none;marker-start:none;marker-mid:none;marker-end:none;stroke-miterlimit:4;stroke-dasharray:none;stroke-dashoffset:0;stroke-opacity:1;visibility:visible;display:inline;overflow:visible;enable-background:accumulate"
     d="M 210.78022,149.65782 L 224.89652,149.65782 L 218.42655,165.18576 L 210.78022,149.65782 z " />
  <text
     sodipodi:linespacing="125%"
     xml:space="preserve"
     id="text4232"
     style="font-size:11px;font-style:normal;font-variant:normal;font-weight:normal;font-stretch:condensed;text-align:start;line-height:125%;writing-mode:lr-tb;text-anchor:start;opacity:1;fill:#000000;fill-opacity:1;stroke:none;stroke-width:1px;stroke-linecap:butt;stroke-linejoin:miter;stroke-opacity:1;font-family:DejaVu Sans"
     y="40.403954"
     x="123.98946"><tspan
       id="tspan4234"
       style="font-size:11px;font-style:normal;font-variant:normal;font-weight:normal;font-stretch:condensed;text-align:start;line-height:125%;writing-mode:lr-tb;text-anchor:start;font-family:DejaVu Sans"
       y="40.403954"
       x="123.98946">Grossfeld; <tspan
   id="tspan4274"
   style="font-size:11px;font-style:normal;font-variant:normal;font-weight:normal;font-stretch:condensed;text-align:start;line-height:125%;writing-mode:lr-tb;text-anchor:start;fill:#ff3636;fill-opacity:1;font-family:DejaVu Sans">0…9</tspan> = +0°... 18°</tspan></text>
  <text
     sodipodi:linespacing="125%"
     xml:space="preserve"
     id="text4236"
     style="font-size:11px;font-style:normal;font-variant:normal;font-weight:normal;font-stretch:condensed;text-align:start;line-height:125%;writing-mode:lr-tb;text-anchor:start;opacity:1;fill:#000000;fill-opacity:1;stroke:none;stroke-width:1px;stroke-linecap:butt;stroke-linejoin:miter;stroke-opacity:1;font-family:DejaVu Sans"
     y="212.52266"
     x="141.08736"><tspan
       id="tspan4238"
       style="font-size:11px;font-style:normal;font-variant:normal;font-weight:normal;font-stretch:condensed;text-align:start;line-height:125%;writing-mode:lr-tb;text-anchor:start;font-family:DejaVu Sans"
       y="212.52266"
       x="141.08736">Grossfeld; <tspan
   id="tspan4250"
   style="font-size:11px;font-style:normal;font-variant:normal;font-weight:normal;font-stretch:condensed;text-align:start;line-height:125%;writing-mode:lr-tb;text-anchor:start;fill:#00b800;fill-opacity:1;font-family:DejaVu Sans">0…9</tspan> = +0°… 9°</tspan></text>
  <text
     sodipodi:linespacing="125%"
     xml:space="preserve"
     id="text4240"
     style="font-size:11px;font-style:normal;font-variant:normal;font-weight:normal;font-stretch:condensed;text-align:start;line-height:125%;writing-mode:lr-tb;text-anchor:start;opacity:1;fill:#8a8a8a;fill-opacity:1;stroke:none;stroke-width:1px;stroke-linecap:butt;stroke-linejoin:miter;stroke-opacity:1;font-family:DejaVu Sans"
     y="57.501846"
     x="157.61531"><tspan
       id="tspan4242"
       style="font-size:11px;font-style:normal;font-variant:normal;font-weight:normal;font-stretch:condensed;text-align:start;line-height:125%;writing-mode:lr-tb;text-anchor:start;fill:#8a8a8a;fill-opacity:1;font-family:DejaVu Sans"
       y="57.501846"
       x="157.61531"><tspan
   style="fill:#000000;fill-opacity:1"
   id="tspan3180">Kleinfeld; </tspan><tspan
   id="tspan4304"
   style="font-size:11px;font-style:normal;font-variant:normal;font-weight:normal;font-stretch:condensed;text-align:start;line-height:125%;writing-mode:lr-tb;text-anchor:start;fill:#ff3636;fill-opacity:1;font-family:DejaVu Sans">a…x</tspan><tspan
   style="fill:#000000;fill-opacity:1"
   id="tspan3182"> = +0°... 2</tspan>°</tspan></text>
  <text
     sodipodi:linespacing="125%"
     xml:space="preserve"
     id="text4318"
     style="font-size:11px;font-style:normal;font-variant:normal;font-weight:normal;font-stretch:condensed;text-align:start;line-height:125%;writing-mode:lr-tb;text-anchor:start;opacity:1;fill:#8a8a8a;fill-opacity:1;stroke:none;stroke-width:1px;stroke-linecap:butt;stroke-linejoin:miter;stroke-opacity:1;font-family:DejaVu Sans"
     y="193.71497"
     x="180.41248"><tspan
       id="tspan4320"
       style="font-size:11px;font-style:normal;font-variant:normal;font-weight:normal;font-stretch:condensed;text-align:start;line-height:125%;writing-mode:lr-tb;text-anchor:start;fill:#8a8a8a;fill-opacity:1;font-family:DejaVu Sans"
       y="193.71497"
       x="180.41248"><tspan
   style="fill:#000000;fill-opacity:1"
   id="tspan3194">Kleinfeld;</tspan><tspan
   id="tspan4322"
   style="font-size:11px;font-style:normal;font-variant:normal;font-weight:normal;font-stretch:condensed;text-align:start;line-height:125%;writing-mode:lr-tb;text-anchor:start;fill:#00b800;fill-opacity:1;font-family:DejaVu Sans"> a…x</tspan><tspan
   style="fill:#000000;fill-opacity:1"
   id="tspan3196"> = +0°… 1</tspan>°</tspan></text>
  <text
     sodipodi:linespacing="125%"
     xml:space="preserve"
     id="text4338"
     style="font-size:11px;font-style:normal;font-variant:normal;font-weight:normal;font-stretch:condensed;text-align:start;line-height:125%;writing-mode:lr;text-anchor:start;opacity:1;fill:#000000;fill-opacity:1;stroke:none;stroke-width:1px;stroke-linecap:butt;stroke-linejoin:miter;stroke-opacity:1;font-family:DejaVu Sans"
     y="76.309517"
     x="196.3705"><tspan
       id="tspan4340"
       style="font-size:11px;fill:#000000;fill-opacity:1;font-family:DejaVu Sans;font-weight:normal;font-style:normal;font-stretch:condensed;font-variant:normal;text-anchor:start;text-align:start;writing-mode:lr;line-height:125%"
       y="76.309517"
       x="196.3705">Mikrofeld</tspan></text>
  <text
     sodipodi:linespacing="125%"
     xml:space="preserve"
     id="text4344"
     style="font-size:11px;font-style:normal;font-variant:normal;font-weight:normal;font-stretch:condensed;text-align:start;line-height:125%;writing-mode:lr;text-anchor:start;opacity:1;fill:#000000;fill-opacity:1;stroke:none;stroke-width:1px;stroke-linecap:butt;stroke-linejoin:miter;stroke-opacity:1;font-family:DejaVu Sans"
     y="174.9073"
     x="215.17818"><tspan
       id="tspan4346"
       style="font-size:11px;fill:#000000;fill-opacity:1;font-family:DejaVu Sans;font-weight:normal;font-style:normal;font-stretch:condensed;font-variant:normal;text-anchor:start;text-align:start;writing-mode:lr;line-height:125%"
       y="174.9073"
       x="215.17818">Mikrofeld</tspan></text>
  <path
     id="path4426"
     style="font-size:20px;font-style:normal;font-variant:normal;font-weight:normal;font-stretch:normal;text-align:start;line-height:125%;writing-mode:lr-tb;text-anchor:start;opacity:1;fill:#000000;fill-opacity:1;stroke:none;stroke-width:1px;stroke-linecap:butt;stroke-linejoin:miter;stroke-opacity:1;font-family:Sans"
     d="M 87.80662,113.67225 L 94.658962,113.67225 C 97.023787,113.67226 98.799787,114.12339 99.986969,115.02562 C 101.18362,115.91838 101.78196,117.25752 101.78197,119.043 C 101.78196,120.41063 101.43056,121.47909 100.72777,122.24835 C 100.02494,123.01765 98.994487,123.46402 97.636373,123.58748 C 99.260409,123.74894 100.48082,124.29504 101.29761,125.22577 C 102.12385,126.15652 102.53699,127.45766 102.53701,129.12918 C 102.53699,131.18062 101.91967,132.66695 100.68502,133.58819 C 99.450359,134.50943 97.441673,134.97005 94.658962,134.97005 L 87.80662,134.97005 L 87.80662,113.67225 M 91.866735,125.31125 L 91.866735,131.60799 L 94.658962,131.60799 C 95.998076,131.60799 96.933562,131.38006 97.465426,130.92419 C 98.006762,130.46831 98.277434,129.67529 98.27745,128.5451 C 98.277434,127.39592 97.997262,126.56966 97.436932,126.06629 C 96.876577,125.56293 95.950583,125.31126 94.658962,125.31125 L 91.866735,125.31125 M 91.866735,117.02006 L 91.866735,121.96344 L 94.658962,121.96344 C 95.722647,121.96344 96.477685,121.7735 96.924078,121.39359 C 97.379934,121.01371 97.607871,120.38689 97.607887,119.51312 C 97.607871,118.63937 97.375185,118.0078 96.909829,117.6184 C 96.453949,117.21952 95.70366,117.02008 94.658962,117.02006 L 91.866735,117.02006 M 106.78233,134.97005 L 106.78233,113.70073 L 110.98491,113.70073 L 110.98491,131.26609 L 119.97414,131.26609 L 119.97414,134.97005 L 106.78233,134.97005 M 123.80632,131.26609 L 128.50751,131.26609 L 128.50751,117.46169 L 124.13399,118.54439 L 124.13399,114.75494 L 128.53601,113.70073 L 132.59612,113.70073 L 132.59612,131.26609 L 137.29731,131.26609 L 137.29731,134.97005 L 123.80632,134.97005 L 123.80632,131.26609 M 141.35743,131.26609 L 146.05861,131.26609 L 146.05861,117.46169 L 141.68509,118.54439 L 141.68509,114.75494 L 146.08711,113.70073 L 150.14722,113.70073 L 150.14722,131.26609 L 154.84841,131.26609 L 154.84841,134.97005 L 141.35743,134.97005 L 141.35743,131.26609" />
  <path
     id="path4416"
     style="font-size:20px;font-style:normal;font-variant:normal;font-weight:normal;font-stretch:normal;text-align:start;line-height:125%;writing-mode:lr-tb;text-anchor:start;opacity:1;fill:#000000;fill-opacity:1;stroke:none;stroke-width:1px;stroke-linecap:butt;stroke-linejoin:miter;stroke-opacity:1;font-family:Sans"
     d="M 162.52702,121.27963 C 163.03987,120.39639 163.63345,119.73632 164.30778,119.29943 C 164.99158,118.85306 165.76086,118.62987 166.61562,118.62986 C 168.50559,118.62987 169.95869,119.35168 170.97491,120.79526 C 172.00061,122.23887 172.51347,124.30929 172.51349,127.00652 C 172.51347,129.66579 172.01011,131.72671 171.00341,133.1893 C 169.99667,134.65189 168.58157,135.38319 166.75809,135.38319 C 165.79885,135.38319 164.96308,135.1505 164.25079,134.68513 C 163.53848,134.21976 162.9639,133.52646 162.52702,132.60522 L 162.52702,134.97005 L 158.36718,134.97005 L 158.36718,112.80324 L 162.52702,112.80324 L 162.52702,121.27963 M 168.3394,127.03502 C 168.33938,125.49645 168.08296,124.29029 167.57011,123.41653 C 167.05724,122.54278 166.3497,122.1059 165.44746,122.10589 C 164.5452,122.1059 163.8329,122.54278 163.31055,123.41653 C 162.78819,124.29029 162.52702,125.49645 162.52702,127.03502 C 162.52702,128.57359 162.78819,129.77975 163.31055,130.65351 C 163.8329,131.52727 164.5452,131.96414 165.44746,131.96414 C 166.3497,131.96414 167.05724,131.52727 167.57011,130.65351 C 168.08296,129.77975 168.33938,128.57359 168.3394,127.03502 M 189.03887,124.6132 L 189.03887,134.97005 L 184.89328,134.97005 L 184.89328,125.25426 C 184.89327,124.1051 184.72707,123.28358 184.39466,122.78971 C 184.07175,122.29586 183.5399,122.04892 182.79911,122.0489 C 182.03932,122.04892 181.44573,122.38608 181.01836,123.06037 C 180.59098,123.7252 180.37729,124.65119 180.37729,125.83836 L 180.37729,134.97005 L 176.2317,134.97005 L 176.2317,112.80324 L 180.37729,112.80324 L 180.37729,121.40784 C 180.6717,120.5246 181.17506,119.84079 181.88736,119.35641 C 182.59966,118.87206 183.45917,118.62987 184.4659,118.62986 C 185.97596,118.62987 187.11565,119.13324 187.88495,120.13994 C 188.65422,121.13718 189.03886,122.62826 189.03887,124.6132" />
  <path
     id="path4412"
     style="font-size:20px;font-style:normal;font-variant:normal;font-weight:normal;font-stretch:normal;text-align:start;line-height:125%;writing-mode:lr-tb;text-anchor:start;opacity:1;fill:#000000;fill-opacity:1;stroke:none;stroke-width:1px;stroke-linecap:butt;stroke-linejoin:miter;stroke-opacity:1;font-family:Sans"
     d="M 194.01074,131.26609 L 198.71192,131.26609 L 198.71192,117.46169 L 194.3384,118.54439 L 194.3384,114.75494 L 198.74042,113.70073 L 202.80053,113.70073 L 202.80053,131.26609 L 207.50172,131.26609 L 207.50172,134.97005 L 194.01074,134.97005 L 194.01074,131.26609 M 223.55699,114.19935 L 223.55699,118.01729 C 222.80668,117.58992 222.08489,117.27176 221.3916,117.0628 C 220.70777,116.84438 220.04771,116.73516 219.4114,116.73514 C 217.89182,116.73516 216.73314,117.24802 215.93536,118.27371 C 215.14708,119.28995 214.73394,120.79527 214.69597,122.78971 C 215.14233,122.17238 215.71217,121.71177 216.40548,121.40784 C 217.09878,121.09444 217.91555,120.93773 218.85581,120.93772 C 220.77425,120.93773 222.25585,121.54557 223.30056,122.76121 C 224.34526,123.96739 224.86761,125.68166 224.86763,127.90402 C 224.86761,130.28787 224.27878,132.1351 223.10112,133.44572 C 221.93293,134.75636 220.28515,135.41168 218.15775,135.41168 C 215.56496,135.41168 213.67974,134.54267 212.50208,132.80466 C 211.3339,131.06665 210.74981,128.26019 210.74982,124.38526 C 210.74981,120.7003 211.46687,117.94132 212.90096,116.10832 C 214.33506,114.26585 216.48621,113.34461 219.35441,113.34459 C 220.01922,113.34461 220.70302,113.41584 221.40584,113.55828 C 222.11813,113.70076 222.83518,113.91445 223.55699,114.19935 M 218.04378,124.31403 C 217.13203,124.31404 216.43397,124.64645 215.94961,125.31125 C 215.47474,125.96658 215.23731,126.92106 215.23732,128.1747 C 215.23731,129.41886 215.47474,130.37334 215.94961,131.03815 C 216.43397,131.69347 217.13203,132.02113 218.04378,132.02113 C 218.95551,132.02113 219.65357,131.69347 220.13794,131.03815 C 220.63179,130.37334 220.87873,129.41886 220.87874,128.1747 C 220.87873,126.93055 220.63179,125.97607 220.13794,125.31125 C 219.65357,124.64645 218.95551,124.31404 218.04378,124.31403" />
</svg>
