<?xml version="1.0" encoding="UTF-8" standalone="no"?>
<!-- Created with Inkscape (http://www.inkscape.org/) -->
<svg
   xmlns:dc="http://purl.org/dc/elements/1.1/"
   xmlns:cc="http://web.resource.org/cc/"
   xmlns:rdf="http://www.w3.org/1999/02/22-rdf-syntax-ns#"
   xmlns:svg="http://www.w3.org/2000/svg"
   xmlns="http://www.w3.org/2000/svg"
   xmlns:sodipodi="http://sodipodi.sourceforge.net/DTD/sodipodi-0.dtd"
   xmlns:inkscape="http://www.inkscape.org/namespaces/inkscape"
   width="20"
   height="13.75"
   id="svg2"
   sodipodi:version="0.32"
   inkscape:version="0.45.1"
   version="1.0"
   sodipodi:docbase="/home/simon/svg"
   sodipodi:docname="Amfu-Icon-Buch.svg"
   inkscape:output_extension="org.inkscape.output.svg.inkscape"
   inkscape:export-filename="/home/simon/Documents/OpenOffice/Behelf/images/Amfu-Icon-Buch.png"
   inkscape:export-xdpi="288"
   inkscape:export-ydpi="288">
  <defs
     id="defs4" />
  <sodipodi:namedview
     id="base"
     pagecolor="#ffffff"
     bordercolor="#666666"
     borderopacity="1.0"
     inkscape:pageopacity="0.0"
     inkscape:pageshadow="2"
     inkscape:zoom="8"
     inkscape:cx="29.89774"
     inkscape:cy="16.044153"
     inkscape:document-units="px"
     inkscape:current-layer="layer2"
     width="16pt"
     height="11pt"
     units="pt"
     inkscape:window-width="1674"
     inkscape:window-height="1001"
     inkscape:window-x="0"
     inkscape:window-y="3" />
  <metadata
     id="metadata7">
    <rdf:RDF>
      <cc:Work
         rdf:about="">
        <dc:format>image/svg+xml</dc:format>
        <dc:type
           rdf:resource="http://purl.org/dc/dcmitype/StillImage" />
        <dc:title>Buch-Icon</dc:title>
        <dc:date>2008</dc:date>
        <dc:creator>
          <cc:Agent>
            <dc:title>Simon Eugster</dc:title>
          </cc:Agent>
        </dc:creator>
        <dc:rights>
          <cc:Agent>
            <dc:title>PD</dc:title>
          </cc:Agent>
        </dc:rights>
        <cc:license
           rdf:resource="http://web.resource.org/cc/PublicDomain" />
      </cc:Work>
      <cc:License
         rdf:about="http://web.resource.org/cc/PublicDomain">
        <cc:permits
           rdf:resource="http://web.resource.org/cc/Reproduction" />
        <cc:permits
           rdf:resource="http://web.resource.org/cc/Distribution" />
        <cc:permits
           rdf:resource="http://web.resource.org/cc/DerivativeWorks" />
      </cc:License>
    </rdf:RDF>
  </metadata>
  <g
     inkscape:groupmode="layer"
     id="layer2">
    <path
       style="fill:#e6e6e6;fill-rule:evenodd;stroke:#000000;stroke-width:0.8;stroke-linecap:butt;stroke-linejoin:miter;stroke-opacity:1;stroke-miterlimit:4;stroke-dasharray:none;fill-opacity:1"
       d="M 0.75970292,12.349695 C 0.75970292,12.349695 7.4643463,10.890012 7.637529,10.988974 C 7.8107114,11.087935 8.5034421,11.681704 8.6518843,11.706445 C 8.8003269,11.731185 10.383711,11.805407 10.532153,11.681704 C 10.680596,11.558002 11.323846,11.013714 11.497028,11.013714 C 11.670211,11.013714 19.067585,11.879627 19.067585,11.879627 L 19.41395,2.6762061 C 19.41395,2.6762061 11.843394,1.2907447 11.645471,1.3402255 C 11.447548,1.3897063 10.730076,1.958735 10.556894,1.958735 C 10.383711,1.958735 9.1961728,1.9834754 9.1961728,1.9834754 C 9.1961728,1.9834754 8.1075962,1.2907447 7.9344135,1.2907447 C 7.7612307,1.2907447 1.155549,2.1071773 1.155549,2.1071773 L 0.75970292,12.349695 z "
       id="path3142"
       inkscape:export-filename="/home/simon/Documents/OpenOffice/Behelf/images/path3142.png"
       inkscape:export-xdpi="288"
       inkscape:export-ydpi="288" />
    <path
       style="fill:#ffffff;fill-opacity:1;fill-rule:evenodd;stroke:#000000;stroke-width:0.3;stroke-linecap:round;stroke-linejoin:miter;stroke-miterlimit:4;stroke-dasharray:none;stroke-opacity:1"
       d="M 9.1659912,11.351502 C 7.8997704,10.283815 7.1001685,10.528907 5.7776152,10.700349 C 4.4550619,10.871791 1.718295,11.725303 1.718295,11.725303 L 2.0396274,2.6396308 C 2.0396274,2.6396308 7.2994689,0.3967291 9.3211865,1.3309 C 10.01363,1.650856 9.9191118,3.7590663 9.9191118,3.7590663 C 9.9191118,3.7590663 10.941641,12.208712 9.1659912,11.351502 z "
       id="path3148"
       sodipodi:nodetypes="csccscc" />
    <path
       style="fill:#ffffff;fill-opacity:1;fill-rule:evenodd;stroke:#000000;stroke-width:0.3;stroke-linecap:butt;stroke-linejoin:miter;stroke-miterlimit:4;stroke-dasharray:none;stroke-opacity:1"
       d="M 9.7503575,11.146694 C 10.534009,12.103528 10.09186,9.9138294 18.244434,11.351245 C 18.293817,11.27899 18.297288,3.161678 18.297288,3.161678 L 12.038408,3.6871891 L 9.7503575,11.146694 z "
       id="path3150"
       sodipodi:nodetypes="ccccc" />
    <path
       style="fill:#ffffff;fill-opacity:1;fill-rule:evenodd;stroke:#000000;stroke-width:0.3;stroke-linecap:butt;stroke-linejoin:miter;stroke-miterlimit:4;stroke-dasharray:none;stroke-opacity:1"
       d="M 9.7721614,11.192305 C 11.192682,9.6738184 17.982833,11.197378 17.982833,11.197378 L 18.368758,2.9263477 C 18.368758,2.9263477 11.351878,-0.57596938 9.8946201,1.6527778 L 9.7721614,11.192305 z "
       id="path3144"
       sodipodi:nodetypes="ccccc" />
    <path
       style="fill:#ffffff;fill-opacity:1;fill-rule:evenodd;stroke:#000000;stroke-width:0.3;stroke-linecap:butt;stroke-linejoin:miter;stroke-miterlimit:4;stroke-dasharray:none;stroke-opacity:1"
       d="M 9.9436035,1.5793026 C 8.1557074,-0.33105206 2.1674799,2.5834635 2.1674799,2.5834635 L 1.9960379,11.351502 C 1.9960379,11.351502 8.3761329,9.3309344 9.6497028,11.094338 L 9.9436035,1.5793026 z "
       id="path3146"
       sodipodi:nodetypes="ccccc" />
  </g>
</svg>
